<?xml version="1.0" encoding="UTF-8"?><svg id="Layer_2" xmlns="http://www.w3.org/2000/svg" viewBox="0 0 123.39 95.41"><defs><style>.cls-1{fill:#efd189;}.cls-2{fill:#f2da9f;}.cls-3{fill:#c39d58;}.cls-4{fill:#f9f0d7;}.cls-5{fill:#cda75b;}.cls-6{fill:#edce7f;}.cls-7{fill:#dab45e;}.cls-8{fill:#eccb78;}.cls-9{fill:#765347;}.cls-10{fill:#300f38;}.cls-11{fill:#85614b;}.cls-12{fill:#cfa95b;}.cls-13{fill:#f4e0b0;}.cls-14{fill:#f6e6be;}.cls-15{fill:#c8a25a;}.cls-16{fill:#e7c36a;}.cls-17{fill:#9e7950;}.cls-18{fill:#d3ac5c;}.cls-19{fill:#f0d593;}</style></defs><g id="Layer_1-2"><path class="cls-16" d="m84.05,28.66c1.19-.03,1.93-.91,2.73-1.58,1.79-1.49,3.02-3.44,4.08-5.48.79-1.53,1.54-3.09,2.65-4.42.89-1.07,1.87-2.07,2.87-3.04.38-.37.92-.66,1.57-.36-1.1,1.25-2.08,2.55-2.39,4.22-.14.75-.41,1.5-.44,2.25-.1,2.55-.59,5.04-1.14,7.51-.47,2.1-1.52,4.01-2.99,5.63-.64.71-1.33,1.37-2.12,2.17.8.31,1.49.24,2.13.12,2-.36,3.67-1.37,5.17-2.72,1.97-1.77,4.18-3.14,6.65-4.13,1.27-.51,2.44-1.27,3.61-1.98.41-.25.75-.4,1.35-.17-1.03.78-1.96,1.55-2.96,2.21-2.23,1.46-3.82,3.48-5.3,5.74,1.59.2,3.07.54,4.51,1.11,2.4.94,4.38,2.44,5.98,4.42,1.3,1.61,2.23,3.44,2.74,5.48.51,2.09.6,4.16.26,6.28-.22,1.34-.66,2.56-1.22,3.77-.32.7-.2.86.55,1.08,5.14,1.47,8.54,4.77,10.32,9.79.47,1.34.75,2.76.74,4.15-.03,3.62-1.07,6.91-3.49,9.73-2,2.33-4.43,3.9-7.36,4.74-.91.26-1.82.5-2.78.48-1.52-.03-3.05.16-4.54-.27-.33-.09-.65-.19-1.11-.33-3.88,6.11-9.41,9.75-16.68,10.28-7.3.52-13.3-2.24-18.05-7.87-3.18.9-6.37.85-9.41-.6-2.99-1.42-5.27-3.59-6.54-6.82-.55.1-1.05.25-1.55.26-1.26.03-2.52.1-3.77-.04-1.4-.16-2.75-.61-4-1.32-.37-.21-.73-.2-1.1.05-2.21,1.55-4.69,2.46-7.29,3.07-3.63.86-7.11.62-10.21-1.68-.94-.69-1.81-1.48-2.69-2.25-.71-.62-1.41-1.25-2.33-1.58-.59-.21-1.13-.16-1.61.15-.71.47-1.37.97-1.93,1.68-1.6,2.02-3.51,3.78-6.06,4.5-1.75.49-3.54.83-5.46.46-1.48-.28-2.94-.55-4.33-1.12-.42-.17-.94-.23-1.12-.87.5-.38,1.12-.27,1.59-.13,2.16.63,3.92-.18,5.47-1.5,1.72-1.47,3.1-3.28,4.58-4.99,2.05-2.36,4.5-4.06,7.7-4.64,2.12-.38,3.95-.04,5.78,1.05,1.24.73,2.49,1.48,3.97,1.76,2.01.38,4.32-.29,5.27-2.65.5-1.23.9-2.5,1.47-3.69.62-1.32,1.37-2.58,2.32-3.72.78-.93,1.49-1.92,2.54-2.58.17-.11.23-.44.29-.68.44-1.78.84-3.59,1.6-5.26,1.37-2.99,3.51-5.3,6.44-6.83.19-.1.36-.22.54-.34.03-.02.03-.07.07-.23-.18-.05-.36-.14-.54-.15-2.86-.21-5.35.65-7.47,2.59-.57.53-1.23.98-1.76,1.54-1.86,1.95-4.06,3.31-6.65,4.06-.8.24-1.56.65-2.42,1.02-.1-.63.31-.87.65-1.03.91-.43,1.66-1.07,2.44-1.69,1.23-.99,2.17-2.21,2.97-3.53.94-1.54,1.76-3.16,2.77-4.65,1.28-1.9,2.89-3.5,5.02-4.47.42-.19.85-.38,1.28-.57.02,0,.01-.08.03-.22-1.14-.34-2.31-.55-3.5-.36-2.24.36-4.37,1.11-6.54,1.76-1.96.59-3.94,1.13-5.94,1.56-1.15.25-2.33-.02-3.44-.38-.39-.12-.71-.44-1.27-.81,2.73-.25,4.79-1.46,6.75-2.84,2.36-1.67,4.81-3.19,7.35-4.54,1.74-.93,3.58-1.57,5.62-1.67,1.94-.09,3.82-.02,5.68.55.24.07.52.03.78.04.04.06.08.12.11.18.04-.04.07-.08.11-.11-.06-.03-.12-.07-.19-.1-.04-.16-.03-.37-.13-.48-2.04-2.34-4.47-4.05-7.63-4.51-.55-.08-1.1-.22-1.65-.23-1.86-.03-3.65-.39-5.42-.98-1.94-.65-3.91-1.2-5.86-1.8-.02,0-.03-.07-.07-.2.35-.29.8-.21,1.18-.15,1.35.21,2.68.59,4.03.71.92.08,1.89-.09,2.81-.29,1.79-.39,3.56-.89,5.34-1.33.41-.1.85-.12,1.28-.17.64-.07,1.3.1,1.92-.22.21-.11.52-.06.78-.02,1.85.3,3.78.36,5.39,1.51.05.04.16,0,.37,0-.07-.21-.09-.41-.19-.55-2.1-2.98-5.16-4.63-8.41-6-1.74-.73-3.5-1.44-4.95-2.7-.93-.81-1.62-1.81-2.11-2.92-.14-.32-.07-.74-.11-1.37.97.6,1.77,1,2.47,1.53,2.17,1.68,4.68,2.46,7.34,2.86,1.52.23,3.03.53,4.56.76,2.09.32,3.94,1.21,5.57,2.5,1.13.88,2.13,1.92,3.19,2.89.27.25.55.49.89.79.27-1.38.15-3.52-.04-4.78-.33-2.22-1.36-4.04-2.85-5.67-1.78-1.95-3.32-4.08-4.55-6.42-.31-.59-.7-1.14-1.23-1.98.45.18.66.21.77.33,1.64,1.75,3.49,3.26,5.46,4.62,1.3.9,2.75,1.61,4.03,2.55,3.92,2.9,5.42,5.12,6.62,10.13.21-.84.43-1.44.49-2.05.12-1.22.76-2.42.16-3.67-.07-2.63-1.1-5-2-7.4-.72-1.93-1.03-3.92-.9-5.96.06-1,.39-1.91,1.36-2.44.09.14.18.25.16.27-.92,1.17-.44,2.43-.12,3.59.72,2.59,1.93,4.94,3.72,6.99,1.59,1.82,2.9,3.82,3.61,6.18.59,1.96.56,3.92.26,5.9-.06.42-.2.83.13,1.39.63-.61,1.27-1.13,1.78-1.76,1.36-1.65,2.26-3.53,2.48-5.68.37-3.54,1.11-7,2.34-10.36.13-.35.22-.63.68-.78.04.26.14.47.1.65-.34,1.5-.35,2.99,0,4.49.17.75.16,1.54.29,2.3.28,1.64.6,3.28.89,4.92.07.38.12.76.16,1.15.09.86.03,1.71.19,2.58.15.8-.15,1.69-.3,2.54-.27,1.54-1.05,2.89-1.74,4.27-.06.03-.13.07-.19.1.04.03.08.07.11.1.03-.06.06-.13.09-.19Zm-43.62,18.64c-.07.03-.14.06-.21.09.04.04.07.08.11.12.04-.07.08-.13.11-.2.09-.08.18-.17.27-.25.23.01.46.03.78.05-2.33,2.18-4.57,4.27-6.8,6.37.32.1.57.07.79-.03,1.51-.7,2.69-1.86,3.95-2.91.83-.7,1.58-1.5,2.45-2.15,1.1-.83,2.27-1.54,3.64-1.87,1.63-.39,3.24-.41,4.88-.03.54.13,1.11.06,1.64-.23.41-.23.54-.55.47-.97-.21-1.22-.43-2.43-.67-3.77h-1.09c-.44,0-.88,0-1.31,0-.39,0-.79,0-1.18,0-.38,0-.77-.02-1.15-.03,0-.08-.02-.16-.02-.24.52-.15,1.03-.3,1.78-.51-2.29-.58-4.89.42-6.69,2.4-.16.17-.31.34-.48.49-.39.36-.93.6-1,1.23-.76.63-1.4,1.33-1.59,2.39.68-.36,1.28-.67,1.87-.99h0c-.09.25-.19.51-.28.77-.08.09-.17.18-.25.27Zm29.96-37.3c-.04-.15-.07-.31-.11-.46-.06.03-.12.06-.18.09.09.13.18.26.27.38.04.15.07.31.11.46.06-.03.12-.06.18-.09-.09-.13-.18-.25-.28-.38Zm-7.86,2.61c-.05-.15-.09-.3-.14-.45-.06.03-.12.06-.18.09.09.13.18.27.27.4.09.18.17.35.26.53.09.17.18.35.27.52.09.26.18.52.27.78-.05.17-.1.34-.2.69-.43-.68-.88-1.14-1.03-1.68-.63-2.21-2.31-3.58-3.9-5.03-.4-.36-.92-.57-1.39-.85-.04-.06-.08-.13-.12-.19l-.12.12c.06.04.12.08.19.12.28,1.28,1.16,2.19,1.99,3.11.75.84,1.51,1.65,2.12,2.61.71,1.13,1.37,2.29,1.67,3.59.3,1.31.49,2.63.34,4.02-.15,1.44-.18,2.92.43,4.34.24.55.5.76,1.04.71.81-.09,1.62-.21,2.43-.28,1.63-.14,2.23-.79,2.64-2.02.39-1.16.27-2.27,0-3.42-.63-2.73-1.99-5.04-4.1-6.85-.49-.42-.92-1.06-1.69-1.12-.04-.06-.07-.12-.11-.19-.04.04-.07.08-.11.11.06.04.12.07.19.11.18.84.35,1.69.55,2.64-.32-.24-.55-.4-.77-.57-.09-.26-.18-.52-.27-.78-.09-.18-.17-.35-.26-.53-.09-.17-.18-.35-.26-.52Zm-21.29,2.9c-.03-.07-.06-.13-.1-.2-.04.04-.08.07-.12.11.07.03.13.07.2.1.17.09.34.19.51.28.64.82,1.63,1.13,2.52,1.47,1.85.71,3.62,1.54,5.33,2.54,3.35,1.95,5.58,4.8,6.9,8.4.19.51.42,1,.7,1.65.56-.44,1.06-.78,1.49-1.18.79-.73.93-1.47.52-2.44-1.4-3.32-3.76-5.62-7.19-6.81-2.66-.93-5.3-1.91-7.94-2.86-.76-.27-1.52-.54-2.28-.81-.18-.08-.36-.16-.54-.25Zm-10.77,25.24c.18-.08.36-.17.54-.25,1.77-.76,3.54-1.51,5.3-2.29,3.05-1.36,6.17-2.38,9.56-2.2.95.05,1.89-.08,2.84.24.92.32,1.9.47,2.84.74.51.14.98.16,1.26-.34.32-.55.67-1.13.45-1.81-.05-.15-.21-.29-.36-.36-.26-.13-.56-.21-.84-.32-2.08-.78-4.22-1.18-6.45-1.05-1.59.09-3.14.41-4.6,1.05-3.57,1.55-6.66,3.91-9.96,5.92-.08.05-.06.24-.09.36-.17.09-.34.19-.51.28-.15.04-.31.07-.46.11.03.06.05.12.08.18.13-.09.26-.18.4-.28Zm21.79,13.91c-.34.12-.68.24-1.01.35.39,0,1.02.55,1.02-.35.06-.03.13-.06.19-.09-.03-.04-.07-.07-.1-.11-.03.06-.06.13-.1.19Zm-8.69-39.12c.15.07.3.14.45.21.02-.06.04-.13.06-.19-.16-.03-.31-.05-.47-.08-.37-.33-.75-.64-1.57-.36.66.18,1.09.3,1.52.41Zm26.04-7.65c-.04-.15-.07-.31-.11-.46-.06.03-.12.06-.18.09.09.13.18.26.27.38.04.45-.17.99.51,1.24.07-.56-.12-.95-.5-1.26Zm-27.58,17.6c1.21-.11,2.39.57,3.63.04-1.2-.17-2.41-.34-3.61-.51-.35.09-.69.19-1.04.28,0,.06.02.12.03.19h1Zm59.09,5c-.56-.07-1,.19-1.42.51-1.44,1.1-2.88,2.19-4.32,3.28-.35.26-.68.54-1.02.81,1.37-.12,2.65-.5,3.99-.41.18.01.42-.12.56-.26.63-.64,1.14-1.36,1.48-2.3-.44.05-.76.09-1.17.14.71-.65,1.31-1.2,1.91-1.75.07-.03.13-.07.2-.1-.04-.04-.08-.07-.12-.11-.03.07-.06.13-.09.2Zm-29.66-20.5c-.04-.07-.08-.13-.11-.2l-.11.12c.06.04.13.07.19.11.21.69.35,1.41.66,2.06.68,1.39,1.21,2.86,1.4,4.36.15,1.24.29,2.51.13,3.82-.19,1.51-.51,2.94-1.15,4.31-.19.41-.39.83-.6,1.28.49.18.85.32,1.21.44,1.61.52,2,.36,2.77-1.14.06-.11.05-.25.1-.37.97-2.27,1.03-4.64.46-6.96-.77-3.12-2.61-5.64-4.92-7.83Zm-20.5,21.13c.02.1.07.15.17.17.65.79,1.26,1.62,1.96,2.36.41.43.84.38,1.13,0,.7-.92,1.39-1.86,2.03-2.82.17-.25.24-.67.16-.96-.48-1.84-1.42-3.33-3.08-4.39-1.16-.73-2.38-1.19-3.71-1.26-1.48-.08-2.97,0-4.45-.02-.47,0-.88.08-1.24.48.17.02.3.03.42.06,1.1.25,2.28.23,3.19,1.05h.01c-.51-.01-1.03-.01-1.54-.01v.14c.22.08.45.17.7.26-.1.06-.17.13-.24.13-1.9-.09-3.81-.09-5.7-.3-2.23-.24-2.22-.32-4.16.2,3.34,1.05,5.6,1.36,7.22.99-1.29-.24-2.54-.47-3.8-.7,1.36-.34,2.68-.13,3.98.17.5.12.96.46,1.43.7h.01c-.42-.01-.85-.01-1.27-.01.84.39,1.72.57,2.52.94.81.38,1.54.93,2.32,1.4.11.07.25.08.37.12.06.06.13.12.19.18.46.38.92.76,1.38,1.15Zm31.26-9.56s0,0,0,0c.08-.33.11-.68.25-.97,1.06-2.18,1.55-4.5,1.82-6.89-.06-.17-.09-.48-.17-.49-.36-.05-.32.24-.31.48-.06.26-.13.51-.21.87-.24-.27-.36-.41-.46-.51-.17.48-.35.96-.51,1.44-.23.73-.45,1.46-.67,2.19-.07.24-.1.5-.16.75-.71,2.7-2.29,4.76-4.51,6.42-.57.43-1.04,1.04-1.45,1.64-.36.52-.28.81.22,1.07,1.28.65,2.38,1.53,3.47,2.46.3.26.81.51,1.15.43.61-.15,1.29-.42,1.7-.87,1.19-1.3,2.2-2.74,2.51-4.55.07-.42.44-.81.16-1.2-.41.48-.81.96-1.22,1.44l-.04-.04c-.04-.56.25-.98.53-1.42.35-.54.66-1.11.92-1.69.37-.83.19-1.82-.35-2.31.41-1.05.29-2.03-.35-3.2-.3.89-.47,1.58-.76,2.23-.42.96-.71,2.01-1.56,2.73ZM4.99,82.5c1.07.08,2.12.17,3.21.08,2.25-.18,4.21-.99,5.87-2.46,1.17-1.04,2.24-2.19,3.29-3.34,1.33-1.46,3.22-1.47,4.7-.37,1.62,1.2,3.42,2.03,5.33,2.6,1.81.54,3.69.62,5.53.16,2.48-.62,4.29-2.16,5.69-4.25,1.34-2.01,2.12-4.24,2.61-6.58.37-1.78.86-3.52,1.69-5.14,1.15-2.26,2.93-3.99,4.82-5.62.13-.12.25-.26.51-.53-.37,0-.56-.05-.7,0-.75.33-1.54.6-2.22,1.04-1.28.81-2.52,1.69-3.74,2.58-1.82,1.33-3.25,3.03-4.27,5.02-.83,1.61-1.48,3.3-2.23,4.95-1.23,2.74-3.41,3.64-6.56,3.03-1.18-.23-2.17-.82-3.18-1.41-1.01-.59-2.01-1.2-3.21-1.32-2.61-.27-4.98.37-7.11,1.9-2.01,1.44-3.47,3.41-5.07,5.24-1.46,1.67-2.96,3.32-5.22,3.94-.3,0-.69-.18-.8.43.39.02.72.04,1.05.05Zm71.33-22.05c-.35-.6-.03-.83.39-1.06,1.87-1,3.91-1.42,5.98-1.5,1.28-.05,2.6.15,3.85.48,2.95.78,5.58,2.17,7.39,4.75.56.79.95,1.71,1.45,2.63.42-.34.85-.68,1.29-1.02-.26-.94-.31-1.81-.13-2.74.48-2.51,1.82-4.34,4.02-5.63,2.84-1.66,5.76-1.97,8.82-.69.38.16.75.34,1.12.51.1-.11.18-.16.22-.24,1.83-3.7,2.2-7.44.76-11.4-1.95-5.35-7.55-9.33-13.57-9.04-.56.03-1.11.16-1.66.22-1.7.2-3.28.76-4.74,1.63-1.54.91-2.94,1.99-4.02,3.46-2.7,3.64-3.75,7.56-2.11,11.95.6,1.59,1.6,2.86,3.24,3.53,3,1.24,5.83.82,8.52-.89,1.75-1.11,2.8-2.78,3.13-4.75.4-2.42-1.06-5.15-4.09-6-2.03-.57-3.65.12-4.98,1.66-.73.84-.79,1.85-.42,2.82.37.98,1.11,1.69,2.2,1.84,1.42.19,2.69-.09,3.5-1.45.11-.18.37-.27.6-.43.09.22.17.34.17.45,0,.17-.04.35-.12.5-.61,1.12-2.52,2.15-3.77,1.92-1.56-.29-2.94-.99-3.4-2.65-.44-1.56-.15-3.03,1.13-4.17,1.83-1.64,3.89-2.03,6.13-1.02,3.07,1.38,4.35,4.04,3.82,6.94-.4,2.2-1.75,3.87-3.55,5.13-1.8,1.26-3.86,1.68-6.04,1.61-2.66-.09-4.84-1.12-6.17-3.46-.6-1.06-1.39-1.72-2.44-2.18-.44-.19-.84-.46-1.28-.64-2.5-.98-5.04-1.25-7.6-.29-.76.28-1.46.74-2.18,1.14-.33.18-.6.3-.99-.18.49-.37.89-.75,1.36-1.02,2.71-1.61,5.6-1.67,8.54-.81,1.13.33,2.21.85,3.36,1.3-.09-.86-.24-1.67-.25-2.48,0-.65-.21-1.02-.81-1.3-2.83-1.34-5.79-1.54-8.77-.85-3.74.88-6.59,3.05-8.38,6.47-.69,1.32-1.14,2.77-1.74,4.26-.13-.01-.4.02-.63-.06-.61-.19-1.21-.46-1.82-.64-2.89-.86-5.84-1.28-8.86-1.12-.29.02-.6.07-.87.18-1.74.72-3.32,1.7-4.72,2.95-2.82,2.52-4.48,5.7-5.14,9.4-.42,2.33-1.28,4.49-2.47,6.5-.83,1.4-1.95,2.6-3.29,3.52-2.51,1.71-5.27,2.3-8.26,1.46-.56-.16-1.15-.26-1.72-.38.58.6,1.23,1.03,1.93,1.33,2.19.94,4.48.95,6.76.47,2.72-.57,5.3-1.57,7.62-3.12.68-.45,1.27-.56,2.06-.36,2.54.64,5.07.54,7.53-.41.7-.27,1.36-.67,2.19-1.08-.06.38-.02.67-.14.83-.18.23-.46.39-.72.54-1.45.83-3.04,1.22-4.7,1.3-.49.02-.98,0-1.47,0,.39.25.79.22,1.16.32.95.27,1.86.14,2.82.03.88-.1,1.74-.61,2.64-.29,1.85,5.16,7.88,9.8,15.74,7.28,4.45,5.64,10.35,8.56,17.53,8.06,7.22-.5,12.75-4.13,16.4-10.4.22.01.35-.01.47.03,2.18.68,4.35.91,6.65.55,2.85-.45,5.3-1.63,7.34-3.58,3.82-3.66,5.23-8.25,3.95-13.33-1.35-5.35-4.84-8.9-10.34-10.25-.71-.17-1.39-.38-2.03-.78-1.12-.69-2.38-.99-3.7-1.05-2.04-.1-3.89.54-5.49,1.68-2.33,1.66-3.69,3.88-3.09,6.92.06.29,0,.61,0,.91-.06.06-.11.13-.17.18-1.74,1.23-2.84,2.84-3.27,4.97-.35,1.71-.19,3.36.16,5.02.52,2.47,1.97,4.2,4.24,5.25,3.05,1.41,6.19,1.48,9.4.65,2.24-.57,4.05-1.83,5.38-3.67,1.55-2.15,1.84-4.67,1.58-7.21-.15-1.47-.72-2.85-1.74-3.98-1.59-1.77-3.61-2.44-5.96-2.36-2.16.07-3.83.99-5.15,2.63-.67.83-1.09,1.87-.95,2.9.29,2.11,1.25,3.28,3.43,3.92,1.34.39,3.34-.48,3.93-1.66.37-.74.39-1.52-.03-2.24-.39-.67-1.01-.92-1.79-.76-.19.04-.41-.02-.75-.05.17-.31.24-.61.41-.68.34-.15.77-.32,1.11-.23,2.18.57,2.89,3.35,1.48,4.86-1.66,1.77-4.06,2.34-6.35.8-1.68-1.13-2.49-2.85-2.21-4.84.22-1.52,1.05-2.81,2.31-3.79,2.09-1.63,4.46-2.09,6.96-1.5,2.49.58,4.34,2.07,5.4,4.47,1.17,2.66.96,5.33.15,8-.71,2.31-2.25,4-4.35,5.14-3.47,1.88-7.13,2.24-10.89,1.03-1.21-.39-2.34-1.02-3.56-1.56-.08.14-.21.31-.28.51-.52,1.45-1.4,2.68-2.41,3.83-2.06,2.37-4.67,3.87-7.63,4.77-3.29,1-6.6,1.31-9.94.08-4.1-1.5-6.35-4.78-6.03-9.11.05-.66.33-1.33.62-1.95.52-1.1,1.48-1.79,2.66-2.37-.13-1.09-.16-2.18-.4-3.23-.6-2.58-2.03-4.55-4.46-5.75-1.81-.9-3.71-1.1-5.69-1.06-2.22.05-4.55,1.82-5.12,3.95-.38,1.43-.21,2.67.76,3.75,1.01,1.13,2.39,1.17,3.75.97.59-.09,1.07-.5,1.35-1.12.54-1.18.32-2.49-.73-3.26-.38-.28-.44-.46-.16-.85.62.08,1.08.33,1.45.91.6.93.63,1.96.39,2.9-.19.75-.03,1.32.18,1.97.62,1.9.18,3.63-1.28,4.69-.79.58-1.69,1.04-2.89.73.17-.27.24-.55.41-.63.3-.15.65-.21.99-.28.97-.21,1.73-.76,2.01-1.68.31-1.03.33-2.11-.32-3.1-1.05.68-2.09.75-3.26.6-2.98-.39-4.11-3.28-3.55-5.49.59-2.31,2.05-3.84,4.36-4.57,1.17-.37,2.34-.3,3.5-.25,2.51.1,4.72.98,6.54,2.79.96.96,1.76,2.01,2.23,3.4.59-.18,1.12-.35,1.65-.51,2.74-.84,5.31-.48,7.65,1.2.52.37.96.84,1.46,1.29.48-.58.38-1.19.25-1.78-.26-1.22-1.21-1.75-2.25-2.13-.64-.24-1.33-.34-2-.49-.3-.07-.51-.23-.37-.53.06-.14.34-.3.49-.27,1.19.21,2.38.46,3.42,1.14,1.9,1.24,2.2,3.7.72,5.41-1.02-.84-1.98-1.77-3.08-2.48-1.14-.74-2.48-1.06-3.85-.93-1.32.12-2.65.28-3.83,1.19.16.43.31.81.45,1.19,4.2-1.11,7.7.49,8.76,3.23-.35.32-.62.17-.88-.14-.37-.43-.7-.91-1.13-1.25-1.97-1.57-4.18-1.7-6.51-1.01-.19.41-.5.77-.13,1.24.16-.02.34-.02.5-.07,1.24-.42,2.45-.13,3.52.39,2,.99,2.55,2.66,2.56,4.74,0,.46-.12.95-.31,1.38-.45,1.04-1.21,1.86-2.3,2.19-1.76.54-4.03-.71-4.65-2.48-.12-.35-.26-.76.13-1.17.18.16.41.29.54.49.21.32.35.68.54,1.02.62,1.13,1.59,1.63,2.83,1.38,1.12-.23,1.9-.88,2.26-2.08.2-.69.06-1.26-.02-1.9-.24-1.86-1.53-3.08-3.37-3.14-.52-.02-1.05-.01-1.57.03-1.23.1-2.21.69-2.99,1.63-1.22,1.47-1.35,3.22-.87,4.93.76,2.73,2.63,4.54,5.26,5.55,2.15.83,4.35.92,6.64.58,2.8-.42,5.33-1.4,7.66-2.95,2.23-1.49,3.83-3.49,4.82-5.99.19-.49.25-.87-.15-1.31-1.34-1.47-1.81-3.33-2.02-5.22-.27-2.33,0-4.6,1.28-6.65.27-.44.29-.85.12-1.35-.76-2.37-2.36-4.01-4.44-5.25-2.3-1.38-4.79-1.93-7.46-1.87-1.73.04-3.35.37-4.9,1.11-.42.2-.86.35-1.31.53Zm-12.57-4.37c1.36-4.04,3.7-7.1,7.45-8.87,3.72-1.76,7.57-2.03,11.37-.41.15-.13.26-.17.28-.24,1.02-2.82,1.24-5.66.47-8.6-.71-2.73-1.96-5.15-3.89-7.15-1.47-1.52-3.25-2.71-5.26-3.42-1.9-.67-3.87-1.17-5.92-1.08-.77.03-1.54.16-2.31.24-3.26.33-5.96,1.83-8.33,4-2.3,2.09-3.75,4.71-4.49,7.7-.66,2.65-.59,5.35.29,7.92,1.18,3.43,3.17,6.3,6.32,8.25,1.21.75,2.49,1.31,4.01,1.68Zm-11.37-18.06c-1.95-.92-3.87-1.32-5.83-1.46-1.25-.09-2.51-.07-3.75.23-1.41.34-2.85.57-4.18,1.17-2.42,1.08-4.84,2.18-7.26,3.26-.53.24-1.08.45-1.61.67.53.16,1.02.18,1.46.05,2.41-.7,4.83-1.4,7.22-2.17,2.84-.91,5.69-1.29,8.6-.36,1.3.42,2.6.81,3.91,1.19.31.09.64.1,1.06.16.14-.96.25-1.81.39-2.75Zm30.23-4.12c1.1.19,2.01-.31,2.82-.81,2.71-1.69,4.67-4.03,5.73-7.07.67-1.93,1.33-3.86,1.97-5.8.07-.22.05-.47.07-.72-.53-.04-.63.28-.8.59-.56,1.07-1.15,2.11-1.74,3.16-.88,1.54-1.87,3.05-3.23,4.18-1.48,1.23-3.1,2.3-4.95,2.95-.56.2-1.07.52-1.71.85.64.93,1.24,1.81,1.84,2.67Zm12.21-16.18c-.05-.01-.11-.02-.16-.03-.48,1.44-.98,2.86-1.42,4.31-.71,2.33-1.4,4.66-2.66,6.76-.92,1.53-2.02,2.93-3.55,3.91-1.23.78-2.49,1.5-3.83,2.31.17.47.34.99.57,1.49.32.68.42.75,1.08.47.82-.35,1.63-.75,2.41-1.19,2.14-1.18,3.74-2.92,4.86-5.07,1.13-2.19,1.6-4.58,1.93-7,.14-1.02.33-2.03.47-3.04.13-.97.21-1.94.31-2.91Zm-50.35-1.94l-.07.2c.1.08.19.2.3.24,1.08.39,2.17.77,3.25,1.16,2.09.74,4.27,1.25,6.21,2.37,1.73,1,3.34,2.17,4.37,3.93.69,1.17,1.24,2.42,1.87,3.67.8.02,1.56-.23,2.1-.94.15-.2.25-.6.16-.81-.34-.78-.69-1.6-1.2-2.27-.99-1.31-2.09-2.53-3.44-3.52-2.38-1.73-4.99-2.77-7.93-3-.89-.07-1.77-.27-2.65-.43-.99-.19-1.98-.4-2.98-.61Zm-2.71,43.54c.92-.63,1.66-1.11,2.38-1.63.2-.15.36-.38.5-.59.36-.58.69-1.19,1.04-1.78,1.51-2.56,3.58-4.5,6.3-5.72.39-.17.81-.27,1.19-.47.49-.26.54-.62.22-1.07-.28-.4-.56-.81-.84-1.21-6.27,1.69-9.52,6.06-10.79,12.48Zm3.88-2.77c.06.07.11.14.17.21,1.14-.42,2.28-.84,3.42-1.26.12-.04.25-.08.35-.16,1.21-.99,2.65-1.58,4.04-2.24.62-.3,1.01-.71,1.28-1.34.44-1.05.03-1.79-1.07-1.85-.67-.04-1.29.06-1.86.41-.8.5-1.68.89-2.4,1.48-1.62,1.31-2.9,2.93-3.92,4.74Zm23.59-31.23c.23.11.35.16.46.21,1.07.44,1.3.37,1.9-.55,1.08-1.66,1.31-3.59,1.64-5.47.08-.44-.21-.92-.19-1.38.09-1.73-.53-3.3-1.1-4.86-.31-.83-.47-1.78-1.27-2.41.75,2.4,1.28,4.85,1,7.35-.28,2.48-.98,4.86-2.43,7.1Zm15.56,18.11c1.67-3.11,3.72-5.47,6.76-7.14-1.5.03-2.8-.21-4.06.25-.96.35-1.9.74-2.84,1.15-.16.07-.35.33-.35.5,0,1.13-.26,2.34.77,3.23-.62.48-.61,1.04-.29,2.01Zm-31.75,11.47c.03.1.05.2.08.3,1.13,0,2.26-.02,3.38,0,1.12.02,2.19.56,3.48.43-.45-.93-1.32-1.17-1.89-1.73-.6-.59-1.29-1.09-1.98-1.67-.23.52-.18,1.11-.85,1.12-1.09.03-1.62.84-2.22,1.54Zm31.6-10.88c-.11-.02-.22-.05-.33-.07-.27.96-.75,1.86-.76,2.89,0,.07.18.14.33.25.26-1.07.51-2.07.75-3.07ZM41.55,14.74q-.49-.85-.86-.42c.25.12.49.24.86.42Zm41.76-1.18l.13.04v-1.41s-.09,0-.13,0v1.36Zm-14.05-7.17s-.09,0-.13,0v.69s.09,0,.13,0v-.69ZM25.83,79.44s-.05.06-.04.07c.02.03.05.05.08.08l.05-.14s-.06,0-.09,0Zm22.65-22.45s.06-.05.09-.08c-.06-.03-.11-.06-.17-.07-.02,0-.06.05-.08.07.06.03.11.06.16.08Zm-8.15-43.09s.06-.06.09-.09c-.03-.03-.06-.06-.09-.09-.03.04-.06.09-.09.13.03.01.06.03.09.04Zm-.79,34.16s.06-.05.09-.08c-.03-.03-.05-.06-.08-.08-.03.04-.06.08-.09.12.03.01.05.03.08.04Zm2.44-33.22s-.06-.08-.09-.08c-.03,0-.06.05-.09.08.05.03.09.06.14.09.02-.03.03-.06.04-.08Z"/><path class="cls-10" d="m76.32,60.46c.45-.18.89-.33,1.31-.53,1.55-.74,3.17-1.08,4.9-1.11,2.67-.05,5.16.5,7.46,1.87,2.08,1.24,3.68,2.88,4.44,5.25.16.5.15.92-.12,1.35-1.28,2.05-1.55,4.33-1.28,6.65.22,1.89.68,3.75,2.02,5.22.4.44.35.82.15,1.31-.99,2.5-2.59,4.5-4.82,5.99-2.33,1.55-4.87,2.53-7.66,2.95-2.29.35-4.49.25-6.64-.58-2.63-1.01-4.5-2.82-5.26-5.55-.48-1.72-.36-3.46.87-4.93.78-.93,1.76-1.53,2.99-1.63.52-.04,1.05-.05,1.57-.03,1.84.06,3.13,1.27,3.37,3.14.08.63.23,1.21.02,1.9-.36,1.2-1.14,1.85-2.26,2.08-1.24.25-2.21-.26-2.83-1.38-.19-.34-.32-.7-.54-1.02-.13-.19-.35-.32-.54-.49-.4.42-.26.82-.13,1.17.62,1.77,2.89,3.02,4.65,2.48,1.08-.33,1.85-1.15,2.3-2.19.18-.43.31-.92.31-1.38,0-2.08-.56-3.75-2.56-4.74-1.07-.53-2.29-.81-3.52-.39-.16.05-.34.05-.5.07-.36-.48-.06-.83.13-1.24,2.33-.68,4.54-.55,6.51,1.01.43.34.76.82,1.13,1.25.26.3.53.46.88.14-1.06-2.74-4.57-4.33-8.76-3.23-.14-.38-.29-.76-.45-1.19,1.17-.91,2.51-1.07,3.83-1.19,1.37-.13,2.71.19,3.85.93,1.1.71,2.06,1.65,3.08,2.48,1.49-1.71,1.19-4.16-.72-5.41-1.03-.67-2.22-.93-3.42-1.14-.15-.03-.43.13-.49.27-.13.3.07.46.37.53.67.15,1.36.26,2,.49,1.04.38,1.99.92,2.25,2.13.13.59.23,1.2-.25,1.78-.5-.45-.94-.92-1.46-1.29-2.34-1.68-4.91-2.03-7.65-1.2-.53.16-1.06.33-1.65.51-.47-1.39-1.27-2.44-2.23-3.4-1.82-1.81-4.02-2.68-6.54-2.79-1.16-.05-2.33-.12-3.5.25-2.31.74-3.77,2.27-4.36,4.57-.57,2.21.57,5.1,3.55,5.49,1.17.15,2.21.08,3.26-.6.65.99.63,2.08.32,3.1-.28.92-1.04,1.47-2.01,1.68-.34.07-.69.13-.99.28-.17.09-.24.36-.41.63,1.2.31,2.09-.15,2.89-.73,1.46-1.06,1.9-2.78,1.28-4.69-.21-.65-.37-1.22-.18-1.97.24-.94.2-1.97-.39-2.9-.37-.58-.83-.83-1.45-.91-.28.38-.22.56.16.85,1.05.77,1.27,2.08.73,3.26-.28.61-.76,1.03-1.35,1.12-1.36.2-2.74.16-3.75-.97-.97-1.08-1.14-2.33-.76-3.75.57-2.14,2.9-3.9,5.12-3.95,1.98-.05,3.88.16,5.69,1.06,2.43,1.21,3.86,3.17,4.46,5.75.24,1.05.27,2.14.4,3.23-1.18.58-2.13,1.26-2.66,2.37-.29.61-.57,1.28-.62,1.95-.32,4.33,1.93,7.6,6.03,9.11,3.34,1.23,6.65.92,9.94-.08,2.96-.9,5.57-2.4,7.63-4.77,1.01-1.15,1.89-2.37,2.41-3.83.07-.2.2-.37.28-.51,1.22.54,2.35,1.17,3.56,1.56,3.76,1.22,7.42.85,10.89-1.03,2.1-1.14,3.64-2.82,4.35-5.14.82-2.67,1.03-5.35-.15-8-1.06-2.4-2.91-3.89-5.4-4.47-2.5-.58-4.87-.13-6.96,1.5-1.27.99-2.1,2.27-2.31,3.79-.28,1.99.52,3.71,2.21,4.84,2.29,1.54,4.69.97,6.35-.8,1.42-1.51.71-4.29-1.48-4.86-.33-.09-.76.08-1.11.23-.17.07-.23.38-.41.68.35.03.56.09.75.05.78-.17,1.41.09,1.79.76.42.72.39,1.5.03,2.24-.59,1.19-2.59,2.05-3.93,1.66-2.18-.63-3.14-1.8-3.43-3.92-.14-1.03.28-2.06.95-2.9,1.32-1.64,2.99-2.56,5.15-2.63,2.35-.07,4.37.59,5.96,2.36,1.01,1.13,1.59,2.52,1.74,3.98.25,2.55-.03,5.07-1.58,7.21-1.33,1.85-3.15,3.1-5.38,3.67-3.2.82-6.35.76-9.4-.65-2.27-1.05-3.72-2.78-4.24-5.25-.35-1.66-.51-3.31-.16-5.02.43-2.13,1.53-3.74,3.27-4.97.07-.05.12-.12.17-.18,0-.31.05-.62,0-.91-.6-3.04.76-5.26,3.09-6.92,1.6-1.14,3.45-1.79,5.49-1.68,1.33.07,2.58.36,3.7,1.05.64.39,1.32.6,2.03.78,5.5,1.35,8.99,4.9,10.34,10.25,1.28,5.07-.13,9.66-3.95,13.33-2.03,1.95-4.49,3.13-7.34,3.58-2.3.36-4.48.13-6.65-.55-.12-.04-.26-.02-.47-.03-3.66,6.26-9.19,9.9-16.4,10.4-7.18.5-13.08-2.42-17.53-8.06-7.85,2.52-13.89-2.12-15.74-7.28-.9-.32-1.76.19-2.64.29-.96.11-1.87.24-2.82-.03-.36-.1-.77-.07-1.16-.32.49,0,.98.02,1.47,0,1.66-.07,3.25-.46,4.7-1.3.26-.15.54-.31.72-.54.12-.16.08-.44.14-.83-.83.42-1.49.81-2.19,1.08-2.46.95-4.99,1.05-7.53.41-.79-.2-1.38-.09-2.06.36-2.32,1.55-4.9,2.56-7.62,3.12-2.27.47-4.57.46-6.76-.47-.7-.3-1.35-.73-1.93-1.33.57.13,1.16.22,1.72.38,2.99.84,5.75.26,8.26-1.46,1.34-.91,2.46-2.12,3.29-3.52,1.19-2.02,2.05-4.17,2.47-6.5.66-3.7,2.32-6.88,5.14-9.4,1.4-1.25,2.98-2.24,4.72-2.95.27-.11.58-.17.87-.18,3.02-.16,5.97.26,8.86,1.12.62.18,1.21.45,1.82.64.23.07.5.05.63.06.6-1.49,1.05-2.94,1.74-4.26,1.79-3.42,4.64-5.6,8.38-6.47,2.98-.7,5.94-.49,8.77.85.6.28.81.65.81,1.3,0,.81.16,1.62.25,2.48-1.16-.45-2.23-.97-3.36-1.3-2.94-.86-5.83-.81-8.54.81-.47.28-.87.65-1.36,1.02.39.47.67.36.99.18.71-.4,1.42-.86,2.18-1.14,2.56-.95,5.1-.69,7.6.29.44.17.84.45,1.28.64,1.05.46,1.84,1.11,2.44,2.18,1.33,2.34,3.51,3.37,6.17,3.46,2.18.07,4.24-.35,6.04-1.61,1.8-1.26,3.15-2.92,3.55-5.13.53-2.91-.75-5.56-3.82-6.94-2.25-1.01-4.31-.62-6.13,1.02-1.27,1.15-1.56,2.61-1.13,4.17.46,1.66,1.84,2.36,3.4,2.65,1.24.23,3.15-.8,3.77-1.92.08-.15.11-.33.12-.5,0-.12-.08-.23-.17-.45-.23.16-.49.25-.6.43-.81,1.36-2.08,1.64-3.5,1.45-1.08-.15-1.82-.86-2.2-1.84-.37-.97-.31-1.98.42-2.82,1.33-1.54,2.95-2.23,4.98-1.66,3.04.85,4.5,3.58,4.09,6-.33,1.97-1.38,3.64-3.13,4.75-2.69,1.71-5.52,2.12-8.52.89-1.63-.67-2.64-1.94-3.24-3.53-1.64-4.39-.6-8.31,2.11-11.95,1.09-1.47,2.48-2.55,4.02-3.46,1.46-.87,3.04-1.43,4.74-1.63.56-.06,1.11-.2,1.66-.22,6.02-.29,11.62,3.69,13.57,9.04,1.45,3.96,1.08,7.71-.76,11.4-.04.07-.12.13-.22.24-.37-.17-.74-.35-1.12-.51-3.06-1.28-5.98-.97-8.82.69-2.19,1.28-3.54,3.12-4.02,5.63-.18.93-.13,1.8.13,2.74-.43.35-.86.69-1.29,1.02-.5-.92-.9-1.83-1.45-2.63-1.81-2.58-4.43-3.97-7.39-4.75-1.24-.33-2.57-.54-3.85-.48-2.07.08-4.11.5-5.98,1.5-.43.23-.74.46-.39,1.06Zm31.36-19.97c-.03-.06-.06-.13-.09-.19-.03.04-.06.07-.08.11.07.02.13.04.2.07.02.07.04.15.06.22.04-.03.08-.06.12-.09-.07-.04-.13-.07-.2-.11Zm-17.07,1.31c-.08.09-.17.18-.25.27-.05.06-.09.13-.14.19.04-.07.08-.14.12-.21.09-.09.18-.17.27-.26.1-.08.19-.16.29-.23.09-.01.19,0,.25-.05,1.69-1.29,3.58-2.15,5.7-2.48-1.75-.34-3.34-.01-4.71,1.12-.48.39-1.21.56-1.31,1.34-.07.1-.15.21-.22.31Zm-1.58,12.09c-.04-.07-.07-.13-.11-.2-.03.04-.06.08-.09.11.07.02.15.04.22.06.06.05.13.09.19.14-.07-.04-.14-.08-.21-.12Zm11.02,7.59c-.06.04-.13.08-.19.12.04.04.08.08.12.12.04-.07.08-.13.11-.2.09-.08.19-.16.28-.24.25-.16.54-.29.75-.5.98-1.01,2.14-1.56,3.73-1.39-1.79-.97-3.99-.04-4.58,1.79-.07.1-.15.2-.22.31Zm-10.17,1.07c-.1-.05-.2-.09-.3-.14.08.07.16.13.25.2.08.08.16.15.24.23.07.05.15.1.22.16-.05-.07-.11-.14-.16-.21-.08-.08-.16-.16-.24-.24Zm27,.27c-.02-.07-.05-.15-.07-.22-.04.04-.09.07-.13.11.07.03.14.07.22.1.09.09.17.18.26.26.08.09.17.18.25.27.08.1.16.19.24.29.45.91.97,1.8,1.35,2.75.93,2.31.89,4.77.98,7.21-.41.49-.17,1.02.01,1.56.09-.52.18-1.05.27-1.57.02-1.34.07-2.68.06-4.02-.01-2.08-.8-3.91-1.98-5.58-.13-.19-.41-.27-.62-.4-.1-.08-.2-.15-.3-.23-.09-.08-.18-.17-.27-.25-.09-.09-.18-.17-.26-.26Zm-49.65,8.67c-.03-.07-.05-.13-.08-.2-.04.03-.07.07-.11.1.07.03.14.06.2.09.08.1.15.2.23.29.5,1.27,1.26,2.45,1.37,3.87.03.34.21.67.32,1.01.27-1.44.13-2.79-.6-4.04-.24-.42-.47-.84-1.02-.91-.1-.07-.21-.14-.31-.21Zm-23.12,4.21c-.07-.04-.13-.08-.2-.11.07.03.14.06.21.1.09.09.17.18.26.27.23.24.42.58.7.71,1.33.59,2.73.82,4.16.5.8-.18,1.68-.26,2.48-.95-1.05.14-1.94.28-2.83.37-.55.05-1.11.09-1.65,0-.97-.16-1.91-.41-2.87-.62-.09-.09-.18-.17-.27-.26Zm42.27,4.7c-.1.09-.2.18-.3.28-.08.08-.16.16-.24.24-.16.1-.32.2-.48.3-.06.03-.13.06-.19.09.03.03.07.06.1.1l.08-.19c.19-.08.37-.15.56-.23.08-.08.16-.15.24-.23.1-.1.19-.2.29-.29.1-.08.2-.15.3-.23.12-.04.27-.05.36-.13,1.81-1.5,2.99-4.49,2.29-6.9-.2,2.23-.8,3.92-1.62,5.23-.36.58-.76,1.13-1.15,1.7-.08.09-.16.19-.24.28Zm27.61.56c-.06.02-.13.05-.19.07.03.03.06.07.09.1.03-.06.06-.13.09-.19.09-.08.19-.16.28-.25.13-.02.29,0,.37-.08,1.13-.93,1.99-2.06,2.49-3.44.36-.97.36-1.36.11-2.41-.75,2.6-1.14,3.36-2.67,5.24-.15.19-.22.44-.33.67-.08.09-.16.19-.25.28Zm-56.49.52c-.03-.07-.06-.14-.1-.21-.03.04-.07.08-.1.12.07.02.14.05.21.07.08.1.15.2.23.3.08.1.16.2.23.29.09.19.14.41.27.56,1.21,1.32,2.74,1.99,4.49,2.23h1.52s.02-.09.02-.13c-.43-.1-.86-.21-1.29-.31-.25-.05-.51-.08-.76-.16-1.55-.46-2.87-1.35-4.17-2.28-.09-.08-.19-.17-.28-.25-.09-.08-.19-.16-.28-.24Zm54.64-22.07c-.08-.09-.16-.19-.24-.28-.45-.75-1.29-.84-2-.98-.6-.12-1.15-.29-1.69-.57-1.33-.69-2.77-.68-4.18-.47-.66.1-1.46.26-1.88.97-.08.09-.16.19-.25.28-.17.09-.34.18-.52.27-.04.07-.08.14-.12.21.03-.07.07-.15.1-.22.18-.08.36-.17.53-.25.1-.08.19-.16.29-.24.21-.02.45,0,.64-.08,1.77-.79,3.54-.56,5.24.14,1.24.51,2.55.63,3.81.98.09.08.19.16.28.24.18.09.35.17.53.26l.2.14c-.07-.04-.14-.08-.22-.12l-.52-.26Zm-21.79,22.07c-.09.17-.18.34-.28.51-.1.07-.2.15-.3.22-.25.16-.53.28-.74.48-2.59,2.43-5.7,3.44-9.2,3.46-.48-.42-1-.17-1.53,0,.52.09,1.04.19,1.56.28,3.09.3,5.92-.37,8.37-2.34.63-.51,1.34-.96,1.62-1.8.08-.1.16-.19.24-.29.08-.18.17-.36.25-.54.07-.02.14-.05.21-.07-.03-.04-.07-.09-.1-.13-.03.07-.06.14-.1.21Zm-8.93-32.33c.13.08.26.15.38.23.02-.06.04-.12.06-.19-.15-.01-.3-.03-.45-.04-.35-.17-.7-.34-1.05-.51-1.61-.51-3.28-.41-4.89-.19-.95.13-2.04.34-2.75,1.21-.07.04-.14.08-.21.12.05.04.09.09.14.13.04-.07.09-.13.13-.2.26-.02.55.02.78-.07,2.2-.93,4.5-.82,6.8-.67.35.06.71.12,1.06.18Zm-34.39,12.64c.49-.03.7-.34.8-.78.16-.07.35-.1.46-.21,1.57-1.51,3.49-2.38,5.57-2.88.91-.22,1.86-.32,2.84-.48-2.23-.53-4.93.28-6.66,1.26-.92.53-1.88,1.11-2.32,2.19-.45.1-.72.37-.74.85-.06.04-.13.09-.19.13.04.04.08.08.13.12.04-.07.08-.14.11-.21Zm44.9-7.39c.03.07.05.13.08.2.04-.03.08-.07.12-.1-.07-.03-.14-.06-.21-.09-.96-.87-1.93-1.75-2.89-2.62-.06-.04-.13-.08-.19-.13.07.04.14.07.21.11-.1.78.33,1.32.86,1.76.58.48,1.15,1.05,2.03.87Zm10.76,21.55c-.03-.07-.06-.13-.09-.2-.04.03-.07.07-.11.1.07.03.13.06.2.09.58.81,1.4,1.08,2.35,1.06.86-.02,1.76.2,2.53-.41-1.19-.13-2.35-.24-3.5-.38-.46-.06-.92-.17-1.38-.26Zm-33.09-10.25c.02.07.05.13.07.2.04-.03.08-.07.12-.1-.07-.03-.13-.07-.2-.1-1.57-1.76-3.61-1.66-5.68-1.47,1.81.35,3.62.67,5.3,1.47.1.05.26,0,.39,0Zm13.12-12.08c.03.07.07.14.1.2.04-.04.08-.08.12-.12-.07-.03-.14-.07-.22-.1-.27-.61-.87-.77-1.4-1.05-1.54-.81-3.2-.9-4.9-.76-.34.1-.68.21-1.02.31,0,.05.02.09.03.14h1.01c1.67-.09,3.25.36,4.81.88.48.16.97.33,1.45.49Zm13.93,30.47c-.26.27-.52.55-.79.82-.71.7-1.36,1.48-2.15,2.07-1.12.84-2.34,1.55-3.5,2.3.07.01.2.05.32.04.17-.01.34-.06.5-.11,1.98-.61,3.52-1.87,4.79-3.44.39-.47.94-.94.81-1.7.09-.12.17-.25.26-.37l-.18-.08c-.03.15-.05.31-.08.46Zm-6.09-6.13c-.07.05-.15.1-.2.17-1.45,2.24-3.18,4.19-5.61,5.41-.1.05-.17.19-.25.28-.14.04-.28.08-.42.13.02.06.05.12.07.18.14-.08.28-.15.42-.23,3.05-.88,5.04-2.87,6.13-5.82.45-.33.55-.75.29-1.47-.18.58-.3.97-.42,1.36Zm17.67-36.73c-.04-.07-.08-.14-.12-.2-.04.04-.08.08-.13.12.06.05.13.09.19.14.11.28.18.58.33.83,1.53,2.38,2.23,5,2.35,7.79v1.27c.05,0,.11.02.16.02.09-.44.18-.88.27-1.32-.06-.73-.15-1.45-.17-2.18-.05-1.63-.52-3.14-1.35-4.52-.43-.71-.68-1.58-1.54-1.96Zm-28.4,19.49c.44,0,.88,0,1.31-.01,2.73-.13,5.34.27,7.8,1.52.09.04.23-.03.35-.05-.03-.11-.03-.23-.08-.26-1.54-1.03-3.24-1.61-5.08-1.72-1.43-.09-2.87-.09-4.28.27-.43.11-.86.22-1.28.33.43,0,.9.49,1.26-.07Zm16.5,12.33c-.12,3.95,4.04,6.85,7.21,6.71-.43-.16-.75-.29-1.07-.4-3.1-1.03-5.19-3-5.85-6.3.06-.54.05-1.07-.57-1.59.17.63-.15,1.14.27,1.57Zm-41.47-1.07c.18-4.08,2.71-6.2,6.44-7.51-.34-.05-.47-.1-.59-.07-.34.07-.68.14-1,.26-2.35.86-4.24,2.23-4.93,4.76-.22.82-.12,1.72-.17,2.59.02.33.04.65.06.98.06,0,.12,0,.19,0v-1Zm35.97-32.33c-.75.57-1.61,1.04-2.24,1.72-2.34,2.56-3.3,5.56-2.53,9.02.07-.38.07-.76.07-1.14,0-1.71.39-3.33,1.17-4.85.78-1.5,1.72-2.89,3.1-3.92.23-.17.35-.47.53-.71.29-.08.67-.03.74-.56-.44-.05-.66.15-.84.45Zm3.26,49.4c-2.64,1.45-5.39,2.45-8.39,2.79-2.01.23-3.96-.02-5.93-.27-.83-.11-1.63-.57-2.54-.32-.03.36-.09.64.35.73,1.22.24,2.43.63,3.66.73,2.47.19,4.94.15,7.37-.47,1.97-.5,3.84-1.25,5.61-2.25.14-.08.23-.24.37-.4-.18-.19-.32-.34-.5-.53Zm-36.75-29.16c-.14-.35-.17-.63-.3-.7-.3-.15-.65-.25-.99-.28-2.67-.23-5.07.39-7.06,2.28-1.45,1.37-2.39,3.05-3.03,4.92-.2.59-.37,1.2-.55,1.81.5.24.81.18.98-.21.15-.35.23-.74.35-1.1.64-1.92,1.53-3.69,3.13-4.99,1.7-1.39,3.58-2.19,5.85-1.75.45.09.94.01,1.63.01Zm50.87-14.08c-.04-.17-.07-.38-.15-.57-1.37-3.11-3.72-5.18-6.8-6.48-.25-.11-.56-.06-.82-.08-.27.68.11.83.55,1,2.75,1.06,4.77,2.95,6.1,5.57.1.19.17.4.3.57.23.28.51.31.83-.01Zm9.72,31.15c1.7-2.77,1.7-8.47-.1-9.99,1.06,3.41.66,6.7.1,9.99Zm-48.3-22.92c-.07-.08-.14-.15-.21-.23-.24.12-.56.18-.71.37-.97,1.22-1.79,2.54-2.42,3.96-.08.18.05.46.08.69.23-.08.47-.13.67-.25.09-.05.11-.22.18-.33.75-1.21,1.51-2.41,2.24-3.62.1-.17.11-.39.16-.59Zm.41,19.45c-.05-1.47-.62-2.71-1.58-3.82-1.28-1.49-2.95-1.96-4.85-1.95,1.39.52,2.83.92,3.98,1.92,1.2,1.04,1.81,2.45,2.45,3.86Zm38.59-20.99c.08-.35.23-.71.25-1.09.05-.91.1-1.83.05-2.73-.03-.5-.37-.76-.99-.41,0,1.26,0,2.51,0,3.77,0,.47.19.63.69.46Zm-3.11,25.67c-2.58-.43-4.97-1.14-6.73-3.37.06,2.1,4.19,4.14,6.73,3.37Zm-16.97-24.46c-.4-1.2-.88-2.2-1.04-3.25-.17-1.1-.04-2.24-.04-3.36-.85,1.27-.63,2.68-.48,4.01.11.93.58,1.86,1.56,2.61Zm-2.48,8.48c-2.23-1.08-4.46-.8-6.68.04,2.23-.13,4.46-.45,6.68-.04Zm-13.28-7.26c1.8-.34,3.33-.62,4.96-.93-1.82-.68-3.32-.25-4.96.93Zm15.33,10.44c-.32-1.75-1.8-2.57-3.83-2.13,1.57.31,2.84.96,3.83,2.13Zm-39.56,9.98c-1.35-.3-2.74-.61-4.19-.94,1.33,1.39,2.8,1.67,4.19.94Zm47.03,12.8c.52.09.81.22.91.14.59-.48,1.15-1.01,1.68-1.55.06-.06-.04-.4-.13-.43-.17-.06-.46-.07-.58.03-.58.51-1.11,1.06-1.89,1.81Zm8.89-21.01c-1.49.61-1.97,1.83-1.15,3.03-.06-1.2.58-2.09,1.15-3.03Zm-41.62,15.31c1.16,1.13,1.94,1.26,3.57.68-1.18-.22-2.28-.43-3.57-.68Zm41.74-12.23c-.33.89.22,1.31.78,1.65.38.23.84.27,1.29-.12q-1.43-.66-2.07-1.53Zm-16.95-23.67c-.04-.06-.07-.13-.11-.19-.03.03-.08.07-.07.1,0,.08.04.16.06.24.04-.05.08-.1.12-.15Zm-9.22,7.81c0-.06,0-.11,0-.17-.13.01-.26.02-.39.04,0,0,0,.07,0,.07.13.02.26.04.39.06Zm8.15,7.96c-.05.05-.1.09-.14.13.07.03.15.07.22.07.04,0,.09-.08.13-.12-.07-.03-.15-.05-.2-.07Zm11.93,12.33c.09-.11.18-.17.17-.21-.02-.07-.09-.13-.14-.19,0,.11-.01.22-.02.4Zm19.26,3.03c.02-.07.06-.15.07-.22,0-.03-.04-.07-.06-.1-.04.05-.11.09-.11.14,0,.06.06.12.09.19Zm-34.31,6.44c-.05.05-.1.09-.15.14.07.03.15.08.22.07.05,0,.09-.09.14-.13-.07-.03-.15-.06-.21-.08Zm36.14-8.65s-.07.06-.07.08c0,.03.04.06.06.09.03-.03.07-.05.07-.08,0-.03-.04-.06-.07-.09Zm-1.78-8.88s-.06-.05-.07-.04c-.03.02-.06.06-.08.09.05.02.1.03.16.05v-.1Zm-.33-.4l.05-.09h-.08s.04.09.04.09Zm-26.7-2.97s-.06-.09-.09-.09c-.03,0-.06.05-.1.08.03.03.06.09.09.09.03,0,.06-.05.1-.08Zm-44.14-.83s-.05-.06-.08-.09c-.03.03-.05.06-.08.09.04.03.08.06.12.09.01-.03.03-.06.04-.09Zm25.48-12.35s-.06-.04-.09-.04c-.04,0-.06.05-.1.07.06.02.12.03.18.05v-.08Zm19.83-11.07s-.05.06-.04.08c.02.04.06.06.09.09.02-.06.04-.11.05-.17h-.1Z"/><path class="cls-10" d="m4.74,82.02c2.26-.62,3.75-2.26,5.22-3.94,1.6-1.83,3.06-3.8,5.07-5.24,2.14-1.54,4.5-2.17,7.11-1.9,1.19.12,2.2.73,3.21,1.32,1.01.59,2,1.18,3.18,1.41,3.14.61,5.33-.29,6.56-3.03.74-1.65,1.4-3.35,2.23-4.95,1.02-1.99,2.45-3.69,4.27-5.02,1.22-.89,2.46-1.77,3.74-2.58.69-.43,1.47-.71,2.22-1.04.14-.06.32,0,.7,0-.26.27-.37.42-.51.53-1.89,1.63-3.67,3.36-4.82,5.62-.83,1.62-1.31,3.36-1.69,5.14-.49,2.34-1.27,4.57-2.61,6.58-1.4,2.09-3.21,3.63-5.69,4.25-1.85.46-3.72.38-5.53-.16-1.91-.57-3.71-1.4-5.33-2.6-1.48-1.1-3.37-1.09-4.7.37-1.05,1.16-2.12,2.31-3.29,3.34-1.66,1.47-3.62,2.28-5.87,2.46-1.09.09-2.14,0-3.21-.08-.08-.16-.17-.32-.25-.49Zm10.2-6.09c-.08.14-.16.28-.24.42.06.02.12.05.18.07.03-.15.07-.3.1-.46.08-.08.17-.15.25-.23.54-.42,1.07-.85,1.62-1.26,1.36-1.03,2.96-1.48,4.7-1.8-2.35-.74-5.61,1.15-6.39,2.99-.07.08-.15.17-.22.25Zm21.3-1.28c-.18.08-.36.17-.54.25-.12.03-.27.02-.36.09-.08.06-.09.2-.14.31.15-.01.32.02.43-.05.07-.04.05-.23.07-.35.17-.09.34-.18.52-.27.06-.03.13-.06.19-.1-.04-.03-.07-.06-.11-.08l-.06.2Zm.5-4.23c-.12.11-.3.2-.37.33-.92,1.96-2.38,3.37-4.32,4.36.35.03.71.05.98-.09.68-.36,1.43-.7,1.96-1.24.89-.92,1.82-1.89,1.79-3.33.07-.15.15-.29.22-.44l-.19-.06c-.02.16-.04.31-.06.47Zm-10.75,5c-.03-.07-.07-.14-.1-.2-.04.04-.08.08-.13.12l.22.1c.03.08.05.18.1.22,1.9,1.26,3.97,1.88,6.23,1.29.94-.24,2-.44,2.8-1.56-.58.16-.96.19-1.28.35-2.35,1.16-4.67.88-6.99-.1-.27-.11-.57-.15-.86-.22Zm5.06-.2s0,.09,0,.13h.66s0-.09,0-.13h-.66Zm-5.73-.3c0,.09.01.14.01.2.03-.03.07-.05.1-.08-.03-.03-.06-.06-.11-.12Zm11.91-5.42c-.07,0-.11,0-.15.01.02.03.04.06.06.09.02-.03.05-.05.09-.1Z"/><path class="cls-6" d="m43.06,43.1c-.42,1.09-1.35,1.77-2.37,1.76.07-.63.61-.87,1-1.23.17-.16.32-.33.48-.49.3,0,.6-.02.9-.02h0Z"/><path class="cls-4" d="m84.63,44.02c-.25,1-.49,2-.75,3.07-.15-.11-.33-.18-.33-.25,0-1.03.49-1.93.76-2.89.11.02.22.05.33.07Z"/><path class="cls-2" d="m49.37,29.79c-.09-.29-.18-.58-.27-.87,0,0,.01-.01.01-.01.6.07,1.08.31,1.44.98-.43.03-.71.06-.99.08-.06-.06-.13-.12-.19-.18Z"/><path class="cls-2" d="m52,31.28c-.29,0-.59,0-.88,0-.1-.01-.15-.07-.17-.17-.08-.35-.15-.7-.3-1.38.58.67.97,1.11,1.35,1.55,0,0,0,0,0,0Z"/><path class="cls-14" d="m42.04,25.02c0,.16-.01.31-.02.47h-1c0-.06-.02-.12-.03-.19.35-.09.69-.19,1.04-.28Z"/><path class="cls-13" d="m84.28,13.7c-.16,0-.32,0-.49-.01,0-.24-.05-.53.31-.48.08.01.12.32.17.49Z"/><path class="cls-10" d="m25.83,79.44s.06,0,.09,0l-.05.14s-.06-.05-.08-.08c0-.01.03-.05.04-.07Z"/><path class="cls-10" d="m48.49,56.99c-.05-.03-.11-.05-.16-.08.03-.03.06-.07.08-.07.06.01.11.05.17.07-.03.03-.06.05-.09.08Z"/><path class="cls-7" d="m94.1,89.05c.18.19.32.34.5.53-.15.16-.23.33-.37.4-1.77,1-3.64,1.75-5.61,2.25-2.43.62-4.9.65-7.37.47-1.23-.09-2.44-.49-3.66-.73-.44-.09-.38-.37-.35-.73.92-.25,1.71.21,2.54.32,1.97.26,3.92.51,5.93.27,3-.35,5.76-1.34,8.39-2.79Z"/><path class="cls-7" d="m57.35,59.89c-.69,0-1.17.08-1.63-.01-2.26-.44-4.15.36-5.85,1.75-1.6,1.3-2.49,3.08-3.13,4.99-.12.37-.2.75-.35,1.1-.17.39-.48.45-.98.21.19-.61.35-1.22.55-1.81.64-1.87,1.58-3.55,3.03-4.92,1.99-1.89,4.39-2.51,7.06-2.28.34.03.69.13.99.28.13.07.16.35.3.7Z"/><path class="cls-18" d="m108.22,45.81c-.32.32-.6.3-.83.01-.13-.16-.21-.38-.3-.57-1.33-2.63-3.34-4.51-6.1-5.57-.45-.17-.82-.33-.55-1,.26.02.58-.03.82.08,3.08,1.3,5.44,3.38,6.8,6.48.08.19.11.4.15.57Z"/><path class="cls-12" d="m90.94,39.77c-.17.24-.3.54-.53.71-1.38,1.04-2.32,2.42-3.1,3.92-.78,1.51-1.17,3.14-1.17,4.85,0,.38,0,.76-.07,1.14-.77-3.46.19-6.46,2.53-9.02.63-.68,1.49-1.15,2.24-1.72.03.04.07.07.1.11Z"/><path class="cls-3" d="m117.94,76.95c.56-3.29.96-6.58-.1-9.99,1.8,1.53,1.8,7.22.1,9.99Z"/><path class="cls-12" d="m89.86,82.28c-.28.84-.99,1.29-1.62,1.8-2.45,1.97-5.28,2.64-8.37,2.34,0-.1-.02-.19-.02-.29,3.49-.01,6.61-1.02,9.2-3.46.21-.2.49-.32.74-.48,0,0,.08.08.08.08Z"/><path class="cls-12" d="m54.62,72.02c.05-.87-.06-1.77.17-2.59.69-2.53,2.59-3.9,4.93-4.76.32-.12.66-.19,1-.26.12-.02.25.03.59.07-3.72,1.31-6.26,3.43-6.44,7.51-.08.02-.17.03-.25.03Z"/><path class="cls-5" d="m111.87,59.15c-1.26-.35-2.57-.47-3.81-.98-1.7-.7-3.46-.94-5.24-.14-.19.08-.42.06-.64.08l-.04-.04c.42-.71,1.22-.87,1.88-.97,1.4-.21,2.85-.22,4.18.47.53.28,1.08.45,1.69.57.71.14,1.55.23,2,.98l-.03.03Z"/><path class="cls-18" d="m117.71,63.56c.21.13.49.21.62.4,1.18,1.67,1.97,3.5,1.98,5.58,0,1.34-.04,2.68-.06,4.02-.09,0-.19.01-.28.02-.09-2.43-.05-4.89-.98-7.21-.38-.94-.89-1.83-1.35-2.75l.07-.07Z"/><path class="cls-12" d="m96.64,73.07c.66,3.3,2.75,5.27,5.85,6.3.32.11.63.23,1.07.4-3.17.14-7.33-2.77-7.21-6.71.1,0,.2.01.3.02Z"/><path class="cls-5" d="m47.73,60.89c.44-1.08,1.4-1.66,2.32-2.19,1.73-.99,4.43-1.79,6.66-1.26-.98.16-1.92.26-2.84.48-2.09.5-4,1.37-5.57,2.88-.12.11-.31.15-.46.21-.04-.04-.07-.08-.1-.12Z"/><path class="cls-12" d="m79.86,60.47c1.41-.36,2.85-.35,4.28-.27,1.84.11,3.54.7,5.08,1.72.05.03.05.15.08.26-.12.02-.27.1-.35.05-2.46-1.25-5.08-1.65-7.8-1.52-.44.02-.87,0-1.31.01,0-.09,0-.17.02-.26Z"/><path class="cls-7" d="m69.64,54.03c-.05.2-.06.43-.16.59-.74,1.21-1.49,2.41-2.24,3.62-.07.11-.09.28-.18.33-.21.11-.45.17-.67.25-.03-.23-.16-.5-.08-.69.63-1.43,1.45-2.74,2.42-3.96.15-.19.47-.25.71-.37.07.08.14.15.21.23Z"/><path class="cls-15" d="m110.87,49.91c-.12-2.8-.82-5.42-2.35-7.79-.16-.25-.22-.55-.33-.83l.06-.06c.86.38,1.12,1.25,1.54,1.96.83,1.38,1.3,2.89,1.35,4.52.02.73.11,1.45.17,2.18-.15,0-.29.01-.44.02Z"/><path class="cls-12" d="m84.51,83.82c.08-.1.15-.23.25-.28,2.43-1.22,4.16-3.17,5.61-5.41.04-.07.13-.11.2-.17.02.07.06.11.13.11-1.09,2.94-3.08,4.94-6.13,5.82,0,0-.06-.08-.06-.08Z"/><path class="cls-15" d="m70.05,73.48c-.64-1.41-1.25-2.82-2.45-3.86-1.15-1-2.59-1.4-3.98-1.92,1.89,0,3.56.46,4.85,1.95.96,1.11,1.53,2.35,1.58,3.82Z"/><path class="cls-15" d="m96.65,84.09c.13.75-.42,1.22-.81,1.7-1.28,1.57-2.82,2.82-4.79,3.44-.16.05-.33.09-.5.11-.12.01-.25-.03-.32-.04,1.16-.75,2.38-1.46,3.5-2.3.79-.6,1.44-1.37,2.15-2.07.27-.27.52-.55.79-.82,0,0,0,0,0,0Z"/><path class="cls-16" d="m108.64,52.49c-.5.17-.69,0-.69-.46,0-1.26,0-2.52,0-3.77.62-.34.96-.08.99.41.05.91,0,1.82-.05,2.73-.02.37-.17.74-.25,1.09Z"/><path class="cls-15" d="m105.53,78.16c-2.54.77-6.67-1.27-6.73-3.37,1.76,2.22,4.16,2.93,6.73,3.37Z"/><path class="cls-12" d="m72.73,49.65c.71-.87,1.8-1.08,2.75-1.21,1.61-.22,3.28-.32,4.89.19,0,.11,0,.22,0,.32-2.3-.15-4.6-.26-6.8.67-.23.1-.52.05-.78.07l-.06-.06Z"/><path class="cls-15" d="m44.38,75.95c.96.21,1.91.47,2.87.62.54.09,1.1.05,1.65,0,.89-.09,1.78-.23,2.83-.37-.8.69-1.67.78-2.48.95-1.43.32-2.83.09-4.16-.5-.28-.13-.47-.47-.7-.71h0Z"/><path class="cls-5" d="m86.63,80.11c.38-.57.78-1.12,1.15-1.7.82-1.31,1.42-3,1.62-5.23.7,2.42-.49,5.41-2.29,6.9-.09.08-.24.09-.36.13-.04-.04-.08-.07-.11-.11Z"/><path class="cls-15" d="m114.24,80.67c.11-.22.17-.48.33-.67,1.53-1.88,1.92-2.64,2.67-5.24.24,1.05.25,1.43-.11,2.41-.51,1.37-1.36,2.51-2.49,3.44-.09.07-.25.06-.37.08,0,0-.02-.02-.02-.02Z"/><path class="cls-12" d="m82.73,53.62c-.48-.16-.97-.33-1.45-.49-1.56-.52-3.14-.97-4.81-.88,0-.15,0-.3-.01-.45,1.69-.14,3.35-.05,4.9.76.52.27,1.13.43,1.4,1.05h-.01Z"/><path class="cls-15" d="m90.83,41.49c.1-.78.83-.94,1.31-1.34,1.38-1.13,2.97-1.46,4.71-1.12-2.12.33-4,1.18-5.7,2.48-.06.05-.17.03-.25.05l-.07-.07Z"/><path class="cls-5" d="m88.57,53.7c-.98-.75-1.45-1.67-1.56-2.61-.16-1.33-.37-2.73.48-4.01,0,1.12-.13,2.27.04,3.36.16,1.05.64,2.06,1.04,3.25Z"/><path class="cls-5" d="m86.09,62.18c-2.22-.41-4.45-.09-6.68.04,2.22-.84,4.45-1.13,6.68-.04Z"/><path class="cls-12" d="m62.74,84.84c-1.75-.24-3.28-.91-4.49-2.23-.13-.15-.18-.37-.27-.56l.09-.09c1.3.93,2.62,1.81,4.17,2.28.25.07.51.11.76.16-.08.15-.17.29-.25.44Z"/><path class="cls-3" d="m67.54,71.7c.55.07.77.49,1.02.91.73,1.25.87,2.6.6,4.04-.11-.34-.29-.67-.32-1.01-.11-1.42-.87-2.6-1.37-3.87l.07-.07Z"/><path class="cls-15" d="m69.6,65.7c-.13,0-.28.06-.39,0-1.68-.8-3.49-1.12-5.3-1.47,2.07-.19,4.11-.28,5.68,1.47h0Z"/><path class="cls-3" d="m100.27,61.17c.59-1.83,2.79-2.76,4.58-1.79-1.59-.17-2.75.38-3.73,1.39-.2.21-.5.34-.75.5-.03-.03-.07-.07-.1-.1Z"/><path class="cls-15" d="m102.69,75.95c.46.09.92.2,1.38.26,1.15.14,2.31.25,3.5.38-.77.61-1.68.39-2.53.41-.94.02-1.77-.25-2.35-1.06h0Z"/><path class="cls-5" d="m72.81,54.93c1.64-1.19,3.14-1.61,4.96-.93-1.63.31-3.16.59-4.96.93Z"/><path class="cls-15" d="m88.14,65.37c-.99-1.16-2.26-1.81-3.83-2.13,2.03-.44,3.51.38,3.83,2.13Z"/><path class="cls-3" d="m48.58,75.35c-1.38.73-2.86.45-4.19-.94,1.44.32,2.84.63,4.19.94Z"/><path class="cls-18" d="m95.61,88.15c.78-.76,1.31-1.31,1.89-1.81.12-.1.41-.09.58-.03.09.03.19.38.13.43-.54.54-1.09,1.07-1.68,1.55-.1.09-.39-.05-.91-.14Z"/><path class="cls-15" d="m89.03,51.79c.96.87,1.93,1.75,2.89,2.62h0c-.88.17-1.45-.4-2.03-.88-.53-.44-.96-.98-.86-1.76,0,0-.02.02-.02.02Z"/><path class="cls-15" d="m104.5,67.14c-.57.94-1.21,1.84-1.15,3.03-.83-1.2-.35-2.43,1.15-3.03Z"/><path class="cls-12" d="m62.89,82.45c1.29.24,2.39.45,3.57.68-1.63.58-2.41.45-3.57-.68Z"/><path class="cls-3" d="m104.63,70.22q.65.87,2.07,1.53c-.45.39-.91.35-1.29.12-.56-.34-1.11-.75-.78-1.65Z"/><path class="cls-11" d="m96.64,73.07c-.1,0-.2-.01-.3-.02-.43-.42-.1-.94-.27-1.57.62.52.63,1.04.57,1.59Z"/><path class="cls-17" d="m119.97,73.58c.09,0,.19-.01.28-.02-.09.52-.18,1.05-.27,1.57-.18-.54-.42-1.07-.01-1.56Z"/><path class="cls-11" d="m79.84,86.14c0,.1.02.19.02.29-.52-.09-1.04-.19-1.56-.28.53-.17,1.05-.43,1.53,0Z"/><path class="cls-11" d="m62.74,84.84c.08-.15.17-.29.25-.44.43.1.86.21,1.29.31,0,.04-.02.09-.02.13-.51,0-1.01,0-1.52,0Z"/><path class="cls-9" d="m79.86,60.47c-.02.09-.03.17-.02.26-.35.57-.83.08-1.26.07.43-.11.86-.22,1.28-.33Z"/><path class="cls-5" d="m46.99,61.74c.02-.48.29-.75.74-.85.03.04.06.08.1.12-.1.44-.31.75-.8.78l-.05-.05Z"/><path class="cls-17" d="m90.57,77.96c.12-.39.24-.78.42-1.36.26.72.16,1.14-.29,1.47-.07,0-.12-.04-.13-.11Z"/><path class="cls-9" d="m110.87,49.91c.15,0,.29-.01.44-.02-.09.44-.18.88-.27,1.32-.05,0-.11-.02-.16-.02v-1.27Z"/><path class="cls-17" d="m80.36,48.96c0-.11,0-.22,0-.32.35.17.7.34,1.05.51h0c-.35-.07-.71-.13-1.06-.19Z"/><path class="cls-11" d="m76.45,51.8c0,.15,0,.3.01.45h-1.01s-.02-.09-.03-.14c.34-.1.68-.21,1.02-.31Z"/><path class="cls-12" d="m90.84,39.66c.18-.29.4-.5.84-.45-.07.53-.45.48-.74.56-.03-.04-.06-.08-.1-.11Z"/><path class="cls-9" d="m54.62,72.02c.08,0,.17,0,.25-.03v1c-.06,0-.12,0-.19,0-.02-.33-.04-.65-.06-.98Z"/><path class="cls-5" d="m87.68,46.55s-.08.1-.12.15c-.02-.08-.05-.16-.06-.24,0-.03.05-.07.07-.1.04.06.07.13.11.19Z"/><path class="cls-17" d="m81.42,49.15c.15.01.3.03.45.04-.02.06-.04.12-.06.19-.13-.08-.26-.15-.38-.23,0,0,0,0,0,0Z"/><path class="cls-9" d="m78.46,54.36c-.13-.02-.26-.04-.39-.06,0,0,0-.07,0-.07.13-.02.26-.03.39-.04,0,.06,0,.11,0,.17Z"/><path class="cls-5" d="m101.91,58.35c-.18.08-.36.17-.53.25l.02.02c.17-.09.34-.18.52-.27,0,0,0,0,0,0Z"/><path class="cls-5" d="m86.62,62.32c.06.02.13.05.2.07-.04.04-.08.12-.13.12-.07,0-.14-.04-.22-.07.05-.04.09-.08.14-.13Z"/><path class="cls-15" d="m98.55,74.65c.01-.18.02-.29.02-.4.05.06.12.12.14.19,0,.03-.07.1-.17.21Z"/><path class="cls-3" d="m117.81,77.68c-.03-.06-.09-.12-.09-.19,0-.04.07-.09.11-.14.02.03.06.07.06.1-.01.08-.05.15-.07.22Z"/><path class="cls-11" d="m85.92,80.97c-.19.08-.37.15-.56.23h0c.16-.09.32-.2.48-.3,0,0,.07.07.07.07Z"/><path class="cls-12" d="m90.08,81.98c.09-.17.18-.34.28-.51,0,0-.01-.01-.01-.01-.08.18-.17.36-.25.54h-.01Z"/><path class="cls-15" d="m96.66,84.1c.03-.15.05-.31.08-.46l.18.08c-.09.12-.17.25-.26.37h0Z"/><path class="cls-11" d="m84.57,83.89l-.42.23c-.02-.06-.05-.12-.07-.18.14-.04.28-.08.42-.13,0,0,.06.08.06.08Z"/><path class="cls-11" d="m83.5,84.12c.06.02.14.05.21.08-.05.05-.09.13-.14.13-.07,0-.15-.05-.22-.07.05-.05.1-.09.15-.14Z"/><path class="cls-5" d="m112.69,59.65c-.18-.09-.35-.17-.53-.26,0,0-.01.01-.01.01.17.09.35.18.52.26,0,0,.02-.02.02-.02Z"/><path class="cls-12" d="m90.09,82c-.08.1-.16.19-.24.29,0,0-.08-.08-.08-.08.1-.07.2-.15.3-.22h.01Z"/><path class="cls-12" d="m57.79,81.71c.09.08.19.17.28.25l-.09.09c-.08-.1-.16-.2-.23-.29l.05-.05Z"/><path class="cls-12" d="m57.75,81.76c-.08-.1-.15-.2-.23-.3,0,0-.01.01-.01.01.09.08.19.16.28.24,0,0-.05.05-.05.05Z"/><path class="cls-12" d="m90.35,81.47c.03-.07.06-.14.1-.21.03.04.07.09.1.13-.07.02-.14.05-.21.07,0,0,.01.01.01.01Z"/><path class="cls-11" d="m85.36,81.2c-.03.06-.06.13-.08.19-.03-.03-.07-.06-.1-.1.06-.03.13-.06.19-.09,0,0,0,0,0,0Z"/><path class="cls-12" d="m57.52,81.46c-.07-.02-.14-.05-.21-.07.03-.04.07-.08.1-.12.03.07.06.14.1.21,0,0,.01-.01.01-.01Z"/><path class="cls-15" d="m113.98,80.93c-.03.06-.06.13-.09.19-.03-.03-.06-.07-.09-.1.06-.02.13-.05.19-.07l-.02-.02Z"/><path class="cls-15" d="m114,80.95c.08-.09.16-.19.25-.28,0,0,.02.02.02.02-.09.08-.19.16-.28.25,0,0,.02.02.02.02Z"/><path class="cls-11" d="m86.16,80.75c-.08.08-.16.15-.24.23l-.07-.07c.08-.08.16-.16.24-.24l.07.08Z"/><path class="cls-5" d="m86.45,80.45c-.1.1-.19.2-.29.29,0,0-.07-.08-.07-.08.1-.09.2-.18.3-.28,0,0,.06.06.06.06Z"/><path class="cls-5" d="m86.74,80.22l-.3.23s-.06-.06-.06-.06c.08-.09.16-.19.24-.28.04.04.08.07.11.11Z"/><path class="cls-15" d="m102.7,75.95c-.07-.03-.13-.06-.2-.09.04-.03.07-.07.11-.1.03.07.06.13.09.2,0,0,0,0,0,0Z"/><path class="cls-15" d="m44.11,75.7c.09.09.18.17.27.26h0c-.09-.1-.17-.19-.26-.27l-.02.02Z"/><path class="cls-17" d="m119.64,75.46s.07.07.07.09c0,.03-.05.05-.07.08-.02-.03-.06-.06-.06-.09,0-.03.04-.05.07-.08Z"/><path class="cls-15" d="m44.13,75.68c-.07-.03-.14-.06-.21-.1.07.04.13.08.2.11,0,0,.02-.02.02-.02Z"/><path class="cls-3" d="m67.47,71.77c-.08-.1-.15-.2-.23-.29h-.01c.1.08.21.15.31.23l-.07.07Z"/><path class="cls-3" d="m67.24,71.48c-.07-.03-.14-.06-.2-.09.04-.03.07-.07.11-.1.03.07.05.13.08.2h.01Z"/><path class="cls-3" d="m117.86,66.58v.1c-.05-.02-.1-.03-.16-.05.03-.03.05-.07.08-.09.01,0,.05.03.07.04Z"/><polygon class="cls-3" points="117.53 66.18 117.49 66.08 117.58 66.09 117.53 66.18"/><path class="cls-15" d="m69.59,65.71c.07.03.13.07.2.1-.04.03-.08.07-.12.1-.02-.07-.05-.13-.07-.2,0,0,0,0,0,0Z"/><path class="cls-18" d="m117.64,63.63c-.08-.1-.16-.19-.24-.29h.02c.1.06.2.14.3.22,0,0-.07.07-.07.07Z"/><path class="cls-18" d="m117.4,63.34c-.08-.09-.17-.18-.25-.27h0c.09.09.18.17.27.26h-.02Z"/><path class="cls-9" d="m90.83,63.21s-.07.08-.1.08c-.03,0-.06-.06-.09-.09.03-.03.07-.08.1-.08.03,0,.06.06.09.09Z"/><path class="cls-18" d="m116.88,62.82c.09.09.18.17.26.26,0,0,0,0,0,0-.09-.09-.17-.18-.26-.26,0,0,0,0,0,0Z"/><path class="cls-9" d="m90.12,62.78c.05.07.11.14.16.21-.07-.05-.15-.1-.22-.16l.06-.05Z"/><path class="cls-18" d="m116.88,62.81c-.07-.03-.14-.07-.22-.1.04-.04.09-.07.13-.11.02.07.05.15.07.22,0,0,0,0,0,0Z"/><path class="cls-9" d="m90.06,62.84c-.08-.08-.16-.15-.24-.23l.05-.06c.08.08.16.16.24.24,0,0-.06.05-.06.05Z"/><path class="cls-12" d="m89.82,62.61c-.08-.07-.16-.13-.25-.2.1.05.2.09.3.14,0,0-.05.06-.05.06Z"/><path class="cls-5" d="m46.69,62.39s-.03.06-.04.09c-.04-.03-.08-.06-.12-.09.03-.03.05-.06.08-.09.03.03.05.06.08.09Z"/><path class="cls-5" d="m47.03,61.79c-.04.07-.08.14-.11.21-.04-.04-.08-.08-.13-.12.06-.04.13-.09.19-.13l.05.05Z"/><path class="cls-3" d="m100.09,61.52c-.04.07-.08.13-.11.2-.04-.04-.08-.08-.12-.12.06-.04.13-.08.19-.12l.04.04Z"/><path class="cls-3" d="m100.05,61.48c.07-.1.15-.2.22-.31.03.03.07.07.1.1-.09.08-.19.16-.28.24,0,0-.04-.04-.04-.04Z"/><path class="cls-5" d="m112.67,59.67c.07.04.14.08.22.12l-.2-.14-.02.02Z"/><path class="cls-5" d="m112.16,59.39c-.09-.08-.19-.16-.28-.24l.03-.03c.08.09.16.19.24.28,0,0,.01-.01.01-.01Z"/><path class="cls-5" d="m101.37,58.6c-.03.07-.07.15-.1.22.04-.07.08-.14.12-.21,0,0-.02-.02-.02-.02Z"/><path class="cls-5" d="m102.19,58.11c-.1.08-.19.16-.29.24h0c.08-.09.16-.18.25-.28,0,0,.04.04.04.04Z"/><path class="cls-15" d="m91.92,54.41c.07.03.14.06.21.09-.04.03-.08.07-.12.1-.03-.07-.05-.13-.08-.2h0Z"/><path class="cls-5" d="m89.03,53.89c.07.04.14.08.21.12-.06-.05-.13-.09-.19-.14,0,0-.02.02-.02.02Z"/><path class="cls-5" d="m89.05,53.87c-.07-.02-.15-.04-.22-.06.03-.04.06-.08.09-.11.04.07.07.13.11.2l.02-.02Z"/><path class="cls-12" d="m82.74,53.61c.07.03.14.07.22.1-.04.04-.08.08-.12.12-.03-.07-.07-.14-.1-.2h.01Z"/><path class="cls-15" d="m89.05,51.77c-.07-.04-.14-.07-.21-.11.06.04.13.08.19.13,0,0,.02-.02.02-.02Z"/><path class="cls-12" d="m72.17,50.03v.08c-.06-.02-.12-.03-.18-.05.03-.03.06-.06.1-.07.02,0,.06.02.09.04Z"/><path class="cls-12" d="m72.78,49.71c-.04.07-.09.13-.13.2-.05-.04-.09-.09-.14-.13.07-.04.14-.08.21-.12,0,0,.06.06.06.06Z"/><path class="cls-15" d="m90.34,42.05c-.04.07-.08.14-.12.21.05-.06.09-.13.14-.19,0,0-.02-.02-.02-.02Z"/><path class="cls-15" d="m90.36,42.07c.08-.09.17-.18.25-.27,0,0,0,0,0,0-.09.09-.18.17-.27.26,0,0,.02.02.02.02Z"/><path class="cls-15" d="m90.9,41.56c-.1.08-.19.16-.29.23h0c.07-.1.15-.2.22-.31,0,0,.07.07.07.07Z"/><path class="cls-15" d="m108.19,41.29c-.06-.05-.13-.09-.19-.14.04-.04.08-.08.13-.12.04.07.08.14.12.2l-.06.06Z"/><path class="cls-15" d="m107.68,40.49c.07.04.13.07.2.11-.04.03-.08.06-.12.09-.02-.07-.04-.15-.06-.22l-.02.02Z"/><path class="cls-15" d="m107.7,40.47c-.07-.02-.13-.04-.2-.07.03-.04.06-.07.08-.11.03.06.06.13.09.19,0,0,.02-.02.02-.02Z"/><path class="cls-12" d="m92,38.97h.1c-.02.06-.04.11-.05.17-.03-.03-.07-.06-.09-.09,0-.02.03-.05.04-.08Z"/><path class="cls-19" d="m65.78,34.12h-3.21c1.08-.46,2.16-.72,3.21,0Z"/><path class="cls-19" d="m67.16,32.27c-1.17.21-2.34.42-3.8.68,1.34-.95,2.55-.94,3.8-.68Z"/><path class="cls-8" d="m56.73,47.58c.72.61,1.52,1.13,1.86,2.08l-.04.04c-.94-.42-1.73-.97-1.82-2.12h0Z"/><path class="cls-8" d="m59.37,50.45c.64.33,1.24.71,1.65,1.53-1.09-.08-1.54-.62-1.68-1.5l.04-.04Z"/><path class="cls-1" d="m78.8,31.81c.69-.02.91.58,1.26.99.09.1-.02.37-.05.67-.76-.4-1.12-.93-1.22-1.65h0Z"/><path class="cls-19" d="m66.61,35.18c-.9.12-1.8.23-2.7.35.81-.82,1.76-.5,2.7-.35Z"/><path class="cls-8" d="m59.33,50.49c-.09-.09-.18-.18-.26-.26,0,0,.04-.04.04-.04.09.09.18.18.26.26,0,0-.04.04-.04.04Z"/><path class="cls-8" d="m59.07,50.22c-.09-.09-.18-.18-.26-.26l.04-.04c.09.09.18.18.26.26l-.04.04Z"/><path class="cls-8" d="m58.81,49.96c-.09-.09-.17-.18-.26-.26l.04-.04c.09.09.17.17.26.26,0,0-.04.04-.04.04Z"/><path class="cls-8" d="m56.73,47.57c-.06-.03-.13-.05-.19-.08.03-.04.06-.07.1-.11.03.06.06.13.09.19h0Z"/><path class="cls-1" d="m78.79,31.81c-.06-.03-.13-.07-.19-.1.04-.03.07-.07.11-.1.03.06.06.13.09.19,0,0,0,0,0,0Z"/><path class="cls-15" d="m26,75.42c.29.07.59.1.86.22,2.32.98,4.64,1.26,6.99.1.32-.16.69-.2,1.28-.35-.81,1.12-1.87,1.31-2.8,1.56-2.25.59-4.32-.03-6.23-1.29-.06-.04-.07-.15-.1-.22h0Z"/><path class="cls-5" d="m15.16,75.68c.78-1.84,4.04-3.73,6.39-2.99-1.75.31-3.34.76-4.7,1.8-.54.41-1.08.84-1.62,1.26l-.07-.07Z"/><path class="cls-12" d="m36.78,70.45c.03,1.44-.9,2.41-1.79,3.33-.52.54-1.28.87-1.96,1.24-.27.14-.63.12-.98.09,1.94-.99,3.4-2.4,4.32-4.36.07-.14.24-.22.37-.33,0,0,.03.03.03.03Z"/><path class="cls-15" d="m35.71,74.9c-.02.12,0,.31-.07.35-.11.07-.28.04-.43.05.04-.11.06-.25.14-.31.09-.07.24-.06.36-.09,0,0,0,0,0,0Z"/><path class="cls-11" d="m31.05,75.22h.66s0,.09,0,.13h-.66s0-.09,0-.13Z"/><path class="cls-12" d="m36.75,70.42c.02-.16.04-.31.06-.47l.19.06c-.07.15-.15.29-.22.44l-.03-.03Z"/><path class="cls-15" d="m35.71,74.9c.18-.08.36-.17.54-.25l-.02-.02c-.17.09-.34.18-.52.27h0Z"/><path class="cls-15" d="m25.99,75.43l-.22-.1s.08-.08.13-.12c.03.07.07.14.1.2,0,0,0,0,0,0Z"/><path class="cls-15" d="m25.33,74.92c.05.06.08.09.11.12-.03.03-.07.05-.1.08,0-.06,0-.11-.01-.2Z"/><path class="cls-15" d="m36.25,74.65l.06-.2s.07.06.11.08c-.06.03-.13.06-.19.1l.02.02Z"/><path class="cls-12" d="m37.24,69.5s-.07.07-.09.1c-.02-.03-.04-.06-.06-.09.04,0,.09,0,.15-.01Z"/><path class="cls-16" d="m64.21,15.47s-.07-.06-.07-.09c0-.03.05-.06.08-.08.02.03.07.06.07.09,0,.03-.05.05-.08.08Z"/><path class="cls-1" d="m83.02,23.42q-.13.74-.73,1.39c.02-.67.16-1.14.7-1.43l.04.04Z"/><path class="cls-16" d="m83.8,25.26c-.11.25-.22.5-.43.97-.14-.66-.2-1.01.39-1.01,0,0,.04.04.04.04Z"/><path class="cls-1" d="m82.98,23.38c.04-.07.08-.13.12-.2.04.04.08.08.11.12-.06.04-.13.08-.19.12,0,0-.04-.04-.04-.04Z"/><path class="cls-16" d="m82.2,21.56c-.03.07-.06.13-.09.2-.03-.03-.07-.07-.1-.1.06-.03.13-.06.19-.09,0,0,0,0,0,0Z"/><path class="cls-1" d="m82.04,25.04s.05,0,.07,0c-.01.05-.03.11-.04.16-.02-.03-.06-.05-.07-.09,0-.02.02-.05.04-.08Z"/><path class="cls-16" d="m45.42,27.35l.47.06-.07.16c-.13-.08-.26-.16-.39-.24h-.01Z"/><path class="cls-2" d="m49.1,28.93c-.07-.03-.13-.07-.2-.1.04-.04.08-.07.11-.11.03.07.07.13.1.2h-.01Z"/><path class="cls-16" d="m47.53,25.77c.06.03.13.06.19.08l-.1.09c-.03-.06-.05-.13-.08-.19h-.01Z"/><path class="cls-2" d="m48.55,28.53s-.07.08-.1.08c-.03,0-.06-.06-.09-.09.03-.03.07-.08.1-.08.03,0,.06.06.09.09Z"/><path class="cls-2" d="m52,31.29c.07.03.13.06.2.1-.04.03-.07.07-.11.1-.03-.07-.06-.13-.09-.2,0,0,0,0,0,0Z"/><path class="cls-16" d="m40.97,46.26l.09-.2s.07.07.1.11c-.07.03-.13.06-.2.08,0,0,0,0,0,0Z"/><path class="cls-6" d="m43.07,43.11c.03-.06.06-.13.09-.19.03.03.06.06.09.1-.06.03-.13.06-.19.08,0,0,0,0,0,0Z"/><path class="cls-8" d="m49.64,49.16c-.56.72-1.15,1.41-2.1,1.89.41-1.13,1.13-1.75,2.08-1.91l.02.02Z"/><path class="cls-8" d="m47.32,51.18c-.14.19-.29.37-.43.56-.06-.04-.12-.07-.17-.11.13-.21.26-.43.39-.64l.22.19Z"/><path class="cls-8" d="m49.63,49.14c.03-.07.07-.13.1-.2.04.04.08.07.12.11-.07.04-.13.07-.2.11,0,0-.02-.02-.02-.02Z"/><path class="cls-1" d="m52.78,52.73c-.63.39-.96.78-1.64.49.4-.46.74-.79,1.64-.49Z"/><path class="cls-1" d="m50.91,53.47s-.03.05-.05.08c-.04-.03-.08-.06-.12-.08.03-.02.06-.07.09-.07.03,0,.06.05.08.07Z"/><path class="cls-1" d="m52.92,52.35s.06.06.09.09c-.06,0-.12,0-.18-.01.03-.03.06-.05.1-.08Z"/><path class="cls-16" d="m98.98,32.46s-.03.05-.04.07c-.04-.03-.08-.05-.12-.08.03-.02.06-.07.08-.06.03,0,.05.05.08.07Z"/></g></svg>