<?xml version="1.0" encoding="UTF-8"?><svg id="Layer_2" xmlns="http://www.w3.org/2000/svg" viewBox="0 0 330.18 466.14"><defs><style>.cls-1{fill:#efd189;}.cls-2{fill:#f9f0d7;}.cls-3{fill:#faf0d8;}.cls-4{fill:#e9c364;}.cls-5{fill:#eed188;}.cls-6{fill:#f4e0b0;}.cls-7{fill:#f9eed4;}.cls-8{fill:#e9c261;}.cls-9{fill:#eac568;}.cls-10{fill:#e9c262;}.cls-11{fill:#eac467;}</style></defs><g id="Layer_1-2"><path class="cls-8" d="m330.16,1.24c0,.65.02,1.31.02,1.96,0,152.95,0,305.9,0,458.85,0,4.83.11,4.04-4.03,4.04-107.72,0-215.45,0-323.17,0-.5,0-1.01-.03-1.51,0-1.14.09-1.56-.46-1.46-1.53.03-.3,0-.6,0-.91,0-153.71,0-307.41,0-461.12Q.02,0,2.46,0C110.49,0,218.51,0,326.54.03c1.09,0,2.18.41,3.27.63.12.19.24.38.35.58Zm-8.01,55.03s.01.11.01.11c-.05,1.36-.14,2.71-.14,4.07,0,115.85,0,231.7,0,347.55,0,.65.03,1.31.04,1.96.03.07.05.15.08.22.06-.06.11-.12.17-.18,1.54-.88,2.99-1.96,4.63-2.58,1.29-.48,1.42-1.16,1.42-2.32-.02-114.66-.02-229.33-.02-343.99,0-.25,0-.5,0-.75.03-1.25-.76-1.74-1.82-1.99-.2-.02-.4-.05-.6-.07-1.09-.61-2.19-1.21-3.28-1.82-.1-.1-.2-.21-.3-.31-.06-.06-.11-.11-.16-.17,0,.1,0,.19,0,.29Zm-274.53,4.68l.06-.04c-.15-.29-.3-.58-.45-.87-.07-.34-.13-.69-.22-1.03-1.18-4.35-.52-8.34,2.28-11.94,3.59-4.61,10.14-6.13,15.66-3.61,5.38,2.45,8.47,8.45,7.28,14.17-.18.87-.42,1.73-.63,2.59,3.5-4.03,4.71-8.62,3.38-13.71-1.85-7.09-7.97-11.87-14.91-12.18-7.77-.34-14.32,4.98-16.05,11.63-1.35,5.18-.62,10.05,2.98,14.26.2.24.41.48.61.73Zm234.64,344.2c.13.12.27.24.4.37.39,2.3,1.15,4.5.76,6.96-.92,5.82-5.89,10.65-11.4,11.15-7.76.7-12.88-4.72-14.15-9.68-.72-2.8-.29-5.46.44-8.14.05-.16.11-.32.16-.48l-.13-.04c-.08.12-.15.24-.23.36-2.58,2.87-3.64,6.27-3.57,10.08.12,6.83,3.46,11.71,9.5,14.51,6.2,2.88,12.12,1.7,17.18-2.76,3.4-2.99,5.19-6.83,5.18-11.56-.01-4.01-.96-7.51-3.67-10.48-.11-.15-.22-.3-.32-.45-.07-.08-.15-.15-.22-.23.02.13.04.26.06.39ZM1.85,28.41c0,1.01.02,2.01.02,3.02.01,8.55.03,17.09.04,25.64.03.07.05.15.08.22.06-.06.11-.12.17-.18,3.01-.64,5.84-3.41,5.85-5.84.02-5.81-.01-11.63-.08-17.44,0-.44-.34-1.19-.64-1.27-2.35-.57-3.57-2.41-4.92-4.12-.19-.27-.38-.54-.56-.81.02.26.03.52.05.78Zm.08,409.62c.02.07.05.14.07.22.04-.07.08-.14.12-.2,1.77-1.59,3.56-3.18,5.31-4.79.26-.24.51-.64.51-.97.02-5.78.09-11.56-.06-17.33-.08-3.04-3.21-5.87-5.9-5.68-.03.14-.09.28-.09.43,0,9.45.02,18.89.04,28.34Zm301.04,25.98c.08.14.15.27.23.41.06-.06.12-.12.18-.18-.14-.08-.27-.15-.41-.23-1.43-1.5-3.49-2.32-4.27-4.55-.31-.89-1.35-1.61-2.76-1.57-4.93.13-9.86.08-14.79.03-1.5-.01-2.95-.07-4.23.87-1.74,1.29-3.23,2.74-3.48,5.21,9.94,0,19.74,0,29.54,0Zm-.02-461.89c.07-.04.13-.08.2-.12-.07-.02-.14-.05-.21-.07-1.71.03-3.41.07-5.12.07-7.59,0-15.19,0-22.78,0-.57,0-1.14.09-1.69.13.12,3.15,2.83,5.89,5.94,5.94,5.78.09,11.57.06,17.35.04.44,0,1.14-.24,1.28-.56,1.05-2.42,3.15-3.83,5.04-5.45Zm25.31,26.31c-.04-.14-.07-.28-.11-.42-.07.11-.14.21-.22.32l-5.32,4.36c-.44.11-1.25-.04-.62.85,0,5.22.03,10.44.02,15.66,0,2.02.23,3.92,1.46,5.66.98,1.39,3,2.38,4.78,1.98v-28.42ZM27.22,2.12c1.61,1.67,3.29,3.29,4.81,5.05.58.68,1.08,1.01,1.98,1,5.13-.04,10.26,0,15.39-.02,4.21-.01,6.61-1.88,7.85-6.22-10.04,0-20.02,0-30,0-.07.02-.14.05-.21.07.07.04.13.08.2.12Zm44.42,403.29c-.06-.07-.12-.13-.18-.2.02.1.04.21.07.31.25,2.37.83,4.76.67,7.11-.4,5.68-6.2,11.5-13.58,11.02-6.48-.42-11.94-5.69-12.1-12.17-.05-2.04.41-4.1.63-6.12-.13.14-.34.34-.52.57-2.35,3.14-3.34,6.65-3.18,10.59.32,7.72,6.48,14.54,14.87,15.13,5.84.42,10.67-1.99,14.18-6.77,4.31-5.86,3.91-14.66-.87-19.47ZM254.06,10.55c1.89.55,3.85.94,5.67,1.67,4.88,1.95,9.85,3.78,14.53,6.14,9.45,4.76,17.73,11.14,24.86,18.99,7.49,8.25,13.23,17.57,17.09,28,1.37,3.69,2.3,7.53,3.43,11.31.03.47.05.94.08,1.41.15-.01.29-.03.44-.04-.03-.46-.06-.93-.09-1.39-.04-10.15-.08-20.3-.11-30.45-.01-3.47,0-6.94,0-10.4,0-.52-.05-1.05-.07-1.57-4.66.43-8.78.14-12.98-2.21-4.14-2.31-7.11-5.27-9.04-9.36-1.87-3.95-2.28-8.18-1.35-12.5-.25-.06-.39-.12-.54-.12-13.88,0-27.75.02-41.63.03h-1.78c0,.07-.01.13-.02.2.5.09,1.01.18,1.51.28Zm-220.2-.48c-.08.08-.16.16-.24.24.08,2.33.33,4.68.18,7-.09,1.38-.77,2.73-1.23,4.08-.2.58-.57,1.09-.81,1.66-.23.54-.32,1.14-.59,1.65-2.41,4.55-6.63,6.78-11.13,8.66-2.46,1.02-5.05,1.21-7.67,1.08-.76-.04-1.51-.21-2.32-.32v43.15c.37-.69.36-1.45.59-2.14,1.03-3.17,2.11-6.33,3.21-9.47,1.42-4.04,2.92-8.04,5.33-11.64,2.47-3.7,4.54-7.68,7.2-11.22,2.52-3.36,5.43-6.47,8.45-9.41,2.96-2.89,6.24-5.45,9.45-8.08,1.29-1.06,2.72-1.98,4.16-2.84,1.88-1.14,3.81-2.2,5.76-3.23,2.66-1.4,5.32-2.81,8.05-4.07,1.7-.79,3.52-1.34,5.31-1.92,2.2-.72,4.42-1.35,6.63-2.03.56-.17,1.11-.37,1.66-.55.49-.14.99-.28,1.48-.42l-.03-.22c-.5.02-1,.05-1.5.07-13.98,0-27.97,0-41.95,0Zm286.32,378.48c.09-.21.18-.42.27-.64-.09-.03-.19-.07-.28-.1-.08.27-.17.53-.25.8-.27,1.01-.55,2.01-.81,3.02-1.3,5.12-3.04,10.08-5.28,14.87-3.54,7.56-8.02,14.49-13.5,20.77-9.26,10.59-20.36,18.67-33.46,23.83-4.83,1.9-9.89,3.24-14.36,4.68h43.91c-1.27-7.09.37-13.33,5.5-18.27,5.04-4.85,11.13-7.07,18.26-5.34v-43.63ZM58.3,3.39c-.1.17-.19.35-.29.52.38,1.9-1.26,2.73-2.1,3.98-.07.05-.13.09-.2.14.07.03.15.05.22.08.6.01,1.21.04,1.81.04,71.47,0,142.93,0,214.4,0,.6,0,1.21-.03,1.81-.04.28-.04.56-.07,1.12-.14-.54-.36-.8-.54-1.07-.72-1.84-1.32-2.55-3.35-3.23-5.37h-1.64c-69.4,0-138.81,0-208.21,0-.55,0-1.11.02-1.66.04-.3.38-.59.77-.89,1.15-.02.11-.04.21-.06.32ZM7.56,56.18c-.4.33-.79.66-1.19,1-.3.17-.61.35-.91.52-.56.32-1.09.84-1.68.93-1.64.26-1.94,1.15-1.94,2.7.04,114.5.04,229,.04,343.5,0,.5-.08,1.02.03,1.5.07.32.36.7.65.84,1.74.81,3.51,1.55,5.34,2.35.06-.73.23-1.74.23-2.75.01-116.21.01-232.42,0-348.63,0-.65-.03-1.31-.05-1.96-.04-.16-.08-.32-.13-.48-.14.16-.28.33-.41.49Zm312.63,270.48c.12-.44.25-.88.37-1.32-.19-.03-.39-.06-.58-.09-.04.46-.08.92-.11,1.38-.39,1.82-.75,3.65-1.18,5.46-1.24,5.16-2.17,10.43-3.84,15.45-2.24,6.72-4.83,13.35-7.68,19.84-4.48,10.19-10.27,19.65-17.07,28.48-2.02,2.62-4.1,5.18-6.17,7.79.27.33.5.59.71.87,4.19,5.62,5.1,11.75,2.38,18.19-4.88,11.57-19.8,14.36-28.42,6.22-.95-.89-1.55-.66-2.54-.04-6.26,3.91-12.44,7.99-18.92,11.52-11.58,6.3-23.98,10.54-36.8,13.5-2.64.61-5.36.93-8.03,1.4-.21.04-.39.22-.98.57.94,0,1.43,0,1.92,0,13.14,0,26.27.05,39.41-.03,4.04-.02,8.13-.08,12.11-.66,5.54-.82,11.05-1.96,16.37-3.84,10-3.53,19.19-8.49,27.38-15.25,4.79-3.96,9.22-8.28,12.96-13.27,1.99-2.66,4.21-5.18,5.93-8.01,1.91-3.15,3.44-6.55,5.01-9.9,2.56-5.46,4.68-11.1,5.67-17.07.84-5.08,1.92-10.19,2.01-15.3.27-15.29.11-30.58.11-45.87Zm-183.37,129.14h2.31s0-.1,0-.15c-.77-.12-1.53-.23-2.3-.35-4.69-1.1-9.42-2.06-14.07-3.31-15.86-4.27-30.56-11.13-44.24-20.2-1.96-1.3-3.87-2.66-5.79-3.98-8.31,7.93-18.42,6.76-24.83,1.43-3.38-2.81-5.46-6.48-6.09-10.8-.82-5.64.53-10.77,4.46-15.06-18.78-22.02-30.63-47.16-35.71-75.49-.1-.6-.21-1.2-.31-1.81-.09.02-.17.04-.26.05.03.59.06,1.17.09,1.76-.01.5-.04,1-.04,1.51-.01,9.35-.07,18.71-.02,28.06.04,6.73-.11,13.49.44,20.19.89,10.85,4.03,21.15,9.04,30.86,6.23,12.1,14.78,22.24,25.71,30.31,14.21,10.49,30.23,16.32,47.86,16.87,14.57.46,29.17.1,43.76.1Zm.66-445.68c-1.26-.03-2.51-.08-3.77-.08-10.97,0-21.94-.03-32.91,0-3.72.01-7.44.19-11.16.27-.99.02-2.01-.19-2.98-.05-1.31.19-2.57.72-3.88.92-8.02,1.21-15.66,3.64-23,7.02-2.72,1.25-5.32,2.79-7.95,4.24-2.52,1.38-5.02,2.81-7.13,4.8-4.49,4.23-9.23,8.23-13.38,12.77-4.49,4.92-8.63,10.21-11.4,16.37-1.24,2.78-3.01,5.28-3.9,8.25-1.1,3.64-2.82,7.11-3.5,10.86-.4,2.23-1.34,4.3-1.41,6.66-.11,3.61-1.03,7.2-1.06,10.8-.13,14.94-.05,29.88-.05,44.82,0,.57,0,1.14,0,1.71,5.11-28.96,17.13-54.62,36.24-76.91-7.12-8.15-5.65-18.71.26-24.71,3.15-3.21,6.96-5.11,11.44-5.46,5.81-.45,10.72,1.61,14.79,5.74.52-.36.92-.66,1.34-.92,6.47-3.96,12.79-8.18,19.44-11.82,8.49-4.65,17.47-8.22,26.88-10.66,4.18-1.09,8.35-2.21,12.54-3.28,1.48-.38,3.01-.61,4.51-.91.6-.11,1.21-.22,1.81-.33-.02-.08-.03-.17-.05-.25-.57.05-1.15.1-1.72.15Zm55.57.45c1.48.31,2.98.57,4.45.95,5.32,1.37,10.72,2.5,15.91,4.25,6.08,2.05,12.04,4.51,17.92,7.1,3.89,1.71,7.62,3.83,11.29,6,4.47,2.63,8.82,5.47,13.17,8.3,1.27.83,2.25,1.28,3.08-.43.1-.2.37-.33.57-.48,5.49-4.11,11.42-4.82,17.82-2.45,6.52,2.42,11.51,9.73,11.19,16.63-.09,1.87-.63,3.76-1.21,5.56-.45,1.39-1.13,2.78-2.01,3.93-.93,1.22-1.19,2.61-.27,3.8,3.15,4.1,6.43,8.12,9.36,12.37,2.73,3.96,4.99,8.24,7.63,12.26,3.58,5.46,6.01,11.47,8.47,17.45,1.73,4.22,3.01,8.63,4.42,12.97.96,2.97,1.89,5.95,2.66,8.97.91,3.58,1.63,7.21,2.42,10.82.08.44.15.88.23,1.32l.35-.08c-.04-.43-.08-.86-.13-1.29-.04-1.35-.1-2.71-.1-4.06,0-12.47-.02-24.94.01-37.41,0-1.58.42-3.17.3-4.73-.15-2.03-.7-4.03-.99-6.06-.62-4.34-1.18-8.69-2.45-12.91-2.04-6.75-4.66-13.24-8.16-19.39-6.76-11.88-15.89-21.62-27.13-29.3-4.08-2.78-8.36-5.39-13.07-7.13-2.15-.79-4.23-1.82-6.4-2.54-3.95-1.32-7.88-2.73-12.05-3.23-4.76-.57-9.51-1.57-14.27-1.64-14.23-.21-28.47-.06-42.71-.05h-2.68c0,.06-.02.13-.03.19.81.1,1.61.2,2.42.3ZM51.35,399.51c5.61-2.46,11.24-2.42,16.62.46,9.16,4.92,12.09,16.44,6.59,25.27-.55.89-.48,1.42.35,1.98,1.82,1.23,3.61,2.51,5.44,3.73,10.14,6.71,20.94,12.09,32.4,16.15,10.29,3.64,20.81,6.36,31.68,7.59,4.12.47,8.25,1.06,12.38,1.13,7.28.11,14.56-.1,21.84-.27,2.49-.06,4.99-.24,7.44-.65,4-.66,7.98-1.45,11.93-2.36,4.29-.99,8.58-2.03,12.79-3.32,10.31-3.17,20.18-7.41,29.61-12.66.11-.07.21-.14.32-.21.6-.33,1.2-.66,1.8-1,.11-.07.21-.14.32-.21.4-.23.8-.46,1.19-.69.11-.07.21-.14.32-.21.9-.53,1.8-1.07,2.7-1.6l.32-.23,3.91-2.49c.11-.08.21-.16.32-.23.9-.63,1.8-1.25,2.7-1.88.11-.08.21-.16.32-.23.42-.32.84-.64,1.3-.99-.25-.39-.48-.71-.68-1.05-1.38-2.32-2.47-4.77-2.68-7.49-.25-3.16.02-6.28,1.23-9.26.08-.1.16-.19.24-.29,1.15-2.82,2.96-5.12,5.4-6.94.11-.08.22-.16.32-.24,7.75-5.21,15.28-4.41,22.65.89,1.51-1.77,3.13-3.4,4.44-5.26,3.95-5.61,7.86-11.25,11.63-16.99,1.93-2.94,3.55-6.08,5.22-9.18,1.01-1.87,1.85-3.83,2.74-5.77.94-2.04,1.94-4.06,2.74-6.16.78-2.04,1.33-4.18,1.98-6.27,1.11-3.56,2.29-7.1,3.34-10.68,1.46-4.96,2.72-9.98,3.37-15.12.61-4.8,1.26-9.6,1.68-14.42.37-4.28.61-8.58.61-12.88.04-44.27.03-88.54.03-132.81,0-.45,0-.91-.02-1.36-.19-3.89-.4-7.78-.57-11.67-.02-.53.25-1.08.17-1.59-.21-1.45-.63-2.88-.77-4.33-.43-4.36-1.03-8.68-1.96-12.96-.58-2.66-1.24-5.31-1.86-7.97-.53-2.26-.98-4.54-1.62-6.76-.49-1.7-1.26-3.32-1.84-5-.35-1-.46-2.08-.85-3.06-1.01-2.51-2.14-4.98-3.18-7.48-.51-1.24-.81-2.57-1.42-3.76-2.05-4.01-4.19-7.98-6.29-11.96-.64-1.21-1.15-2.49-1.87-3.64-1.15-1.82-2.4-3.59-3.69-5.32-1.26-1.7-2.06-3.68-3.58-5.27-1.66-1.74-2.85-3.94-4.31-5.88-.95-1.27-1.99-2.5-3.05-3.68-.7-.78-1.37-1.23-2.51-.29-2.57,2.1-5.7,3.17-8.94,3.56-5.44.64-10.09-1.31-14.05-4.96-1.92-1.77-3.17-3.93-4.21-6.4-1.02-2.42-1.57-4.82-1.47-7.31.13-3.41,1.15-6.63,3.17-9.49.19-.27.07-1.1-.2-1.31-1.07-.82-2.23-1.52-3.38-2.23-1.52-.93-3.08-1.78-4.58-2.73-1.84-1.17-3.58-2.51-5.47-3.58-2.4-1.35-4.89-2.54-7.38-3.73-2.75-1.32-5.55-2.55-8.31-3.86-1.34-.64-2.57-1.51-3.95-2.02-2.05-.75-4.19-1.27-6.29-1.9-4.09-1.23-8.16-2.53-12.26-3.69-2.67-.75-5.39-1.38-8.11-1.93-2.96-.6-5.96-1.04-8.93-1.56-1.63-.29-3.25-.72-4.9-.87-1.81-.16-3.64.02-5.45-.07-2.64-.14-5.27-.54-7.9-.55-4.77-.01-9.55.1-14.31.32-2.79.13-5.59.43-8.35.87-5.82.94-11.63,1.95-17.42,3.07-2.91.56-5.82,1.26-8.64,2.16-3.52,1.13-6.95,2.5-10.41,3.82-12.13,4.64-23.45,10.79-34.05,18.28-1.11.79-1.23,1.28-.5,2.46,3.51,5.74,3.72,11.76.57,17.64-3.23,6.04-8.51,9.26-15.38,9.58-4.54.21-8.58-1.34-12.3-4.35-.26.35-.5.66-.74.98-4.07,5.49-8.38,10.82-12.16,16.49-7.66,11.48-13.22,24-17.53,37.09-.52,1.59-1.39,3.08-1.82,4.7-.58,2.2-.83,4.49-1.34,6.72-.26,1.14-.9,2.19-1.12,3.33-.34,1.7-.45,3.44-.68,5.16-.19,1.42-.46,2.83-.6,4.26-.28,2.96-1.23,5.84-.97,8.86.01.14-.11.28-.13.43-.23,1.44-.61,2.89-.64,4.34-.05,2.6.18,5.2.18,7.8.01,47.14,0,94.28.02,141.42,0,2.36.03,4.73.33,7.06.8,6.24,1.58,12.5,2.69,18.69,2.25,12.51,6.34,24.44,11.75,35.93,5.79,12.31,13.17,23.61,21.88,34.06.72.86,1.3.73,1.97.05.11-.08.21-.15.32-.23.2-.13.39-.26.59-.39.1-.07.21-.14.31-.22.4-.23.8-.46,1.2-.69.1-.07.21-.13.31-.2Zm8.11,64.54h1.74c69.05,0,138.09-.01,207.14.06,1.86,0,3.15.16,3.66-2.13.31-1.42,1.33-2.68,2.11-4.16H56.14c1.01,1.89,2.07,3.88,3.33,6.23Zm-49.39-75.23v43.35c12.33-2.83,26.67,8.34,23.81,23.59h43.05c-35.08-9.54-57.43-32.01-66.85-66.94ZM281.52,54.71c.07-5.85-5.03-10.55-11.19-10.58-6.25-.03-11.2,5.44-11.04,11.19.19,6.49,4.94,10.93,10.56,11.04,7.13.15,11.73-4.4,11.67-11.66Zm-233.2.4c-.01,6.42,4.96,11.46,11.41,11.21,6.61-.26,10.73-5.59,10.69-11.04-.04-6.19-4.92-11.14-11.06-11.14-6.12,0-11.03,4.88-11.04,10.97Zm10.97,344.53c-6.1-.02-10.94,4.76-10.97,10.82-.03,6.37,4.76,11.29,11,11.29,6.12,0,11.06-4.86,11.09-10.93.03-6.29-4.82-11.17-11.13-11.18Zm211.35,0c-6.03-.08-11.08,4.76-11.18,10.72-.11,6.25,4.7,11.32,10.8,11.39,6.12.07,11.05-4.7,11.34-10.58.31-6.34-5.16-11.74-10.96-11.53ZM19.1,2.22c-.08.09-.16.17-.25.26.3.24.65.44.9.73,1.2,1.44,2.75,2.73,3.48,4.39,1.94,4.39,1.37,8.53-1.77,12.39-2.09,2.57-4.7,4.01-7.8,4.64-2.58.52-5.1.02-7.26-1.53-1.42-1.02-2.67-2.28-4-3.41-.1-.08-.28-.06-.52-.1,0,.74-.06,1.44,0,2.12.41,4.03,2.13,7.44,5.76,9.3,5.69,2.92,11.26,1.96,16.44-1.52,4.85-3.26,7.56-7.87,8.18-13.68.23-2.11.22-4.34-.73-6.16-1.32-2.56-3.14-4.86-5.89-6.18-.65-.31-1.18-1.12-1.82-1.19-1.56-.18-3.15-.06-4.72-.06Zm309.16,16.86c-6.35,7.83-14.21,6.19-18.16,2.76-2.48-2.15-3.98-4.9-4.34-8.03-.53-4.7,1.65-8.43,5.28-11.46-3.02-.44-5.72.19-8.77,2.62-1.79,1.43-3.42,3.09-3.91,5.69-.89,4.69-.53,8.96,2.11,13.1,3.97,6.23,9.6,9.07,16.85,8.78,1.53-.06,3.13-.59,4.54-1.26,2.12-1.01,3.71-2.65,4.93-4.73,1.32-2.25,1.67-4.58,1.49-7.47Zm-17.11,444.59c-6.57-5-6.8-13.32-2.21-18.38,2.18-2.4,4.92-3.75,8.2-3.96,4.64-.3,8.23,1.64,11.18,5.48.12-4.07-.84-7.41-3.63-10.01-1.53-1.43-3.23-2.88-5.3-3.19-2.3-.34-4.75-.4-7.01.03-3.36.65-6.36,2.28-8.76,4.83-1.11,1.19-2.61,2.21-3.25,3.61-1.12,2.46-2,5.11-2.41,7.77-.31,2-.15,4.31.6,6.15.77,1.9,2.42,3.47,3.84,5.06,2.27,2.54,5.3,2.84,8.76,2.6Zm-291.89-.03l.1.5c1.64-.32,3.33-.47,4.9-.97,5.96-1.93,9.18-8.42,7.66-15.21-1.99-8.87-10.06-14.95-19.14-14.42-6.31.37-11.69,6.89-10.74,12.99,5.76-7.22,14.59-6.03,18.9-1.55,4.65,4.83,5.25,13.05-1.67,18.66ZM282.43,60.6c3.72-3.43,5.13-10.11,3.02-16.14-1.17-3.34-3.47-5.74-6.16-7.64-4.12-2.91-8.91-2.63-13.71-2.1-3.46.38-9.45,6.43-10.83,11.41-1.32,4.78.89,12.87,4.37,15.18-3.26-7.87-1.23-13.96,6.01-17.81,5.02-2.67,10.1-1.31,14.14,2.22,4.39,3.84,5.23,8.99,3.17,14.89ZM1.87,2.43c0,3.18.06,6.44-.02,9.7-.07,2.72.75,5.06,2.52,7.11,2.53,2.93,5.56,4.35,9.51,3.45,2.35-.53,4.53-1.3,5.95-3.33.96-1.37,2.23-2.84,2.41-4.38.27-2.33-.08-4.8-.6-7.11-.28-1.23-1.26-2.58-2.32-3.29-1.49-1-3.3-1.93-5.04-2.06-4.04-.3-8.11-.09-12.41-.09Zm.25,461.48c3.62,0,7.23.13,10.84-.04,3.17-.15,5.72-1.71,7.63-4.26,2.53-3.37,2.71-7.79.47-11.45-2.2-3.59-6.55-5.59-10.58-4.86-4.07.73-7.87,4.1-8.26,8.14-.4,4.06-.09,8.19-.09,12.47ZM328.3,2.21c-3.88,0-7.6-.14-11.29.07-1.53.08-3.21.59-4.48,1.42-3.79,2.47-5.37,6.15-4.7,10.6.63,4.16,3.31,6.91,7.13,8.19,1.87.62,4.21.53,6.14.03,1.66-.42,3.21-1.72,4.51-2.94,1.33-1.24,2.54-2.88,2.62-4.73.19-4.14.06-8.29.06-12.64Zm-.26,461.42c0-3.98.34-8.11-.09-12.17-.52-4.98-5.38-8.49-10.62-8.25-4.68.21-9.18,4.34-9.55,8.77-.48,5.65,2.67,10.9,7.64,11.54,4.18.54,8.49.11,12.61.11Zm-299.83.15h28.56c0-.32.03-.52,0-.7-.07-.29-.16-.58-.29-.85-1.32-2.98-3.7-4.45-6.87-4.5-5.22-.08-10.45-.03-15.67,0-.43,0-.99.22-1.26.53-1.53,1.81-3,3.69-4.46,5.52Zm300.07-54.89c-3.35.61-5.95,3.17-5.99,5.99-.07,5.67-.05,11.35,0,17.02,0,.44.35.98.7,1.3,1.42,1.36,2.91,2.66,4.37,3.97.27.24.55.47.92.78v-29.07Zm-280.45-4.24s-.09-.04-.13-.04c-.01,0-.03.07-.04.11.04.02.09.04.13.04.01,0,.03-.07.04-.11Z"/><path class="cls-7" d="m330.16,1.24c-.12-.19-.24-.38-.35-.58.12.19.24.38.35.58Z"/><path class="cls-7" d="m193.34,10.07c-.1.16-.19.33-.29.49-.81-.1-1.61-.2-2.42-.3,0-.06.02-.13.03-.19h2.68Z"/><path class="cls-7" d="m136.82,455.79c0-.16,0-.33.01-.49.77.12,1.53.23,2.3.35,0,.05,0,.1,0,.15h-2.31Z"/><path class="cls-5" d="m320.19,326.66c-.11-.01-.22-.02-.33-.03.04-.46.08-.92.11-1.38.19.03.39.06.58.09-.12.44-.25.88-.37,1.32Z"/><path class="cls-6" d="m319.64,76.66c.14,0,.29-.02.43-.03.03.46.06.93.09,1.39-.15.01-.29.03-.44.04-.03-.47-.05-.94-.08-1.41Z"/><path class="cls-2" d="m10.56,327.89c-.16,0-.32,0-.48,0-.03-.59-.06-1.17-.09-1.76.09-.02.17-.04.26-.05.1.6.21,1.2.31,1.81Z"/><path class="cls-7" d="m137.43,10.55c.01-.14.03-.29.04-.43.57-.05,1.15-.1,1.72-.15.02.08.03.17.05.25-.6.11-1.21.22-1.81.33Z"/><path class="cls-2" d="m254.34,10.07c-.09.16-.19.32-.28.48-.5-.09-1.01-.18-1.51-.28,0-.07.01-.13.02-.2.59,0,1.18,0,1.78,0Z"/><path class="cls-6" d="m319.92,138.56c.15-.01.3-.03.45-.04.04.43.08.86.13,1.29l-.35.08c-.08-.44-.15-.88-.23-1.32Z"/><path class="cls-2" d="m75.86,10.64c-.02-.19-.03-.38-.05-.57.5-.02,1-.05,1.5-.07l.03.22c-.49.14-.99.28-1.48.42Z"/><path class="cls-7" d="m2.37,28.44c-.17,0-.35-.02-.52-.03-.02-.26-.03-.52-.05-.78.19.27.38.54.56.81Z"/><path class="cls-2" d="m59.25,1.92c-.3.38-.59.77-.89,1.15.3-.38.59-.77.89-1.15Z"/><path class="cls-3" d="m273.94,8.11c.02-.29.03-.57.05-.86.27.18.54.36,1.07.72-.56.07-.84.11-1.12.14Z"/><path class="cls-7" d="m322.61,32.69c-.21.28-.41.56-.62.85-.63-.89.18-.73.62-.85Z"/><path class="cls-5" d="m320.18,388.55c-.09.01-.18.03-.27.06.09-.27.17-.53.25-.8.09.03.19.07.28.1-.09.21-.18.42-.27.64Z"/><path class="cls-10" d="m58.3,3.39c.13.11.26.22.39.33-.23.06-.45.13-.68.19.1-.17.19-.35.29-.52Z"/><path class="cls-1" d="m302.96,464.02c.14.08.27.15.41.23-.06.06-.12.12-.18.18-.08-.14-.15-.27-.23-.41,0,0,0,0,0,0Z"/><path class="cls-10" d="m47.83,404.66s-.03.11-.04.11c-.04,0-.09-.02-.13-.04.01-.04.03-.11.04-.11.04,0,.09.02.13.04Z"/><path class="cls-9" d="m282.26,405.15c-.02-.13-.04-.26-.06-.39.07.08.15.15.22.23-.02.09-.07.14-.16.16Z"/><path class="cls-2" d="m328.26,28.43c-.11-.03-.21-.06-.32-.1.07-.11.14-.22.22-.32.04.14.07.28.11.42Z"/><path class="cls-9" d="m253.79,408.76c.08-.1.16-.19.24-.29-.08.1-.16.19-.24.29Z"/><path class="cls-2" d="m322.15,56.27v-.29c.07.06.12.11.18.17-.06.05-.11.09-.18.12Z"/><path class="cls-2" d="m322.07,409.96c.08,0,.16.02.24.04-.06.06-.11.12-.17.18-.03-.07-.05-.15-.08-.22Z"/><path class="cls-9" d="m254.3,427.8c.11-.08.21-.16.32-.23-.11.08-.21.16-.32.23Z"/><path class="cls-9" d="m259.44,401.53c.11-.08.22-.16.32-.24-.11.08-.22.16-.32.24Z"/><path class="cls-9" d="m251.28,429.91c.11-.08.21-.16.32-.23-.11.08-.21.16-.32.23Z"/><path class="cls-9" d="m247.05,432.63c.11-.08.21-.15.32-.23-.11.08-.21.15-.32.23Z"/><path class="cls-10" d="m48.63,401.23c.11-.08.21-.15.32-.23-.11.08-.21.15-.32.23Z"/><path class="cls-9" d="m244.03,434.44c.11-.07.21-.14.32-.21-.11.07-.21.14-.32.21Z"/><path class="cls-10" d="m49.53,400.61c.1-.07.21-.14.31-.22-.1.07-.21.14-.31.22Z"/><path class="cls-9" d="m242.52,435.34c.11-.07.21-.14.32-.21-.11.07-.21.14-.32.21Z"/><path class="cls-9" d="m240.41,436.55c.11-.07.21-.14.32-.21-.11.07-.21.14-.32.21Z"/><path class="cls-2" d="m1.92,438.03c.06,0,.13,0,.19.01-.04.07-.08.14-.12.2-.02-.07-.05-.14-.07-.22Z"/><path class="cls-2" d="m322.63,56.46c-.15-.03-.31-.05-.46-.08,0,0-.02-.11-.02-.11.06-.03.12-.08.18-.12.1.1.2.21.3.31Z"/><path class="cls-2" d="m33.86,10.07c-.08.08-.16.16-.24.24.08-.08.16-.16.24-.24Z"/><path class="cls-3" d="m55.91,7.89c0,.07.02.15.02.22-.07-.03-.15-.05-.22-.08.07-.05.13-.09.2-.14Z"/><path class="cls-7" d="m1.91,57.06c.08,0,.17.02.25.04-.06.06-.11.12-.17.18-.03-.07-.05-.15-.08-.22Z"/><path class="cls-10" d="m51.04,399.71c.1-.07.21-.13.31-.2-.1.07-.21.13-.31.2Z"/><path class="cls-2" d="m302.94,2.12c0-.06,0-.13-.01-.19.07.02.14.05.21.07-.07.04-.13.08-.2.12Z"/><path class="cls-2" d="m27.24,1.93c0,.06,0,.13-.01.19-.07-.04-.13-.08-.2-.12.07-.02.14-.05.21-.07Z"/><polygon class="cls-11" points="47.68 60.91 47.62 60.95 47.59 60.85 47.68 60.91"/><path class="cls-4" d="m16.63,11.6c.02,2.65-2.36,5.03-5,5-2.56-.03-4.92-2.39-4.93-4.94,0-2.6,2.26-4.91,4.87-4.97,2.68-.06,5.04,2.22,5.06,4.91Z"/><path class="cls-4" d="m11.72,449.54c2.61,0,4.91,2.3,4.91,4.9,0,2.68-2.32,5.02-4.98,5.02-2.56,0-4.93-2.37-4.94-4.93-.02-2.66,2.33-4.99,5.01-4.99Z"/><path class="cls-4" d="m318.59,16.6c-2.55.04-4.94-2.27-5.02-4.85-.08-2.63,2.23-5.01,4.93-5.07,2.59-.06,4.95,2.22,4.98,4.82.04,2.69-2.23,5.06-4.9,5.09Z"/><path class="cls-4" d="m318.49,459.25c-2.7-.02-4.93-2.24-4.91-4.89.01-2.72,2.32-4.92,5.1-4.86,2.66.05,4.86,2.33,4.82,4.99-.04,2.66-2.28,4.79-5.01,4.77Z"/></g></svg>