<?xml version="1.0" encoding="UTF-8"?><svg id="Layer_2" xmlns="http://www.w3.org/2000/svg" viewBox="0 0 342 483.73"><defs><style>.cls-1{fill:#5d3b42;}.cls-2{fill:#2e0d37;}.cls-3{fill:#2f0e37;}.cls-4{fill:#5b3941;}.cls-5{fill:#8b674c;}.cls-6{fill:#300f38;}.cls-7{fill:#5c3a42;}.cls-8{fill:#e6bf60;}.cls-9{fill:#2d0c37;}.cls-10{fill:#300e38;}.cls-11{fill:#bb9557;}.cls-12{fill:#e8c161;}</style></defs><g id="Layer_1-2"><path class="cls-9" d="m32.83,25.55c.51-.18,1.01-.41,1.54-.52.42-.09.87-.06,1.3-.06,7.81-.07,15.61-.2,23.42-.2,79.92-.01,159.84,0,239.76-.05,3.96,0,7.73.66,10.9,2.89,1.9,1.34,3.15,3.61,4.72,5.43,1.52,1.75,1.34,4.07,2.09,6.08.21.56-.17,1.31-.17,1.98,0,128.04,0,256.09-.02,384.13,0,2.07.24,4.28-.37,6.19-.68,2.17-2.11,4.12-3.35,6.08-.65,1.03-1.46,2.04-2.43,2.74-1.13.82-2.48,1.37-3.8,1.89-1.31.51-2.68.88-4.05,1.18-.59.13-1.25-.13-1.88-.13-86.69,0-173.38-.02-260.06.05-3.55,0-6.85-.43-9.91-2.22-2.66-1.56-4.74-3.73-6.07-6.49-.68-1.4-.88-3.04-1.27-4.58-.91-3.58-.45-7.23-.46-10.85-.03-125.83-.01-251.66-.06-377.48,0-4.02,1.02-7.56,3.33-10.74.8-1.11,1.86-2.08,2.92-2.95.85-.7,1.89-1.16,2.84-1.74.37-.23.69-.53,1.03-.8.01.06.02.13.03.19Zm4.62,208.33c0,61.6,0,123.2,0,184.8q0,1.76,1.68,1.76c86.96,0,173.93,0,260.89,0q1.71,0,1.71-1.75c0-.16,0-.32,0-.48,0-122.88,0-245.76,0-368.64,0-.32-.02-.65,0-.97.08-.88-.39-1.23-1.2-1.25-.36,0-.72,0-1.09,0-86.44,0-172.88,0-259.32,0-.28,0-.56,0-.85,0q-1.83.02-1.83,1.85c0,61.56,0,123.12,0,184.68Z"/><path class="cls-12" d="m37.45,233.88c0-61.56,0-123.12,0-184.68q0-1.83,1.83-1.85c.28,0,.56,0,.85,0,86.44,0,172.88,0,259.32,0,.36,0,.73,0,1.09,0,.81.02,1.27.37,1.2,1.25-.03.32,0,.64,0,.97,0,122.88,0,245.76,0,368.64,0,.16,0,.32,0,.48q0,1.75-1.71,1.75c-86.96,0-173.93,0-260.89,0q-1.67,0-1.68-1.76c0-61.6,0-123.2,0-184.8Zm262.75,164.1v-23.24c-2.86.39-4.86,2.66-4.88,5.51-.03,4.22.01,8.44-.03,12.67,0,.72.35.98.85,1.4,1.33,1.12,2.54,2.39,3.8,3.6.09.02.18.04.26.05ZM39.23,70.04l-.18-.26c-.03.11-.05.23-.08.34,0,7.64,0,15.28,0,22.93.02.07.03.13.05.2.05-.06.09-.11.14-.17,2.81-.31,4.69-3.32,4.68-5.41-.01-4.3.01-8.6-.03-12.9,0-.35-.3-.76-.57-1.03-1.32-1.26-2.67-2.48-4.02-3.71Zm-.25,327.85l.08.34c.06-.09.12-.17.18-.26,1.33-1.23,2.69-2.44,3.98-3.72.32-.31.6-.82.61-1.25.04-4.18.12-8.37-.03-12.54-.05-1.23-.6-2.57-1.28-3.62-.74-1.13-1.95-1.9-3.53-1.87,0,7.73,0,15.32,0,22.91Zm20.65,20.55c-.1.12-.2.23-.3.35.12-.01.24-.03.36-.04h23.17c-.43-2.92-2.64-4.87-5.57-4.9-4.27-.05-8.53-.03-12.8,0-.37,0-.81.24-1.08.51-1.29,1.33-2.53,2.71-3.78,4.07Zm220.05.21c-1.28-1.37-2.55-2.75-3.87-4.08-.29-.29-.78-.53-1.19-.54-2.09-.05-4.19-.02-6.28-.02-2.17,0-4.35-.03-6.52,0-2.92.06-5.36,2.27-5.36,4.86h23.17c.11-.03.22-.05.32-.08l-.27-.14Zm20.44-348.53c-.03-.11-.05-.23-.08-.34-.06.09-.12.17-.18.26-1.23,1.09-2.42,2.23-3.72,3.23-.59.45-.92.83-.91,1.62.04,4.14,0,8.29.04,12.44,0,.85.14,1.71.36,2.53.47,1.72,2.77,3.26,4.49,3.06v-22.79Zm-44.1-21.04c.37,2.92,2.51,4.6,4.6,4.69,4.73.19,9.47.09,14.21.08.3,0,.75-.19.87-.42.99-1.86,2.52-3.18,4.18-4.38.06-.03.13-.07.19-.1-.07-.02-.13-.04-.2-.05-7.88,0-15.77,0-23.65,0-.06.06-.12.12-.19.19Zm-196.57.24c1.1,1.05,2.45,1.94,3.24,3.19.77,1.22,1.62,1.38,2.84,1.37,3.26-.05,6.51,0,9.77-.03,1.24-.01,2.5-.03,3.71-.24,2.13-.38,3.89-2.46,4.07-4.72h-24.2c0,.06-.02.11-.03.17.2.09.4.18.6.27Zm184.63,322.68c-2.89,3.63-3.89,7.6-2.32,12.1,1.67,4.81,6.07,8.39,10.85,8.74,5.65.41,10.31-2.22,12.83-7.04,1.39-2.65,1.34-5.45,1.06-8.24-.23-2.32-1.71-4.78-2.99-5.78.67,2.44.93,5.39.61,6.77-1.69,7.24-10.45,10.42-16.4,5.94-3.81-2.87-5.01-7.14-3.45-12.34l.04-.31c-.07.05-.15.11-.22.16ZM97.64,55.43c-11.03,0-22.06,0-33.1,0-.06.06-.12.12-.18.19,2.34,10.23-7.17,21.31-18.87,19.04v34.54c.16-.22.14-.46.2-.68,2.86-11.67,8.17-22.09,16.21-31.04,5.77-6.42,12.46-11.69,20.16-15.66,5.12-2.64,10.49-4.57,16.05-6.01.41-.09.82-.18,1.23-.27l-.04-.19c-.55.03-1.11.05-1.66.08Zm142.63,356.93c11.43,0,22.86,0,34.29,0,.07-.06.13-.12.2-.19-2.62-10.48,7.33-21.56,18.94-19v-1.32c0-5.52,0-11.03,0-16.55,0-5.6-.03-11.19-.04-16.79.08-.17.15-.34.23-.51-.08-.03-.15-.06-.23-.08-.06.22-.13.43-.19.65-.03.24-.04.48-.1.72-3.18,13.11-9.54,24.45-19.11,33.93-9.54,9.45-20.91,15.69-33.99,18.76-.4.09-.8.17-1.19.26.02.07.03.13.05.2.39-.02.77-.05,1.16-.07Zm-141.67-.37c-4.63-1.03-9.09-2.58-13.39-4.58-9.65-4.49-17.91-10.78-24.74-18.95-4.81-5.74-8.69-12.04-11.4-19.02-1.39-3.57-2.48-7.25-3.56-10.47v34.49c9.54-2.25,21,6.11,18.93,18.84.19.03.38.08.58.08,11.19,0,22.39-.01,33.58-.02.33.02.65.04.98.05,0-.06.01-.11.02-.17-.33-.08-.67-.17-1-.25ZM240.76,55.79c.09.07.18.19.28.22,4.37.94,8.52,2.52,12.58,4.35,6.66,3,12.71,6.98,18.1,11.86,3.71,3.36,7.09,7.09,10.02,11.19,4.16,5.84,7.42,12.14,9.71,18.93.69,2.03,1.2,4.12,1.79,6.19.06.33.13.66.19.99.08-.01.15-.03.23-.04-.02-.32-.04-.63-.07-.95v-33.84c-5.76.99-10.65-.47-14.6-4.57-3.91-4.06-5.5-8.88-4.24-14.5-.06-.06-.13-.12-.19-.19-11.19,0-22.38,0-33.58,0h-1.41s-.01.09-.02.13c.4.08.8.16,1.2.23Zm16.14-1.95c.06-.02.13-.03.19-.05-.06-.04-.12-.07-.17-.11-.75-1.16-1.73-2.23-2.18-3.5-.39-1.11-.87-1.33-1.93-1.33-55.54.02-111.09.02-166.63.02-.44,0-.89.02-1.33.03-.05.06-.1.12-.16.19-.3,1.82-1.23,3.3-2.51,4.59-.06.04-.12.08-.19.11.07.02.13.03.2.05.4,0,.8.03,1.21.03,57.43,0,114.86,0,172.29,0,.4,0,.8-.02,1.21-.03ZM43.57,375.65c.02.07.03.13.05.2.04-.06.08-.12.11-.19.07-.49.2-.99.2-1.48,0-93.13,0-186.27,0-279.4,0-.48-.02-.97-.03-1.45v-1.18c-.08,0-.16-.02-.25-.02-.14.23-.28.45-.42.68-1.4.76-2.79,1.52-4.31,2.34v1.14c0,91.81,0,183.62,0,275.43,0,.36-.05.73.02,1.08.05.24.24.63.39.65,1.73.13,2.94,1.22,4.21,2.21Zm148.59,36.32c-.48.08-.97.17-1.45.25.02.07.03.15.05.22.47-.03.94-.05,1.42-.08,11.43-.05,22.87.01,34.3-.22,4.04-.08,8.12-.59,12.08-1.4,14-2.86,25.98-9.56,35.84-19.88,11.83-12.39,18.47-27.21,19.16-44.32.51-12.51.11-25.05.11-37.58.09-.24.17-.48.26-.72-.09-.03-.18-.06-.27-.08-.07.29-.13.57-.2.86-.37,2.02-.67,4.05-1.11,6.05-4.16,18.7-12.07,35.64-23.9,50.73-1.24,1.58-2.51,3.12-3.76,4.67,5.54,6.44,4.22,15.07-.52,19.78-2.53,2.52-5.6,3.96-9.09,4.25-4.52.37-8.39-1.31-11.62-4.51-15.5,11.21-32.59,18.5-51.3,21.99Zm-44.24.21c.24.07.49.13.73.2.02-.11.03-.21.05-.32l-.84-.08c-.83-.11-1.68-.16-2.49-.33-6.74-1.43-13.37-3.21-19.82-5.64-7.1-2.67-13.93-5.88-20.39-9.85-3.02-1.86-5.96-3.84-8.89-5.83-.56-.38-.85-.42-1.31.06-.35.36-.81.63-1.22.93-3.62,2.62-7.5,3.88-12.04,2.76-8.03-1.99-13.16-10.66-10.3-18.57.68-1.87,1.85-3.56,2.83-5.41-1.03-1.27-2.21-2.69-3.36-4.13-4.64-5.87-8.69-12.13-12.22-18.73-4.39-8.2-7.79-16.81-10.22-25.78-1.03-3.79-1.71-7.67-2.55-11.51-.09-.48-.19-.97-.28-1.45-.06.01-.12.03-.19.04.03.47.06.95.08,1.42,0,.36-.03.72-.03,1.09-.01,7.45-.06,14.9-.03,22.35.03,6.29-.43,12.61.53,18.85.6,3.89,1.6,7.74,2.63,11.55,1.3,4.8,3.5,9.24,5.92,13.57,2.46,4.4,5.39,8.48,8.8,12.17,2.97,3.21,6.19,6.15,9.69,8.82,6.21,4.75,13.04,8.23,20.4,10.66,5.64,1.86,11.45,3.1,17.42,3.14,12.36.08,24.72.04,37.07.05Zm-.51-356.38c.48-.09.96-.19,1.44-.28-.01-.06-.03-.12-.04-.18-.62.03-1.25.06-1.87.09-9.95,0-19.9-.12-29.84.02-4.63.06-9.28.36-13.87.98-6.05.81-11.83,2.71-17.38,5.27-5.8,2.68-11.25,5.92-15.97,10.27-2.51,2.32-5.13,4.57-7.35,7.15-2.49,2.89-4.76,6.02-6.81,9.25-1.84,2.89-3.43,5.96-4.8,9.1-1.22,2.79-2.06,5.75-2.97,8.67-1.57,5.06-2.44,10.28-2.49,15.56-.12,12-.04,24.01-.04,36.01v1.33c4.07-23.21,13.69-43.76,29.01-61.61-5.82-6.7-5.01-16.05,1.93-21.32,2.85-2.16,6.16-3.01,9.85-2.66,3.2.31,5.93,1.44,8.21,3.57.87.81,1.37.82,2.28.16,6.97-5.09,14.45-9.27,22.35-12.74,6.43-2.82,13.03-5.09,19.84-6.78,2.81-.7,5.67-1.23,8.5-1.84Zm44.51,0c.37.08.75.16,1.12.25,4.65,1.19,9.33,2.24,13.92,3.62,3.9,1.17,7.73,2.61,11.5,4.15,6.43,2.61,12.53,5.9,18.38,9.65,2.2,1.41,4.33,2.9,6.48,4.34.12-.05.2-.07.26-.12.1-.07.19-.15.28-.23,4.59-4.36,9.89-5.3,15.68-2.99,4.03,1.61,6.8,4.68,8.1,8.8,1.51,4.8.65,9.31-2.52,13.28-.44.55-.45.91,0,1.45,1.4,1.67,2.78,3.35,4.12,5.07,6.85,8.82,12.32,18.42,16.53,28.77,2.74,6.73,4.98,13.6,6.48,20.71.4,1.91.81,3.81,1.22,5.72.06.35.13.7.19,1.04.09-.01.18-.03.26-.04-.05-.49-.09-.99-.14-1.48,0-10.75-.02-21.5-.02-32.26,0-5.09-.48-10.12-1.53-15.11-2.57-12.17-8.08-22.86-16.36-32.08-6.44-7.16-14.08-12.73-22.87-16.75-8.57-3.92-17.57-6-26.93-6.17-11.39-.21-22.79-.03-34.18-.02h-1.64c0,.07,0,.14-.01.21.56.06,1.12.11,1.68.17Zm50.25,23.14c-9.89-7.2-20.61-12.82-32.18-16.81-7.73-2.66-15.63-4.65-23.76-5.56-4.16-.46-8.33-.94-12.51-1.14-5.78-.27-11.57-.15-17.3.67-5.25.76-10.53,1.48-15.71,2.61-10.51,2.29-20.52,6.06-29.93,11.29-4.69,2.61-9.13,5.68-13.7,8.51-.66.41-.68.68-.24,1.29,2.22,3.05,2.85,6.54,2.24,10.16-.6,3.57-2.39,6.52-5.28,8.84-5.13,4.12-12.38,4.34-17.52.31-.78-.61-1.14-.42-1.63.23-2.05,2.72-4.14,5.42-6.19,8.14-3.65,4.85-6.81,10.01-9.45,15.45-2.31,4.77-4.39,9.68-6.23,14.65-1.56,4.2-2.83,8.53-3.87,12.89-1.06,4.42-1.77,8.92-2.45,13.41-.49,3.21-.97,6.45-.97,9.68-.07,38.64-.05,77.27-.03,115.91,0,3.04.02,6.1.27,9.13.26,3.1.76,6.19,1.24,9.27.43,2.75.82,5.52,1.47,8.22,1.43,5.91,3.23,11.7,5.41,17.38,2.15,5.62,4.66,11.07,7.7,16.23,2.97,5.03,6.4,9.8,9.73,14.62,1.23,1.78,2.74,3.36,4.13,5.03,6.05-4.96,13.93-4.41,19.22.28,2.95,2.61,4.5,6.09,4.65,10.07.13,3.35-.98,6.37-2.87,9.09,47.42,34.84,109.16,28.31,145.92.02-4.57-6.52-3.07-14.07,1.38-18.7,4.22-4.39,12.99-6.32,19.87-.65,1.31-1.62,2.66-3.21,3.93-4.86,13.95-18.07,22.45-38.4,25.19-61.09.53-4.38.94-8.81.92-13.21-.22-40.23.67-80.46-.46-120.68-.07-2.58-.3-5.19-.79-7.72-1.07-5.53-2.18-11.06-3.58-16.51-1.99-7.73-5.07-15.07-8.67-22.18-3.68-7.28-8.09-14.11-13.12-20.53-1.17-1.49-2.42-2.93-3.64-4.38-5.6,4.68-13,4.86-18.34.68-4.99-3.9-8.07-11.96-2.85-20.02Zm53.18,13.68v282.76c1.54-.83,3.09-1.67,4.82-2.6V95.14c-1.69-.88-3.27-1.71-4.82-2.52Zm-38.58,321.37H82.38c.78,1.55,1.58,3.16,2.46,4.92.12,0,.52,0,.93,0,55.79,0,111.58,0,167.37,0,.28,0,.6.09.84-.02.31-.14.65-.39.79-.68.66-1.31,1.26-2.65,2-4.22Zm-171.94-46.54c-5.51-.36-8.89,4.11-8.86,8.7.03,4.78,3.41,9.27,9.64,8.89,4.31-.27,8.06-3.72,8.19-8.87.11-4.65-3.97-9.12-8.96-8.72Zm8.96-275.91c-.07-4.83-3.62-8.83-8.97-8.76-5.88.07-8.78,3.97-8.84,8.83-.06,4.85,3.73,8.89,8.83,8.92,4.85.02,9.01-3.86,8.98-8.98Zm160-8.62c-4.87-.54-8.75,3.95-8.75,8.69,0,4.98,4.13,9.06,9.04,8.93,4.7-.12,8.55-4.04,8.71-8.74.16-4.53-3.97-9.48-9-8.88Zm.24,284.54c-4.12-.64-8.99,3.49-8.96,8.68.02,4.22,3.09,8.87,8.87,8.9,5.34.03,8.86-4.17,8.88-8.87.02-4.94-3.78-8.71-8.78-8.71Zm-214.93,37.45c2.15-2.64,4.64-4.12,7.94-4.11,3.24.01,5.77,1.36,7.83,3.76,1.81,2.11,2.17,4.64,1.95,7.26-.24,2.96-2.09,5.01-4.33,6.91.34.09.57.23.78.2,2.62-.28,5.06-.98,7.04-2.88,3.05-2.93,3.31-6.56,2.51-10.33-1.62-7.59-9.36-12.52-16.87-10.95-4.28.89-7.59,5.78-6.84,10.13ZM300.11,62.88c-5.2,4.97-10.27,5.67-14.38,2.09-2.39-2.08-3.74-4.7-3.64-7.87.11-3.12,1.58-5.67,4.12-7.71-5.78-.7-9.72,3.39-10.4,8.36-.4,2.91.43,5.76,1.87,8.24,2.81,4.85,7.11,7.44,12.81,7.5,5.97.06,10.23-5.43,9.61-10.61Zm-261.13.05c-.31,4.03,1.25,6.99,4.42,9.09,2.37,1.57,5,1.76,7.76,1.22,3.09-.61,5.76-2,7.91-4.22,2.84-2.94,4.16-6.47,4.09-10.67-.05-3.35-2.37-7.06-5.84-8.49-1.44-.6-2.94-.7-4.6-.42,4.75,3.31,5.7,9.91,1.79,14.36-3.37,3.83-9.97,5.63-15.53-.86Zm261.12,341.85c.72-4.57-3.05-9.73-7.63-10.23-3.47-.38-6.75.21-9.83,2.1-4.68,2.88-7.94,10.15-6.42,14.96,1.41,4.47,6.01,7.74,10.2,6.94-5.4-4.25-5.45-10.49-1.6-14.83,3.25-3.67,10.87-4.68,15.29,1.07Zm-205.6-33.15c2,5.57.72,10.18-4.25,13.39-3.61,2.33-7.55,2.23-11.03-.24-4.52-3.21-5.76-7.67-3.77-13.09-3.79,3.76-5.07,11.09-.23,16.83,4.31,5.11,11.52,6.15,17.46,1.85,5.88-4.27,6.87-13.22,1.82-18.74Zm-.02-275.86c3.25-2.1,4.61-10.06,1.3-15.07-4.32-6.53-13.23-7.72-18.97-3.1-5.4,4.35-6.59,12.82-1.23,18.74-2.27-6.07-.85-10.82,4.51-13.9,4.2-2.42,8.49-1.6,11.95,1.56,3.44,3.14,4.25,7.22,2.43,11.76Zm169.15-.08c2.48-1.72,3.83-7.78,2.57-11.77-1.74-5.48-6.18-8.55-10.85-8.97-7.37-.66-11.87,3.42-13.59,8.56-1.52,4.53-.12,10.25,2.74,12.55-2.3-5.89.08-10.63,3.46-13,3.38-2.36,8.16-2.9,12.47.4,2.75,2.1,5.3,6.2,3.21,12.23Zm36.73-46.58c-3.03,0-5.75.01-8.48,0-6.13-.03-9.93,6.37-7.64,11.52,1.54,3.47,4.71,5.62,8.65,5.07,3.15-.44,6.44-2.58,7-6.45.47-3.27.33-6.63.47-10.14Zm-261.36.2c0,2.91,0,5.92,0,8.92,0,.33,0,.68.08,1,1.08,4.43,5.39,7.33,9.89,6.21,3.19-.79,6.61-3.92,6.41-8.47-.16-3.6-2.73-7.16-6.4-7.59-3.24-.38-6.56-.08-9.99-.08Zm.11,369.39c2.94,0,5.88.16,8.79-.04,4.93-.33,8.65-4.91,7.24-10.39-1.1-4.25-5.2-6.7-9.51-5.96-3.34.57-6.29,3.35-6.48,6.61-.18,3.2-.04,6.41-.04,9.77Zm261.09-.2c0-2.78.07-5.6-.02-8.41-.12-4.16-3.54-7.65-7.56-7.86-4.42-.23-8.25,2.73-8.85,6.86-.64,4.39,1.97,8.68,6.25,9.31,3.29.48,6.71.1,10.17.1Zm-218.36-4.71l.04-.06h-.08s.03.06.03.06Z"/><path class="cls-9" d="m242.17,78.94c-5.23,8.06-2.14,16.12,2.85,20.02,5.34,4.18,12.74,4,18.34-.68,1.21,1.46,2.47,2.89,3.64,4.38,5.03,6.42,9.44,13.25,13.12,20.53,3.6,7.11,6.67,14.45,8.67,22.18,1.41,5.45,2.52,10.98,3.58,16.51.49,2.53.71,5.14.79,7.72,1.13,40.22.24,80.45.46,120.68.02,4.4-.39,8.83-.92,13.21-2.73,22.68-11.24,43.02-25.19,61.09-1.27,1.65-2.62,3.24-3.93,4.86-6.88-5.67-15.65-3.74-19.87.65-4.45,4.63-5.95,12.18-1.38,18.7-36.76,28.29-98.5,34.82-145.92-.02,1.89-2.72,2.99-5.75,2.87-9.09-.15-3.97-1.7-7.45-4.65-10.07-5.29-4.69-13.17-5.24-19.22-.28-1.38-1.67-2.9-3.25-4.13-5.03-3.33-4.82-6.76-9.58-9.73-14.62-3.04-5.16-5.56-10.61-7.7-16.23-2.18-5.68-3.98-11.48-5.41-17.38-.65-2.7-1.05-5.47-1.47-8.22-.48-3.08-.98-6.17-1.24-9.27-.25-3.03-.27-6.08-.27-9.13-.02-38.64-.03-77.27.03-115.91,0-3.23.48-6.48.97-9.68.69-4.49,1.4-9,2.45-13.41,1.04-4.36,2.31-8.69,3.87-12.89,1.84-4.97,3.92-9.88,6.23-14.65,2.64-5.44,5.8-10.61,9.45-15.45,2.05-2.72,4.13-5.42,6.19-8.14.49-.65.85-.84,1.63-.23,5.14,4.03,12.39,3.8,17.52-.31,2.9-2.32,4.69-5.27,5.28-8.84.61-3.62-.03-7.11-2.24-10.16-.44-.61-.42-.88.24-1.29,4.57-2.83,9.01-5.9,13.7-8.51,9.4-5.23,19.42-8.99,29.93-11.29,5.18-1.13,10.45-1.85,15.71-2.61,5.74-.83,11.53-.94,17.3-.67,4.18.2,8.35.68,12.51,1.14,8.14.91,16.04,2.89,23.76,5.56,11.57,3.99,22.28,9.61,32.18,16.81Z"/><path class="cls-2" d="m293.48,158.29c-.41-1.91-.82-3.81-1.22-5.72-1.5-7.11-3.74-13.98-6.48-20.71-4.21-10.35-9.68-19.95-16.53-28.77-1.34-1.72-2.72-3.4-4.12-5.07-.45-.54-.45-.9,0-1.45,3.17-3.97,4.03-8.48,2.52-13.28-1.3-4.12-4.07-7.19-8.1-8.8-5.79-2.32-11.1-1.38-15.68,2.99-.09.08-.18.16-.28.23-.06.04-.14.07-.26.12-2.14-1.44-4.28-2.94-6.48-4.34-5.85-3.75-11.95-7.04-18.38-9.65-3.77-1.53-7.61-2.97-11.5-4.15-4.59-1.38-9.28-2.43-13.92-3.62-.37-.1-.75-.17-1.12-.25,0-.13-.02-.25-.03-.38,11.39,0,22.79-.19,34.18.02,9.36.17,18.36,2.25,26.93,6.17,8.79,4.02,16.43,9.59,22.87,16.75,8.29,9.22,13.79,19.91,16.36,32.08,1.05,4.99,1.53,10.02,1.53,15.11,0,10.75.02,21.5.02,32.26-.1.16-.21.31-.31.47Z"/><path class="cls-2" d="m147.41,55.8c-2.84.61-5.69,1.14-8.5,1.84-6.8,1.69-13.4,3.96-19.84,6.78-7.91,3.47-15.38,7.66-22.35,12.74-.91.66-1.4.65-2.28-.16-2.29-2.13-5.01-3.27-8.21-3.57-3.69-.36-7,.49-9.85,2.66-6.94,5.27-7.75,14.62-1.93,21.32-15.32,17.85-24.94,38.4-29.01,61.61v-1.33c0-12-.08-24.01.04-36.01.05-5.28.92-10.5,2.49-15.56.91-2.92,1.74-5.88,2.97-8.67,1.38-3.13,2.97-6.21,4.8-9.1,2.05-3.22,4.32-6.35,6.81-9.25,2.22-2.58,4.83-4.83,7.35-7.15,4.72-4.35,10.16-7.6,15.97-10.27,5.55-2.56,11.33-4.46,17.38-5.27,4.59-.62,9.24-.91,13.87-.98,9.94-.13,19.89-.03,29.84-.02.16.12.31.25.47.37Z"/><path class="cls-2" d="m45.89,309.93c.84,3.84,1.52,7.72,2.55,11.51,2.43,8.97,5.83,17.58,10.22,25.78,3.53,6.6,7.58,12.86,12.22,18.73,1.14,1.45,2.32,2.86,3.36,4.13-.98,1.85-2.16,3.54-2.83,5.41-2.86,7.91,2.26,16.58,10.3,18.57,4.54,1.12,8.42-.13,12.04-2.76.42-.3.87-.56,1.22-.93.46-.48.75-.44,1.31-.06,2.93,1.99,5.88,3.97,8.89,5.83,6.46,3.98,13.29,7.18,20.39,9.85,6.46,2.43,13.09,4.22,19.82,5.64.82.17,1.66.22,2.49.33.01.07.03.14.06.21-12.36-.01-24.72.02-37.07-.05-5.97-.04-11.78-1.28-17.42-3.14-7.36-2.43-14.19-5.92-20.4-10.66-3.5-2.68-6.72-5.62-9.69-8.82-3.41-3.69-6.34-7.76-8.8-12.17-2.42-4.33-4.62-8.77-5.92-13.57-1.03-3.81-2.03-7.65-2.63-11.55-.96-6.24-.51-12.56-.53-18.85-.03-7.45.01-14.9.03-22.35,0-.36.02-.72.03-1.09.13,0,.26,0,.38,0Z"/><path class="cls-2" d="m293.66,308.95c0,12.53.39,25.07-.11,37.58-.69,17.11-7.33,31.93-19.16,44.32-9.86,10.33-21.84,17.02-35.84,19.88-3.96.81-8.04,1.32-12.08,1.4-11.43.23-22.86.16-34.3.22,0-.13,0-.26,0-.38,18.71-3.49,35.8-10.78,51.3-21.99,3.23,3.2,7.1,4.89,11.62,4.51,3.49-.29,6.56-1.73,9.09-4.25,4.74-4.72,6.06-13.34.52-19.78,1.25-1.55,2.52-3.09,3.76-4.67,11.83-15.09,19.74-32.03,23.9-50.73.44-2,.75-4.03,1.11-6.05.07-.01.14-.03.21-.05Z"/><path class="cls-9" d="m43.92,93.33c0,.48.03.97.03,1.45,0,93.13,0,186.27,0,279.4,0,.49-.13.99-.2,1.48-.05-.02-.11-.03-.16-.02-1.27-.99-2.48-2.07-4.21-2.21-.15-.01-.35-.4-.39-.65-.07-.35-.02-.72-.02-1.08,0-91.81,0-183.62,0-275.43v-1.14c1.51-.82,2.91-1.58,4.31-2.34.22.17.44.35.66.52Z"/><path class="cls-9" d="m295.34,92.62c1.55.81,3.13,1.64,4.82,2.52v277.63c-1.73.93-3.28,1.77-4.82,2.6V92.62Z"/><path class="cls-9" d="m256.77,413.99c-.73,1.57-1.33,2.91-2,4.22-.15.29-.49.53-.79.68-.23.11-.55.02-.84.02-55.79,0-111.58,0-167.37,0-.4,0-.8,0-.93,0-.88-1.76-1.68-3.36-2.46-4.92h174.39Z"/><path class="cls-9" d="m82.18,53.68c1.28-1.29,2.21-2.77,2.51-4.59.05-.06.1-.12.16-.19.44,0,.89-.03,1.33-.03,55.54,0,111.09,0,166.63-.02,1.06,0,1.54.21,1.93,1.33.45,1.27,1.43,2.34,2.18,3.5-.03.05-.03.1-.02.16-.4.01-.8.03-1.21.03-57.43,0-114.86,0-172.29,0-.4,0-.8-.02-1.21-.03.01-.06,0-.11-.02-.17Z"/><path class="cls-2" d="m293.24,108.52c-.59-2.06-1.11-4.16-1.79-6.19-2.3-6.79-5.55-13.09-9.71-18.93-2.93-4.11-6.3-7.83-10.02-11.19-5.39-4.88-11.44-8.86-18.1-11.86-4.06-1.83-8.21-3.41-12.58-4.35-.11-.02-.19-.14-.28-.22.07-.12.15-.24.22-.36,11.19,0,22.38,0,33.58,0,.06.06.13.12.19.19-1.26,5.61.33,10.44,4.24,14.5,3.95,4.1,8.84,5.56,14.6,4.57v33.84h-.36Z"/><path class="cls-2" d="m98.59,412.35c-11.19,0-22.39.02-33.58.02-.19,0-.38-.05-.58-.08,2.07-12.73-9.4-21.09-18.93-18.84v-34.49c1.09,3.22,2.18,6.9,3.56,10.47,2.71,6.97,6.59,13.27,11.4,19.02,6.84,8.17,15.1,14.46,24.74,18.95,4.3,2,8.75,3.55,13.39,4.58,0,.12,0,.25,0,.37Z"/><path class="cls-2" d="m293.65,358.51c.01,5.6.04,11.19.04,16.79,0,5.52,0,11.03,0,16.55v1.32c-11.61-2.56-21.56,8.51-18.94,19-.07.06-.13.12-.2.19-11.43,0-22.86,0-34.29,0,0-.13,0-.25,0-.38,13.09-3.07,24.45-9.31,33.99-18.76,9.57-9.48,15.93-20.82,19.11-33.93.06-.23.07-.48.1-.72.07,0,.13-.03.19-.06Z"/><path class="cls-2" d="m98.11,55.81c-5.56,1.43-10.93,3.37-16.05,6.01-7.7,3.97-14.39,9.25-20.16,15.66-8.04,8.95-13.35,19.37-16.21,31.04-.05.22-.04.46-.2.68v-34.54c11.7,2.27,21.2-8.81,18.87-19.04.06-.06.12-.12.18-.19,11.03,0,22.06,0,33.1,0,.16.13.31.26.47.39Z"/><path class="cls-2" d="m84.82,367.45c4.99-.39,9.08,4.08,8.96,8.72-.13,5.15-3.87,8.6-8.19,8.87-6.23.39-9.61-4.1-9.64-8.89-.03-4.59,3.35-9.06,8.86-8.7Z"/><path class="cls-2" d="m93.78,91.54c.03,5.12-4.12,9.01-8.98,8.98-5.09-.02-8.89-4.07-8.83-8.92.06-4.85,2.96-8.75,8.84-8.83,5.34-.07,8.9,3.93,8.97,8.76Z"/><path class="cls-2" d="m253.78,82.92c5.03-.61,9.16,4.35,9,8.88-.17,4.71-4.02,8.62-8.71,8.74-4.91.13-9.04-3.95-9.04-8.93,0-4.74,3.88-9.23,8.75-8.69Z"/><path class="cls-2" d="m254.02,367.45c5,0,8.8,3.77,8.78,8.71-.02,4.71-3.54,8.9-8.88,8.87-5.77-.03-8.84-4.67-8.87-8.9-.03-5.19,4.84-9.32,8.96-8.68Z"/><path class="cls-3" d="m39.09,404.91c-.75-4.35,2.56-9.24,6.84-10.13,7.52-1.57,15.25,3.36,16.87,10.95.8,3.77.54,7.41-2.51,10.33-1.98,1.9-4.42,2.6-7.04,2.88-.21.02-.44-.11-.78-.2,2.24-1.9,4.09-3.95,4.33-6.91.22-2.63-.14-5.15-1.95-7.26-2.06-2.4-4.59-3.75-7.83-3.76-3.3-.01-5.8,1.47-7.94,4.11Z"/><path class="cls-3" d="m300.11,62.88c.62,5.18-3.65,10.67-9.61,10.61-5.7-.06-10-2.65-12.81-7.5-1.44-2.48-2.26-5.33-1.87-8.24.68-4.97,4.62-9.06,10.4-8.36-2.55,2.03-4.02,4.58-4.12,7.71-.11,3.17,1.25,5.79,3.64,7.87,4.11,3.59,9.18,2.88,14.38-2.09Z"/><path class="cls-3" d="m38.98,62.94c5.56,6.49,12.16,4.69,15.53.86,3.91-4.44,2.96-11.05-1.79-14.36,1.66-.28,3.15-.18,4.6.42,3.47,1.43,5.78,5.14,5.84,8.49.07,4.2-1.25,7.73-4.09,10.67-2.15,2.22-4.82,3.62-7.91,4.22-2.76.54-5.39.35-7.76-1.22-3.17-2.1-4.74-5.07-4.42-9.09Z"/><path class="cls-3" d="m300.09,404.79c-4.42-5.75-12.04-4.73-15.29-1.07-3.85,4.34-3.8,10.58,1.6,14.83-4.19.81-8.79-2.47-10.2-6.94-1.52-4.81,1.74-12.08,6.42-14.96,3.07-1.89,6.36-2.47,9.83-2.1,4.58.5,8.35,5.66,7.63,10.23Z"/><path class="cls-6" d="m94.49,371.64c5.05,5.52,4.06,14.47-1.82,18.74-5.94,4.31-13.15,3.27-17.46-1.85-4.84-5.74-3.56-13.07.23-16.83-1.99,5.43-.75,9.89,3.77,13.09,3.49,2.47,7.42,2.58,11.03.24,4.97-3.21,6.25-7.82,4.25-13.39Z"/><path class="cls-6" d="m94.47,95.78c1.82-4.54,1.01-8.63-2.43-11.76-3.46-3.16-7.75-3.98-11.95-1.56-5.36,3.09-6.78,7.84-4.51,13.9-5.36-5.93-4.17-14.39,1.23-18.74,5.73-4.62,14.64-3.43,18.97,3.1,3.32,5.01,1.96,12.97-1.3,15.07Z"/><path class="cls-10" d="m263.62,95.69c2.09-6.03-.46-10.12-3.21-12.23-4.3-3.29-9.09-2.76-12.47-.4-3.38,2.37-5.77,7.11-3.46,13-2.86-2.3-4.26-8.03-2.74-12.55,1.72-5.14,6.22-9.22,13.59-8.56,4.68.42,9.12,3.49,10.85,8.97,1.27,3.99-.09,10.05-2.57,11.77Z"/><path class="cls-3" d="m244.26,372.17c-1.56,5.2-.36,9.47,3.45,12.34,5.95,4.47,14.71,1.3,16.4-5.94.32-1.38.06-4.33-.61-6.77,1.28,1,2.76,3.46,2.99,5.78.28,2.79.33,5.59-1.06,8.24-2.52,4.82-7.18,7.44-12.83,7.04-4.77-.34-9.18-3.93-10.85-8.74-1.57-4.5-.56-8.47,2.32-12.1.05.06.11.11.18.15Z"/><path class="cls-3" d="m300.36,49.11c-.14,3.5,0,6.86-.47,10.14-.56,3.88-3.84,6.02-7,6.45-3.94.54-7.11-1.6-8.65-5.07-2.28-5.14,1.51-11.55,7.64-11.52,2.73.01,5.45,0,8.48,0Zm-4.04,7.55c0-2.13-1.77-3.94-3.88-3.95-2.1,0-4.07,1.88-4.09,3.93-.02,1.91,2.02,4.03,3.88,4.04,2.23,0,4.09-1.82,4.1-4.02Z"/><path class="cls-3" d="m38.99,49.32c3.43,0,6.75-.3,9.99.08,3.67.43,6.24,3.98,6.4,7.59.2,4.55-3.22,7.68-6.41,8.47-4.5,1.12-8.81-1.78-9.89-6.21-.08-.32-.08-.67-.08-1,0-3.01,0-6.01,0-8.92Zm7.8,3.39c-2.11,0-4.02,1.88-4.02,3.98,0,1.97,2.01,4.02,3.91,3.99,2.22-.04,4.09-1.91,4.06-4.07-.03-2.1-1.84-3.9-3.95-3.91Z"/><path class="cls-2" d="m39.1,418.71c0-3.36-.14-6.57.04-9.77.18-3.26,3.14-6.04,6.48-6.61,4.32-.74,8.42,1.7,9.51,5.96,1.41,5.48-2.3,10.05-7.24,10.39-2.92.2-5.86.04-8.79.04Zm7.84-11.4c-2.15-.06-4.09,1.66-4.16,3.68-.08,2.17,1.67,4.06,3.82,4.13,2.24.07,4.09-1.61,4.15-3.79.06-2.13-1.67-3.96-3.81-4.02Z"/><path class="cls-3" d="m300.19,418.5c-3.46,0-6.88.38-10.17-.1-4.29-.63-6.9-4.92-6.25-9.31.6-4.13,4.43-7.09,8.85-6.86,4.02.21,7.43,3.7,7.56,7.86.08,2.81.02,5.63.02,8.41Zm-7.74-11.16c-2.31,0-4.12,1.66-4.11,3.77,0,2.08,1.92,3.96,4.04,3.97,2.15,0,3.9-1.75,3.95-3.88.04-2.02-1.98-4.26-3.88-3.86Z"/><path class="cls-2" d="m59.48,48.9h23.6c-.18,2.25-1.94,4.34-4.07,4.72-1.21.21-2.47.23-3.71.24-3.26.03-6.51-.02-9.77.03-1.22.02-2.08-.15-2.84-1.37-.78-1.25-2.13-2.14-3.24-3.19.01-.14.02-.29.03-.43Z"/><path class="cls-2" d="m256.21,48.9c7.88,0,15.77,0,23.65,0-.01.05,0,.1,0,.15-1.66,1.2-3.19,2.52-4.18,4.38-.12.23-.57.42-.87.42-4.74.01-9.48.11-14.21-.08-2.09-.08-4.23-1.76-4.6-4.69.06-.06.12-.12.19-.19Z"/><path class="cls-2" d="m300.12,70.13v22.79c-1.72.2-4.02-1.34-4.49-3.06-.22-.82-.36-1.68-.36-2.53-.04-4.14,0-8.29-.04-12.44,0-.79.32-1.16.91-1.62,1.3-1,2.49-2.15,3.72-3.23.08.03.17.06.25.08Z"/><path class="cls-2" d="m279.62,418.88h-23.17c0-2.59,2.44-4.81,5.36-4.86,2.17-.04,4.35,0,6.52,0,2.09,0,4.19-.03,6.28.02.4.01.9.25,1.19.54,1.32,1.33,2.59,2.72,3.87,4.08-.04.07-.06.14-.05.22Z"/><path class="cls-2" d="m59.63,418.44c1.26-1.36,2.49-2.74,3.78-4.07.26-.27.71-.51,1.08-.51,4.27-.03,8.53-.06,12.8,0,2.94.03,5.14,1.99,5.57,4.9h-23.17c-.02-.1-.04-.21-.06-.31Z"/><path class="cls-2" d="m38.98,397.9v-22.91c1.57-.03,2.78.74,3.53,1.87.69,1.05,1.24,2.39,1.28,3.62.15,4.18.08,8.36.03,12.54,0,.42-.29.94-.61,1.25-1.29,1.27-2.65,2.48-3.98,3.72-.08-.03-.17-.06-.25-.08Z"/><path class="cls-2" d="m38.98,93.05c0-7.64,0-15.28,0-22.93.08-.03.17-.06.25-.08,1.34,1.23,2.7,2.45,4.02,3.71.28.26.57.68.57,1.03.04,4.3.01,8.6.03,12.9,0,2.09-1.87,5.1-4.68,5.41-.06-.03-.12-.04-.19-.03Z"/><path class="cls-2" d="m299.94,397.92c-1.26-1.21-2.47-2.48-3.8-3.6-.49-.42-.85-.68-.85-1.4.04-4.22,0-8.44.03-12.67.02-2.86,2.02-5.13,4.88-5.51,0,7.76,0,15.5,0,23.24-.09-.02-.18-.04-.26-.05Z"/><path class="cls-1" d="m191.89,55.43c0,.13.02.25.03.38-.56-.06-1.12-.11-1.68-.17,0-.07,0-.14.01-.21h1.64Z"/><path class="cls-7" d="m43.92,93.33c-.22-.17-.44-.35-.66-.52.14-.23.28-.45.42-.68.08,0,.16.02.25.02v1.18Z"/><path class="cls-1" d="m147.41,55.8c-.16-.12-.31-.25-.47-.37.62-.03,1.25-.06,1.87-.09.01.06.03.12.04.18-.48.09-.96.19-1.44.28Z"/><path class="cls-1" d="m98.11,55.81c-.16-.13-.31-.26-.47-.39.55-.03,1.11-.05,1.66-.08l.04.19c-.41.09-.82.18-1.23.27Z"/><path class="cls-5" d="m293.48,158.29c.1-.16.21-.31.31-.47.05.49.09.99.14,1.48-.09.01-.18.03-.26.04-.06-.35-.13-.7-.19-1.04Z"/><path class="cls-1" d="m45.89,309.93c-.13,0-.26,0-.38,0-.03-.47-.06-.95-.08-1.42.06-.01.12-.03.19-.04.09.48.19.97.28,1.45Z"/><path class="cls-1" d="m240.98,55.43c-.07.12-.15.24-.22.36-.4-.08-.8-.16-1.2-.23,0-.04.01-.09.02-.13h1.41Z"/><path class="cls-7" d="m192.16,411.97c0,.13,0,.26,0,.38-.47.03-.94.05-1.42.08-.02-.07-.03-.15-.05-.22.48-.08.97-.17,1.45-.25Z"/><path class="cls-1" d="m293.24,108.52h.36c.02.31.04.63.07.94-.08.01-.15.03-.23.04-.06-.33-.13-.66-.19-.99Z"/><path class="cls-7" d="m240.26,411.97c0,.13,0,.25,0,.38-.39.02-.77.05-1.16.07-.02-.07-.03-.13-.05-.2.4-.09.8-.17,1.19-.26Z"/><path class="cls-11" d="m147.92,412.18c-.02-.07-.04-.14-.06-.21.28.03.56.06.84.08-.02.11-.03.21-.05.32-.24-.07-.49-.13-.73-.2Z"/><path class="cls-1" d="m98.59,412.35c0-.12,0-.25,0-.37.33.08.67.17,1,.25,0,.06-.01.11-.02.17-.33-.02-.65-.04-.98-.05Z"/><path class="cls-11" d="m293.66,308.95c-.07.02-.14.04-.21.05.07-.29.13-.57.2-.86.09.03.18.06.27.08-.09.24-.17.48-.26.72Z"/><path class="cls-1" d="m59.48,48.9c-.01.14-.02.29-.03.43-.2-.09-.4-.18-.6-.27,0-.06.02-.11.03-.17h.61Z"/><path class="cls-11" d="m293.65,358.51c-.06.03-.13.05-.19.06.06-.22.13-.43.19-.65.08.03.15.06.23.08-.08.17-.15.34-.23.51Z"/><path class="cls-11" d="m59.63,418.44c.02.1.04.21.06.31-.12.01-.24.03-.36.04.1-.12.2-.23.3-.35Z"/><path class="cls-1" d="m38.98,397.9c.08.03.17.06.25.08-.06.09-.12.17-.18.26-.03-.11-.05-.23-.08-.34Z"/><path class="cls-1" d="m39.23,70.04c-.08.03-.17.06-.25.08.03-.11.05-.23.08-.34.06.09.12.17.18.26Z"/><path class="cls-1" d="m300.12,70.13c-.08-.03-.17-.06-.25-.08.06-.09.12-.17.18-.26.03.11.05.23.08.34Z"/><path class="cls-7" d="m279.62,418.88c0-.08.01-.15.05-.22.09.05.18.09.27.14-.11.03-.22.05-.32.08Z"/><path class="cls-1" d="m274.75,55.61c-.06-.06-.13-.12-.19-.19.06.06.13.12.19.19Z"/><path class="cls-1" d="m64.54,55.43c-.06.06-.12.12-.18.19.06-.06.12-.12.18-.19Z"/><path class="cls-4" d="m256.9,53.84c-.01-.06,0-.11.02-.16.06.04.12.07.17.11-.06.02-.13.03-.19.05Z"/><path class="cls-11" d="m299.94,397.92c.09.02.18.04.26.05-.09-.02-.18-.04-.26-.05Z"/><path class="cls-4" d="m82.18,53.68c.02.05.03.11.02.17-.07-.02-.13-.03-.2-.05.06-.04.12-.08.19-.11Z"/><path class="cls-1" d="m38.98,93.05c.07,0,.13,0,.19.03-.05.06-.09.11-.14.17-.02-.07-.03-.13-.05-.2Z"/><path class="cls-7" d="m274.56,412.35c.07-.06.13-.12.2-.19-.07.06-.13.12-.2.19Z"/><polygon class="cls-5" points="81.84 413.8 81.8 413.73 81.88 413.74 81.84 413.8"/><path class="cls-1" d="m279.87,49.05c-.02-.05-.02-.1,0-.15.07.02.13.04.2.05-.06.03-.13.07-.19.1Z"/><path class="cls-1" d="m256.21,48.9c-.06.06-.12.12-.19.19.06-.06.12-.12.19-.19Z"/><path class="cls-7" d="m84.85,48.9c-.05.06-.1.12-.16.19.05-.06.1-.12.16-.19Z"/><path class="cls-7" d="m43.57,375.65c.06-.01.11,0,.16.02-.04.06-.08.12-.11.19-.02-.07-.03-.13-.05-.2Z"/><path class="cls-3" d="m244.08,372.02c.07-.05.15-.11.22-.16-.01.1-.03.21-.04.31-.06-.04-.12-.09-.18-.15Z"/><path class="cls-8" d="m296.32,56.66c0,2.2-1.87,4.02-4.1,4.02-1.86,0-3.9-2.13-3.88-4.04.02-2.05,1.99-3.94,4.09-3.93,2.11.01,3.89,1.82,3.88,3.95Z"/><path class="cls-8" d="m46.8,52.71c2.11,0,3.93,1.8,3.95,3.91.03,2.16-1.85,4.03-4.06,4.07-1.89.03-3.9-2.02-3.91-3.99,0-2.1,1.9-3.99,4.02-3.98Z"/><path class="cls-8" d="m46.94,407.31c2.14.06,3.87,1.89,3.81,4.02-.06,2.18-1.91,3.87-4.15,3.79-2.15-.07-3.9-1.97-3.82-4.13.07-2.03,2.01-3.74,4.16-3.68Z"/><path class="cls-8" d="m292.45,407.34c1.9-.41,3.92,1.84,3.88,3.86-.04,2.13-1.8,3.89-3.95,3.88-2.12,0-4.03-1.88-4.04-3.97,0-2.11,1.8-3.77,4.11-3.77Z"/></g></svg>