<?xml version="1.0" encoding="UTF-8"?><svg id="Layer_2" xmlns="http://www.w3.org/2000/svg" xmlns:xlink="http://www.w3.org/1999/xlink" viewBox="0 0 712.13 770"><defs><style>.cls-1{fill:#ebc972;}.cls-2{fill:#f2da9f;}.cls-3{fill:#edce7f;}.cls-4{fill:#ecca76;}.cls-5{fill:#ebc76d;}.cls-6{fill:#f3dca6;}.cls-7{fill:#eccb78;}.cls-8{fill:#300f38;}.cls-9{fill:#ecc974;}.cls-10{fill:#ebc76e;}.cls-11{fill:#e7c36a;}.cls-12{fill:#2d0c37;}.cls-13{fill:url(#linear-gradient);}</style><linearGradient id="linear-gradient" x1="356.63" y1="770" x2="356.63" y2="0" gradientUnits="userSpaceOnUse"><stop offset="0" stop-color="#c9a657"/><stop offset=".32" stop-color="#8d6b4a"/><stop offset=".63" stop-color="#593740"/><stop offset=".87" stop-color="#391739"/><stop offset="1" stop-color="#2d0c37"/></linearGradient></defs><g id="Layer_1-2"><rect class="cls-13" x="1.13" width="711" height="770"/><path class="cls-11" d="m662.83,137.02c.57.23,1.03.53,1.52.61,7.92,1.18,14.06,6.82,15.97,14.52,1.32,5.32.79,10.64-2.71,15.23-2.87,3.76-6.67,5.91-11.48,6.14-2.83.13-5.63.05-8.1-1.54-3.31-2.13-5.62-4.88-6.44-8.96-.49-2.44-.05-4.58.61-6.77.97-3.25,5.63-6.51,8.84-6.43,3.02.08,5.68.52,7.79,2.86,2.61,2.89,2.89,7.42.48,10.45-1.15,1.44-2.67,2.36-4.61,2.38-.62,0-1.24,0-2.03,0-.05-.56-.09-1.07-.13-1.51.21-.15.36-.32.45-.3,3.43.83,7-2.86,6-6.57-.9-3.34-3.63-5.76-7.01-5.69-1.96.04-3.93.73-5.53,2.02-1.49,1.2-2.35,2.82-2.89,4.65-1.07,3.67,0,6.94,2.24,9.73,1.89,2.35,4.54,3.73,7.68,3.81,2.09.05,4.16.1,6.21-.69,4.78-1.86,7.8-5.21,8.89-10.2,1.6-7.33-.91-13.31-6.54-17.97-2.11-1.75-4.75-2.71-7.53-3.3-4.82-1.01-9.36-.2-13.77,1.71-.94.41-1.46.2-1.87-.65,1.85-2.03,5.91-3.24,11.39-3.4,3.27-3.91,4.83-8.57,5.49-13.48.32-2.42.17-4.93-.26-7.45-.69-3.96-2.08-7.53-4.23-10.88-3.56-5.56-8.58-8.98-14.95-10.52-2.83-.69-6.88-.38-10.24.58-5.07,1.45-9.15,4.38-11.87,8.78-2.15,3.48-3.21,7.34-2.38,11.7.73,3.83,2.21,7.09,4.91,9.74,5.89,5.78,15.08,5.4,20.15-.9,3.25-4.04,3.46-9.77-.48-13.95-2.67-2.83-5.74-3.56-9.29-2.34-.98.34-1.85,1.12-2.65,1.83-.94.84-1.5.44-2.2-.45,1.87-2.44,4.3-3.56,7.34-3.82,5.18-.45,9.86,4.04,11.16,8.75,1.68,6.08-1.97,12.32-6.83,14.84-3,1.55-6.1,2.23-9.42,1.91-2.59-.25-4.97-1.27-7-2.8-3.46-2.61-6.14-5.9-7.05-10.28-.43-2.06-.99-4.09-.5-6.34.4-1.86.27-3.82,1.06-5.66,1.42-3.34,3.39-6.19,6.3-8.45,3.04-2.36,6.31-4.16,10.12-4.79,1.6-.27,3.25-.24,4.87-.38,5.23-.44,9.86,1.43,13.84,4.46,5.34,4.06,9.05,9.39,10.72,16.08.86,3.47,1.16,6.95.79,10.41-.43,4.05-1.56,7.99-3.84,11.48-.33.51-.58,1.08-.97,1.8Z"/><path class="cls-11" d="m712.13,171.12v4.12c-.47-1.25-1.12-2.46-1.96-3.63-2.51-3.49-5.79-5.81-10.22-6.72-4.34-.9-7.99.17-11.3,2.67-2.79,2.11-4.11,5.16-4.42,8.63-.32,3.61.97,6.56,3.73,8.86,3.04,2.53,7.81,3.13,11.12.4,2.83-2.31,3.59-6.65,1.68-9.62-1-1.56-3.97-2.75-5.99-2.3-1.49.33-3.41,1.81-3.49,4.16-.01.13-.14.26-.24.45h-1.31c-.09-.13-.26-.25-.26-.38-.01-3.3,2.7-5.99,5.98-6.16,3.92-.2,6.95,2.21,7.88,5.34.91,3.1.39,6.2-1.83,8.75-2.91,3.34-6.59,4.13-10.76,2.92-4.54-1.31-7.33-4.54-8.24-8.94-.83-4.05.09-8.04,2.92-11.34,1.75-2.04,3.74-3.78,6.31-4.69,2.49-.88,5.05-1.4,7.72-.69,1.11.29,2.31.32,3.37.74,4.08,1.65,7.27,4.05,9.31,7.43Z"/><path class="cls-11" d="m712.13,186.35v4.75c-1.4,2.31-3.34,4.41-5.75,6.32-3.66,2.91-7.83,4.48-12.36,5.36-4.67.91-9.41.75-14.04.31-6.1-.58-11.99-2.4-17.66-4.91-4.32-1.92-8.48-4.07-12.41-6.7-.62-.42-1.28-.7-.97-1.57.2-.58,1.05-.52,2.03.12,6.04,3.94,12.46,7.04,19.39,9.07,2.72.8,5.47,1.44,8.3,1.86,3,.44,5.97,1.08,9,.8,4.91-.46,9.77-1.17,14.23-3.55,4.98-2.66,8.53-6.53,10.24-11.86Z"/><path class="cls-5" d="m509.61,171.75c.64-1.08,1.19-1.42,2.17-.65,2.55,2.01,5.27,3.8,8.21,5.21,6.04,2.89,12.35,5.05,18.85,6.64,4.18,1.02,8.4,1.84,12.67,2.42,3.51.47,6.99,1.14,10.54,1.44,3.55.3,7.11.57,10.65.96,4.07.45,8.15.01,12.17.48,3.68.43,7.35.49,10.99.27,4.85-.3,9.7-.15,14.53-.46,4.18-.27,8.36-.6,12.54-.92,3.37-.26,6.72-.89,10.08-1.31,1.77-.22,3.56-.25,5.32-.53,3.49-.56,7-.91,10.45-1.78,3.42-.86,6.97-1.2,10.39-2.05,2.97-.73,5.86-1.8,8.75-2.82,1.57-.55,3.08-1.31,4.79-2.04.11.74.18,1.25.26,1.78-4.33,2.48-8.99,3.75-13.66,5-2.44.65-4.9,1.26-7.38,1.76-2.18.45-4.4.74-6.6,1.08-3.58.56-7.17,1.05-10.77,1.49-4.61.56-9.23,1-13.85,1.45-6.78.67-13.55.69-20.33.97-3.19.13-6.39.35-9.58.3-5.71-.09-11.42-.22-17.12-.48-3.79-.17-7.59-.49-11.36-.95-3.97-.48-7.9-1.26-11.86-1.8-6.4-.89-12.67-2.39-18.82-4.31-4.4-1.37-8.71-3-12.82-5.13-3.23-1.68-6.33-3.54-9.21-6.02Z"/><path class="cls-5" d="m637.13,137.39c.42.43.68.7.86.9-.08.35-.06.54-.15.63-2.43,2.55-5.4,4.39-8.34,6.27-5.08,3.26-10.54,5.76-16.13,7.98-2.71,1.07-5.44,2.09-8.22,2.94-5.93,1.81-11.87,3.56-17.99,4.71-4.53.85-9.07,1.61-13.62,2.35-2.52.41-5.04.7-7.58.96-4.1.41-8.2.6-12.29.98-7.6.69-15.19.28-22.78.3-2.84,0-5.68-.67-8.53-.82-4.18-.23-8.26-1.02-12.3-1.99-3.19-.77-6.43-1.53-9.32-3.23-.33-.19-.64-.42-1.04-.68.37-.97.8-1.59,1.87-1,3.96,2.18,8.37,2.98,12.7,3.94,2.93.65,6.03.5,8.96,1.13,2.76.59,5.6-.06,8.31.81.5.16,1.09.03,1.64.03,5.34,0,10.69.06,16.03-.02,3.19-.04,6.38-.23,9.57-.47,3-.23,6.01-.52,8.99-.95,3.65-.52,7.28-1.19,10.91-1.82,4.54-.79,9.13-1.39,13.6-2.48,4.9-1.2,9.71-2.8,14.51-4.35,4.24-1.36,8.31-3.15,12.4-4.94,5.26-2.32,10.09-5.29,14.75-8.61,1.06-.75,2.03-1.63,3.18-2.56Z"/><path class="cls-5" d="m573.94,155.6v-1.9c.77,0,1.45,0,2.14,0,5.17.02,10.05-1.33,14.83-3.13,5.04-1.9,9.23-5.05,12.8-9.04,2.67-2.99,4.57-6.5,5.37-10.35.83-3.98.21-7.96-2.66-11.16-1.81-2.02-3.76-3.82-6.28-5.15-6.43-3.38-13.98.66-15.4,7.27-1.13,5.27.96,9.54,6.71,11.08,2.59.69,4.96-.12,6.7-2.22,1.5-1.81,2.15-3.86,1.21-6.24-.96-2.42-4-3.98-6.3-3.1-.96.36-2.13,2.05-2.43,3.65-.47.02-.97.05-1.42.07-.13-.27-.26-.41-.25-.54.1-2.88,2.33-5.09,5.18-5.13,4.52-.07,7.76,3.02,7.52,7.25-.32,5.71-6.14,9.67-11.34,7.92-3.69-1.24-6.28-3.5-7.41-7.1-1.09-3.46-.26-6.85,1.59-9.94,2.29-3.82,5.88-5.67,10.15-6.07,3.09-.29,5.93.97,8.48,2.62,3.9,2.54,6.66,6.09,7.76,10.63.76,3.14.41,6.39-.79,9.38-1.82,4.52-4.46,8.57-8.24,11.71-4.12,3.43-8.75,6.02-13.92,7.53-2.43.71-4.92,1.17-7.44,1.54-2.18.32-4.3.31-6.55.41Z"/><path class="cls-5" d="m626.13,220.88c.56-1.17,1.12-1.22,2.15-.82,2.6,1.01,4.87.21,5.95-2.25,1.27-2.88.8-6.29-2.5-8.02-3.89-2.03-8.17-.63-10.27,2.94-3.42,5.81-.74,12.8,6.54,14.99,6.04,1.81,11.81-1.51,14.27-6,1.09-1.99,1.58-4.07,2-6.31.83-4.51-.83-8.18-3.22-11.65-1.62-2.34-4.04-3.91-6.58-5.12-3.05-1.45-6.33-2.44-9.66-2.89-4.04-.55-8.16-1.14-12.2.31-.77.28-1.66.24-2.71.37-.17-.33-.44-.84-.78-1.47,2.13-.64,4.11-1.2,6.21-1.19,2.36,0,4.72-.01,7.08,0,3.67.03,7.12,1.08,10.56,2.24,2.67.9,5.05,2.34,7.2,4.08,2.59,2.1,4.28,4.92,5.31,8.05.55,1.66.92,3.46.93,5.2.04,4.75-1.62,9-4.9,12.39-2.03,2.1-4.56,3.46-7.65,4.01-3.41.61-6.41-.02-9.35-1.51-3.23-1.64-5.38-4.3-6.13-7.77-1.16-5.39,1.17-11.81,7.59-13.3,4.93-1.14,10.17,1.4,10.96,7.52.33,2.61-1.74,7.03-5.59,7.49-2,.24-3.56-.08-5.22-1.33Z"/><path class="cls-5" d="m631.9,161.5c.37.63.6,1.02.88,1.49-2.59,2.16-5.52,3.71-8.64,4.82-3.68,1.31-7.38,2.59-11.17,3.5-4.39,1.04-8.76,2.26-13.3,2.72-2.67.27-5.29.93-7.95,1.32-1.84.27-3.72.26-5.55.54-3.34.52-6.72.19-10.04.55-6.97.76-13.95.5-20.89.24-5.27-.2-10.59-.84-15.66-2.62-.42-.15-.91-.12-1.47-.19v-1.53c.21-.1.35-.23.47-.21.68.11,1.35.23,2.02.39,2.85.67,5.76,1,8.62,1.58,2.38.48,4.82-.07,7.14.78.49.18,1.09.05,1.64.05,5.9,0,11.79.03,17.69-.02,1.46-.01,2.92-.3,4.38-.42,1.46-.12,2.91-.05,4.4-.39,1.87-.43,3.85-.37,5.78-.58.76-.08,1.5-.36,2.26-.43,4.15-.38,8.25-1.09,12.31-1.93,8.19-1.71,16.39-3.43,23.82-7.55,1.06-.59,2.06-1.31,3.27-2.09Z"/><path class="cls-8" d="m209.83,642.74c-5.21-1.59-10.55-1.31-15.87-1.15-1.52.05-3.04.51-4.52.93-3.08.86-6.07,1.97-8.95,3.42-2.86,1.44-5.75,2.84-8.72,4.04-3.46,1.39-7,2.57-10.84,2.34-2.91-.18-5.83.17-8.74-.59-2.19-.56-4.55-.45-6.78-.9-3.32-.67-6.61-1.55-9.89-2.4-.42-.11-.75-.59-1.33-1.05,1.37-.31,2.46-.72,3.57-.77,4.76-.23,9.14-1.93,13.24-4.03,7.27-3.74,12.99-9.48,17.91-15.92,4.92-6.43,9.43-13.18,14.32-19.62,1.84-2.42,4.08-4.61,6.47-6.49,4.15-3.27,8.56-6.21,12.84-9.34.6-.44,1.01-1.15,1.74-2.01-1.99-.37-3.21.36-4.45,1.06-4.06,2.3-7.94,5.04-12.22,6.79-9.16,3.74-17.35,8.92-24.59,15.57-3.54,3.26-7.56,5.46-12.12,6.68-3.28.87-6.64.99-10.37.5,1.77-1.77,3.34-3.17,4.73-4.75,2.2-2.51,4.41-5.03,6.36-7.72,4.09-5.64,5.92-12.23,7.32-18.91.7-3.34.91-6.78,1.39-10.16.58-4.09,1.48-8.15,1.75-12.26.25-3.94,1.54-7.46,3.15-10.94,1.55-3.34,3.73-6.24,6.57-9.05-2.99-.23-5.13,1.09-6.93,2.69-5.91,5.25-10.87,11.34-14.44,18.38-3.1,6.1-6.34,12.07-10.39,17.6-3.84,5.24-8.5,9.43-14.45,12.12-.39.17-.86.17-1.48.29,1.52-2.94,2.93-5.59,4.26-8.27,2.39-4.82,2.82-10.14,3.2-15.35.25-3.45-.54-7-1.06-10.48-.6-3.98-1.38-7.93-2.14-11.88-1.07-5.49-2.24-10.96-2.31-16.59-.01-1.04-.18-2.08-.22-3.11-.04-1.11-.13-2.24.02-3.33.35-2.7.22-5.39.22-8.1-1.35,0-1.62.68-1.89,1.55-1.55,5.01-3.22,9.98-4.74,15-.65,2.16-1.17,4.39-1.51,6.62-.73,4.7-1.36,9.42-1.91,14.15-.42,3.74-1.67,7.18-3.11,10.63-1.82,4.33-4.9,7.72-7.85,11.18-.91,1.07-2.12,2.61-4.3,2.16.43-2.8,1.03-5.41,1.2-8.05.33-5.22.04-10.36-1.56-15.45-2.48-7.87-6.72-14.66-12.1-20.77-3.12-3.54-5.6-7.46-7.86-11.57-2.27-4.1-3.59-8.56-4.88-12.99-.97-3.34-1.75-6.94.48-10.27.14-.2-.01-.6-.04-1.17-.6.1-1.44,0-1.64.32-1.7,2.6-3.4,5.22-3.34,8.53.05,2.82-.07,5.63.62,8.41.75,2.99,1.18,6.08,2.12,9,1.83,5.67,4.05,11.22,5.85,16.9.83,2.63,1.26,5.44,1.49,8.21.54,6.77-.15,13.44-2.19,19.95-.11-.18-.24-.34-.3-.53-1.21-3.82-2.15-7.75-3.67-11.44-3.59-8.74-9.7-15.5-17.43-20.81-3.59-2.47-7.35-4.68-11-7.06-7.28-4.75-14.09-10.08-20.16-16.33-.7-.72-1.49-1.36-2.24-2.04-.4.9-.39,1.58-.09,2.1,1.86,3.23,3.7,6.48,5.73,9.61,2.26,3.48,4.59,6.92,7.12,10.21,2.35,3.06,5.07,5.84,7.49,8.85,4.6,5.73,6.91,12.44,7.6,19.66.33,3.45.09,6.96.03,10.44-.01.65-.4,1.29-.66,2.08-2.92-2.89-5.53-5.65-8.34-8.2-2.47-2.24-4.97-4.54-7.78-6.29-7.12-4.42-15-6.78-23.3-7.8-3.5-.43-7.05-.6-10.47-1.37-.11-.02-.21-.05-.32-.07v1.89c3.42.66,6.86,1.12,10.33,1.48,9.29.97,17.93,3.96,25.51,9.5,6.13,4.48,11.22,9.98,14.91,16.67.39.72.58,1.54.84,2.32,1.11,3.27.62,4.53-2.51,5.89-1.49.65-3,1.48-4.84.93-1.26-2.88-2.39-5.87-3.82-8.71-2.23-4.39-5.2-8.18-9.15-11.28-3.04-2.38-6.11-4.68-9.52-6.44-3.94-2.04-8.16-3.36-12.44-4.56-3.15-.88-6.25-1.94-9.31-3.08v2.05c4.79,1.72,9.64,3.27,14.48,4.82,7.74,2.48,14.29,6.62,19.63,12.71,3.19,3.63,5.54,7.78,7.07,12.33.72,2.13.55,4.41-1.36,6.06-1.8,1.56-3.69,3.01-5.86,4.76-.57-1.31-1.08-2.3-1.44-3.34-2.3-6.73-5.67-12.8-10.15-18.38-4.61-5.74-10.37-9.79-16.57-13.53-1.88-1.12-3.82-2.07-5.8-2.95v2.38c1.64.78,3.25,1.61,4.84,2.52,6.88,3.95,13.06,8.58,17.42,15.33.46.71,1.46,1.14,1.38,2.19-.41.1-.67.26-.78.18-5.92-4.15-12.56-5.81-19.7-5.61-1.05.03-2.1.05-3.16.08v1.78c1.9-.03,3.79,0,5.69.04,8.83.13,16.16,3.55,21.73,10.41,2.17,2.68,3.13,6.02,3.85,9.36.31,1.42-.27,2.66-1.11,3.79-1.8,2.41-3.52,4.88-5.42,7.21-.75.93-1.87,1.56-2.72,2.24-1.64-.7-2.63-1.57-3.55-2.82-4.64-6.29-10.34-11.44-17.3-15.07-.39-.2-.78-.39-1.17-.58v2.16c.61.29,1.21.61,1.8.95,3.83,2.19,7.05,5.17,10.36,8,1.37,1.17,2.3,2.84,3.84,4.8-1.44-.15-2.25-.12-3-.33-4.26-1.19-8.61-1.88-13-2.12v1.82s.07.01.1.01c4.48.53,8.99,1.14,13.3,2.63,1.36.47,2.73.89,4.06,1.44,1.22.51,2.38,1.15,3.5,1.69.09,3.31-1.09,6.04-3.24,7.89-4.89-1.2-9.65-2.44-14.45-3.51-1.05-.23-2.17-.12-3.27-.11v1.94c.6.03,1.19.06,1.79.09,5.03.27,9.88,1.9,14.61,3.67,1.06.4,1.73,1.59,1.52,2.69-.36,1.82-.77,3.62-1.18,5.42-.46,2.07-1.02,2.46-3.01,1.83-3.23-1.03-6.45-2.11-9.65-3.23-1.35-.47-2.71-.88-4.08-1.25v3.81c.6-.1,1.21-.19,1.82-.28,1.45-.2,3.03.44,5.05.78-2.11,1.51-4.75.86-6.87,2.03-.39.22-.77.5-1.13.87h1.13c4.23,0,8.19,0,12.15-.01.63,0,1.26-.02,1.9-.02,2.4.04,2.5.27,2.71,2.75.23,2.57.7,5.12,1.05,7.67.08.52.15,1.03.18,1.55.2,3.57-.54,4.54-4.2,4.51-2.78-.01-5.57-.53-8.35-.84-.82-.09-1.64-.39-2.44-.33-1.01.07-2.01.18-3,.32v2.17c2.69-.26,5.44-.17,8.26.22.07,0,.12.15.34.47-.48.39-.97.86-1.53,1.22-2.37,1.52-4.77,2.96-7.07,4.6v2.35c2.47-2,5.18-3.72,8.13-5.11,2.88-1.36,5.88-2.47,8.85-3.62.56-.22,1.23-.13,1.99-.2.34,1.3.47,2.56,1.57,3.59,2.17,2.02,1.78,3.56-1.02,4.59-3.52,1.29-6.86,2.88-9.97,4.98-3.65,2.45-6.78,5.42-9.55,8.77v3.45c4.45-5.77,9.6-10.67,16.32-13.79,1.78-.83,3.6-1.51,5.66-1.51,2.22,0,3.86.71,4.73,2.84.24.57.51,1.12.81,1.79-.7,1.17-2.16,1.89-2.05,3.69.06.94-1.11,1.51-2.15,1.98-6.11,2.8-12.25,5.62-17.46,9.96-2.17,1.81-4.14,3.82-5.86,6.04v3.92c1.42-2.33,2.95-4.57,4.9-6.48,3.28-3.22,7.34-5.4,11.36-7.58.4-.22.93-.22,1.9-.42-.74,1.19-1.19,1.95-1.67,2.68-4.69,7.08-7.13,14.86-7.37,23.35-.19,6.83,1.2,13.38,3.52,19.75,2.09,5.75,3.27,11.72,4.01,17.75.54,4.48-.04,8.96-2.03,13.1-.64,1.34-.39,2.1,1.08,2.87.8-1.84,1.58-3.51,2.25-5.21,1.73-4.41,3.84-8.69,4.73-13.38.5-2.64.67-5.34,1.03-8.01.59-4.3,1.45-8.58,1.76-12.89.32-4.28,1.2-8.4,2.67-12.38,1.68-4.56,4.37-8.51,8.07-11.71.43-.37,1.2-.36,2.03-.58-.45,3.15-1.05,5.88-1.18,8.64-.25,5,.13,9.95,1.07,14.93,1.46,7.77,4.72,14.7,8.64,21.42,3.57,6.15,8.59,11.22,12.62,17.03,1.88,2.71,3.74,5.4,5.02,8.53.14.33.27.66.39,1h4.25c-.06-.97-.17-1.93-.3-2.91-.65-4.84-1.91-9.48-3.22-14.15-1.5-5.34-2.68-10.78-3.83-16.21-.92-4.33-.58-8.76-.74-13.15-.21-5.79.58-11.37,2.94-16.68.14.08.36.16.47.32.19.24.42.53.43.81.22,4.16,2.09,7.83,3.95,11.32,3.18,5.95,7.66,10.92,13.39,14.62,5.57,3.6,11.18,7.15,16.78,10.72,5.43,3.47,10.84,6.96,14.98,12.02.66.8,1.21,1.7,1.9,2.47.5.56,1.15.99,2.32,1.97-.23-1.35-.22-1.96-.43-2.47-.4-.96-1.02-1.83-1.39-2.8-3.7-9.76-9.87-17.96-16.48-25.87-1.2-1.43-2.29-2.95-3.38-4.47-3.31-4.63-4.75-10.03-6.21-15.41-.23-.86-.07-1.65.97-2,1.91,1.91,3.83,3.81,5.73,5.72,5.51,5.55,12,9.66,19.15,12.67,4.28,1.8,8.82,2.84,13.53,3.02,2.59.11,5.19.38,7.77.65,1.65.17,3.31.35,4.92.7,5.02,1.11,9.98,2.43,14.78,4.32,4.89,1.93,9.04,4.71,11.61,9.47.15.28.52.43.91.74.53-1.53.4-2.73-.33-3.83-1.62-2.41-3.1-4.94-4.97-7.14-3.97-4.68-8.85-8.2-14.43-10.8-3.93-1.84-7.83-3.76-11.62-5.87-4.57-2.53-8.72-5.7-12.44-9.35-3.81-3.73-6.86-8.09-9.55-12.69-.85-1.45-1.97-2.84-1.91-5.12,1.48.8,2.74,1.41,3.93,2.13,5.85,3.51,12.21,5.6,18.94,6.28,7.02.71,13.86-.56,20.57-2.68,5.09-1.62,10.03-3.58,15.42-4.4,5.3-.8,10.37,0,15.54.43,2.46.21,4.9.69,7.36.98.53.06,1.09-.18,1.72-.3-1.17-2.01-3.09-1.49-4.58-1.81-6.96-1.51-13.61-4.01-20.37-6.14-2.32-.73-4.6-1.16-7.01-1.23-3.54-.11-7.07.13-10.64-.49-4.92-.85-9.65-2.13-14.08-4.43-1.06-.55-1.94-1.46-3.48-2.65,2.14,0,3.51.09,4.86-.02,2.27-.18,4.57-.32,6.8-.79,6.04-1.27,11.43-4.2,16.74-7.18,6.44-3.62,12.19-8.27,18.04-12.77,4.68-3.6,9.64-6.93,15.29-8.79,3.26-1.07,6.69-2.35,10.3-.93.88.35,1.61-.17,1.99-1.21-.6-1.2-1.79-1.51-2.99-1.88Zm-18.25,1.46c.06-.01.13.05.19.08v.17c-.13-.03-.26-.06-.39-.09.06-.06.12-.14.2-.16Zm-47.4,8.47c3.49.84,7.15,1.02,10.73,1.51,1.12.16,2.25.64,3.34.53,4.6-.45,9.31-.46,13.62-2.49,4.39-2.08,8.76-4.21,13.15-6.28,1.75-.83,3.52-1.68,5.77-1.11-7.44,4.28-14.63,8.55-21.96,12.58-5.26,2.89-11.05,4.43-16.92,5.57-2.33.45-4.75.63-7.13.63-6.68-.02-13.04-1.73-19.28-3.98-1.43-.52-2.32-1.44-1.97-3.08.62-2.89,1.3-5.78,2.01-8.92,1.29.23,2.31.32,3.26.6,5.13,1.48,10.19,3.2,15.38,4.44Zm-.17-30.78c3.03,0,5.99-.18,8.92-1.12,4.86-1.57,8.96-4.3,12.64-7.72,4.53-4.2,9.46-7.8,15.01-10.54.36-.18.79-.22,1.19-.32.31-.21.62-.41.94-.62.07.14.14.28.21.41-.34.11-.69.22-1.04.33.04,1-.66,1.37-1.37,1.89-2.35,1.69-5.07,2.93-6.97,5.54,2.37.23,3.56-1.85,5.79-2.28-.18.69-.19,1.4-.52,1.88-4.19,5.93-8.16,12.05-12.75,17.66-4.13,5.06-8.66,9.85-14.61,13.01-4.03,2.14-8.22,3.77-12.69,4.64-2.62.52-5.28.92-7.95,1.15-1.07.09-2.26-.28-3.27-.72-1.63-.71-2.03-3.24-.8-4.56.54-.57,1.24-1.01,1.9-1.53-2.43-1.29-2.36-1.3-2.61-3.96-.13-1.42-.53-2.82-.86-4.22-.41-1.75.33-3.99,1.96-4.38,4.04-.96,7.38-3.78,11.57-4.23,1.77-.19,3.54-.31,5.31-.31Zm16.84-62.5c-.19,1.98-.32,3.98-.6,5.96-.32,2.24-.85,4.45-1.16,6.69-.5,3.49-.79,7-1.34,10.48-1.18,7.46-2.72,14.82-6.52,21.49-3.13,5.49-6.98,10.39-12.24,14.03-3.31,2.3-6.71,4.46-10.55,5.8-.68.24-1.37.53-2.06.59-2.03.17-2.09.07-2.87-1.97-.54-1.44-1.15-2.86-1.98-4.89,1.15-.69,2.21-1.55,3.43-2.03,7.17-2.83,12.9-7.6,17.86-13.35,2.56-2.98,4.41-6.47,6.1-10.03,4.4-9.25,6.48-19.3,10.08-28.83.51-1.33.96-2.68,1.85-3.94Zm-28.85,36.06c3.66-2.46,6.63-5.6,9.3-9.07,4.38-5.7,8-11.83,11.04-18.33.97-2.09,1.05-2.05,3.48-2.59-1.28,4.23-2.52,8.28-3.74,12.33-1.54,5.13-3.31,10.18-5.73,14.96-2.32,4.56-5.18,8.77-8.87,12.35-4.05,3.95-8.87,6.77-14.05,8.96-2.02.85-3.29.32-4.65-1.65-1.64-2.37-3.29-4.73-5.02-7.22,1.03-.63,1.76-1.24,2.61-1.58,5.49-2.18,10.72-4.84,15.63-8.16Zm-30.57-11.22c1.72-1.5,3.81-2.63,5.33-4.29,2.3-2.53,4.49-5.23,6.27-8.13,3-4.88,4.75-10.26,5.49-15.97.12-.88.64-1.73,1.06-2.55,1.21-2.32,2.04-4.74,2.12-7.38-.01-.42-.07-.85-.01-1.26.29-2.1.62-4.2.95-6.42,1.3,1.58,1.19,3.91-.24,7.66v3.49c1.21-1.12,1.52-1.83,2.01-4.57,1.11,1.9.89,3.64.58,5.69-.67,4.51-1.59,8.92-3.28,13.15-.95,2.39-2.03,4.73-3,7.12-.41,1.02-.68,2.09-1.22,3.8,3.45-3.86,6.14-9.15,8.81-18.96,2.03,2.75,2.13,8.13,1.19,11.56.56.18,1.13.35,1.67.52.61,4.29-.32,8.04-2.89,11.51-1.66,2.23-2.87,4.79-4.24,7.22-.23.42-.28.95-.42,1.47,1.3.12,1.5-.89,1.96-1.56.53-.77,1.01-1.57,1.54-2.34.52-.78,1.06-1.54,1.6-2.3.52-.74,1.05-1.48,1.96-2.75-.34,3.4-.95,6.1-1.98,8.65-1.83,4.56-4.23,8.78-7.88,12.22-1.53,1.44-3.34,2.09-5.27,2.44-1.68.3-3.18-.03-4.52-1.48-2.69-2.93-6.11-4.97-9.47-7.06-1.14-.7-2.18-1.56-3.22-2.31.73-3.29,2.92-5.26,5.1-7.17Zm-16.75-48.39c3.47,4.27,7.22,8.35,9.96,13.15,2.64,4.6,4.43,9.52,4.9,14.86.17,1.96.51,3.91.58,5.87.19,4.93-.98,9.65-2.59,14.24-.6,1.73-1.74,3.3-2.76,4.85-.29.43-1.05.76-1.59.76-1.12,0-2.27-.15-3.36-.43-1.78-.46-3.52-1.09-5.58-1.74.11-.83,0-1.57.31-2.03,2.53-3.63,3.88-7.8,4.59-12.03.91-5.3,1.18-10.65.41-16.14-.89-6.36-3.27-12.09-5.71-17.87-.74-1.74-1.39-3.52-2.19-5.58,1.75.19,2.37,1.28,3.03,2.09Zm-2.99-3.74c-.04.32-.07.64-.12.95,0,.01-.18.01-.18-.01-.05-.31-.09-.62-.13-.93.14,0,.28-.01.43-.01Zm-4.42-1.96c-1.18-1.03-1.25-2.41-1.25-3.82-.2-.64-.4-1.29-.6-1.93-.24-.53-.49-1.05-.73-1.57.19-.06.37-.12.56-.18.08.56.16,1.12.24,1.68.23.62.45,1.25.67,1.87,1.25.98,1.22,2.39,1.29,3.78,1.02.59,1.49,1.39.97,2.56-1.13-.47-1.1-1.45-1.15-2.39Zm2.08,5.66c-.3-.74-.61-1.49-.91-2.24.28-.1.56-.21.84-.31.25.77.49,1.55.73,2.32-.22.08-.44.15-.66.23Zm3.92,25.52c.82-8.67-1.02-16.72-3.58-24.82.24-.06.48-.13.72-.19.86,1.84,1.87,3.62,2.54,5.52,1.49,4.26,3.07,8.52,4.15,12.9,1.21,4.95,1.36,9.98.57,15.15-.64,4.14-1.84,8.01-3.37,11.84-.54,1.32-1.22,2.63-2.05,3.79-.81,1.13-1.86,1.88-3.47,1.03-.96-.49-2.15-.55-3.51-.87,4.52-7.86,7.17-15.66,8-24.35Zm-39.74-20.49c-2.29-2.57-4.57-5.16-6.64-7.91-1.74-2.29-3.17-4.83-5.15-7.91,1.23.39,1.82.41,2.17.71,3.37,2.81,6.72,5.66,10.04,8.53,2.41,2.09,4.06,4.74,5.51,7.55,1.52,2.94,3.08,5.86,4.64,8.78.07.15.34.2.62.36.73-.53.51-1.12.18-1.83-1.05-2.24-2.07-4.5-3.04-6.78-.28-.65-.36-1.39-.52-2.09-.22-.3-.43-.61-.64-.91.14-.08.28-.15.41-.23.12.35.23.69.34,1.04,1.97,1.81,2.71,4.33,3.75,6.66.76,1.69,1.24,3.54,2.9,4.74.55-1.13.01-2-.33-2.97-.81-2.32-2.13-4.52-1.95-7.11-.15-.07-.3-.13-.46-.2.08-.09.16-.18.24-.27.08.15.16.3.24.46,4.19,2.05,7.46,5.11,10.46,8.68,3.4,4.04,5.99,8.45,7.88,13.33,1.3,3.39,2.11,6.92,2.49,10.49.44,4.13-1.14,7.76-3.82,10.84-.69.79-1.91,1.49-2.92,1.56-3.85.23-7.59.88-11.3,1.87-1.19.32-2.44-.31-2.97-1.63-.84-2.09-1.81-4.16-1.77-6.53.07-4.11.04-8.23.04-12.34.01-10.31-3.59-19.21-10.4-26.89Zm-21.49,112.86c-.82-2.99-1.79-5.93-1.74-9.11.03-1.43-.56-2.87-.49-4.29.49-10.98,3.28-21.26,10.06-30.1,5.91-7.71,13.03-13.93,22.28-17.61,3.86-1.54,7.78-2.86,11.79-3.44,3.18-.47,6.52-1.73,9.85-.27.53.23,1.25.04,1.88.03,5.03,0,9.77,1.32,14.52,2.88,4.78,1.58,9.11,3.91,13.1,6.91,5.24,3.94,9.54,8.7,13.05,14.25,3.14,4.97,4.88,10.44,6.36,16.03.9,3.44,1.16,6.99.89,9.87.32,9.31-1.92,17.32-6.04,24.79-1.95,3.55-4.29,6.85-7.1,9.85-2.79,2.98-5.77,5.68-9.13,7.93-6.15,4.12-12.8,7-20.15,8.32-3.8.69-7.59,1.46-11.44,1.06-3.58-.37-7.16-.99-10.65-1.84-6.46-1.58-12.56-3.98-18.04-7.92-3.68-2.66-6.89-5.76-9.64-9.29-4.21-5.42-7.54-11.36-9.36-18.05Zm14.39,43.88c-5.37,4.1-8.9,9.52-10.37,16.22-.87,3.94-1.52,7.9-1.9,11.92-.38,4.03-.71,8.07-1.3,12.07-.42,2.93-1.22,5.81-2.01,9.4-1.49-3.95-1.22-7.3-.84-10.65.09-.82.31-1.64.33-2.46.06-3.23.69-6.37,1.18-9.54.35-2.25.07-4.6.07-7.05-2.15,1.22-.88,3.36-1.63,4.94-.77,1.6-.57,3.64-.84,5.49-.26,1.74-.57,3.47-.92,5.62-1.14-1.53-1.49-2.89-1.65-4.33-.35-3.27.47-6.43.86-9.63.2-1.64.41-3.27.38-4.96-2.03,2.5-1.84,5.82-3.68,8.54-.44-1.74-1.13-3.47-1.28-5.24-.37-4.22-.88-8.38-.23-12.72.76-5.1,2.04-9.93,4.42-14.42,1.96-3.67,4.33-7.13,7.43-9.98.65-.59,1.59-1.25,2.38-1.24,2.69.06,4.01-1.33,4.6-3.99.53.33,1.01.51,1.32.84,2.92,3.17,6.4,5.68,9.88,8.18,1.41,1.01,1.44,1.13.67,2.82-.86,1.89-1.62,3.85-2.74,5.58-1.11,1.71-2.4,3.26-4.13,4.59Zm24.75,59.32c-2.18-2.48-4.52-4.75-6.38-7.36-2.95-4.13-5.85-8.34-8.28-12.78-2.11-3.86-3.53-8.09-4.62-12.4-1.69-6.69-1.71-13.54-1.11-20.28.39-4.44,2.03-8.79,3.33-13.12.43-1.42,1.51-2.65,2.36-4.06,2.66,1.11,5.01,2.09,7.65,3.2-.28.98-.43,2-.86,2.88-2.67,5.57-4.26,11.39-4.45,17.58-.04,1.33-.59,2.67-.51,3.99.49,7.54,1.56,14.97,4.37,22.08,2.32,5.88,5.19,11.5,7.98,17.15.43.86,1.39,1.7.52,3.12Zm.86-48.49c-1.06,3.25-1.79,6.57-1.84,10.03-.02,2.06-.49,4.12-.53,6.19-.13,6.04.97,11.93,2.27,17.82,1.11,5.03,2.34,10.01,3.98,14.89.19.58.08,1.26.11,1.89.24.52.47,1.05.71,1.57-.18.06-.36.12-.55.18-.1-.54-.2-1.08-.3-1.62-2.5-4.86-5.18-9.63-7.45-14.6-1.97-4.29-3.57-8.76-5.15-13.21-1.03-2.91-1.51-5.96-2.04-9.02-.71-4.1-.61-8.17-.41-12.22.22-4.2,1.24-8.34,2.66-12.33.52-1.45,1.12-2.87,1.64-4.32.58-1.6,1.68-2.29,3.38-2.15,2.96.25,5.91.48,8.75,1.51-1.8,5.28-3.58,10.31-5.23,15.39Zm32.68,29.89c-.34-.46-.68-.91-1.01-1.36.14-.12.27-.23.41-.34.36.42.73.83,1.09,1.25-.16.15-.33.3-.49.45Zm2.21-10.39c4.33,5.71,8.58,11.49,12.84,17.25.29.4.39.94.57,1.41.18.34.37.68.55,1.03-.14.05-.28.11-.41.17-.1-.36-.19-.71-.29-1.06-1.16-.65-2.3-1.35-3.5-1.93-4.21-2.01-7.75-4.75-10.49-8.61-1.11-1.56-2.8-2.71-4.25-4.04.36,1.18.71,2.37,1.14,3.81-1.77-.26-2.2-2.05-3.81-2.6-.24.31-.58.74-.92,1.18-11.88-4.73-21.89-19.13-20.36-36.55.54.37,1,.69,1.59,1.09.28-1.23.51-2.41.81-3.57.47-1.86,1.48-2.6,3.62-2.71,2.56-.12,3.12.14,3.86,2.24.75,2.12,1.38,4.28,2.22,6.95,1.01-2.8,0-4.89-.43-6.98-.46-2.22-.51-2.29,1.33-3.06,1.17-.48,2.16-.06,2.92,1.33.4.72.67,1.51,1.03,2.26.86,1.76,1.61,3.59,2.65,5.25,1.2,1.91,1.73,3.86,1.86,6.14.45,7.69,2.74,14.78,7.47,21Zm36.95-.15c-2.08-.48-4.32-.35-6.5-.66-5.62-.78-10.78-2.76-15.71-5.42-4.9-2.64-9.17-6.22-13.05-10.11-4.63-4.63-8.73-9.78-11.58-15.78-.31-.65-.72-1.31-.79-2-.18-1.85-.01-2.43,1.5-3.01,1.73-.67,3.36-1.61,5.1-2.25,1.57-.58,2.13-.29,2.93,1.32,1.06,2.13,2.02,4.3,3.03,6.45,2.19,4.67,5.28,8.73,8.82,12.4,3.77,3.91,8.21,6.98,13.05,9.53,6.68,3.53,13.73,6.17,20.81,8.75.76.28,1.51.59,2.27.88-3.44.18-6.64.66-9.88-.1Zm11.73,1.03c-.32-.05-.65-.09-.98-.14,0,0,0-.17.01-.17.33-.04.65-.06.98-.09,0,.13,0,.26-.01.4Zm-29.66-31.22c3.33,6.07,8.07,10.92,13.1,15.49,3.69,3.35,7.94,5.99,12.39,8.24,3.04,1.54,6.17,2.91,9.23,4.41,1.29.64,2.53,1.4,3.76,2.17.61.38.56.44.54,2.32-2.71-1.09-5.34-2.17-7.98-3.21-8.35-3.25-16.83-6.18-24.85-10.18-7.81-3.89-14.2-9.51-18.78-16.95-2.04-3.32-3.6-6.96-5.19-10.53-.86-1.94-.4-2.93,1.35-4.13,2.73-1.88,5.47-3.74,8.68-5.93.35,1.36.53,2.59.98,3.7,2.01,4.98,4.17,9.88,6.77,14.6Zm36.48-12.89c1.97.3,3.91.45,5.88.55,3.64.2,7.28.35,10.92.64,1.21.1,2.39.55,3.66.86-.83.49-1.62.95-2.51,1.47.16.59.31,1.18.53,1.99-1.95.63-3.95,1.51-6.04,1.88-2.55.46-5.18.8-7.75.64-3.38-.21-6.73-.96-10.11-1.44-2.84-.4-5.7-.73-8.58-.87,5.32,2.19,10.84,3.4,16.53,3.94-5.25,1.43-10.13-1.4-15.63-1.55,1.14,1.5,2.6,1.52,3.84,1.96,1.62.46,3.23.92,5.27,1.5-2.2.7-3.75.12-5.25-.78-3.69-.92-7.38-1.84-11.07-2.75-1.07-.26-2.16-.46-3.24-.68-.05.2-.11.4-.16.6,2.9,1.21,5.8,2.42,8.7,3.62-6.03.02-11.54-1.87-16.59-4.83-5.16-3.03-9.81-6.73-11.04-13.72.53-.66,1.42-1.79,2.32-2.9.93-1.13,1.89-2.22,2.8-3.36,1.33-1.66,1.97-1.87,4.01-.86,3.72,1.82,7.58,3.2,11.62,4.12.6.14,1.21.24,1.81.35,1.64.31,3.1.83,4.42,2.02,4.48,3.99,9.59,6.69,15.66,7.6Zm24.96-25.72c-7.13,5.37-14.49,10.32-23.1,13.07-2.85.91-5.75,1.47-8.73,1.91-7,1.02-13.4-1.13-19.91-3.24h7.21c-1.84-1.4-3.33-1.94-5.02-1.93-2.11,0-4.22.05-6.32,0-2.14-.04-2.89-.92-2.36-2.99.27-1.08.83-2.12,1.41-3.08.98-1.65,1.73-1.85,3.69-1.25,2.65.8,5.3,1.61,7.96,2.37,2.29.66,4.61,1.12,7.02,1.16,2.06.04,4.14.61,6.19.53,10.07-.43,19.52-2.98,28.14-8.41,3.84-2.43,7.8-4.67,11.8-6.84,2.82-1.52,5.76-2.79,8.68-4.1.61-.27,1.38-.19,2.08-.27-6.82,3.75-12.71,8.51-18.74,13.06ZM1.13,585.66v1.57c.81.13,1.64.25,2.49.39-.55-.78-1.31-1.4-2.49-1.96Z"/><path class="cls-8" d="m122.4,545.89c-.23,0-.47.01-.7.02,0-.42-.07-.85-.02-1.26.3-2.1.62-4.2.96-6.42,1.3,1.58,1.19,3.91-.24,7.65Z"/><path class="cls-8" d="m143.19,695.46c0-.24-.02-.48-.02-.71,1.62.46,3.24.92,5.27,1.49-2.21.71-3.75.12-5.25-.78Z"/><path class="cls-8" d="m47.5,674.02c-1.59.42-2.73-.19-3.67-1.19-3.23-3.42-6.47-6.83-9.63-10.32-.72-.8-1.47-1.77-.99-3.46,4.75,5.21,9.15,10.4,14.29,14.97Z"/><path class="cls-8" d="m52.6,614.5c3.84-1.56,7.59-.57,11.37-.32-.63.23-1.3.74-1.88.65-3.08-.49-6.24,1.88-9.5-.33Z"/><path class="cls-8" d="m56.07,610.59c3.74-2.47,7.82-2.96,12.14-2.12-4.05.71-8.09,1.41-12.14,2.12Z"/><path class="cls-8" d="m106.62,605.7c2.41,1.84,4.47,3.36,4.98,6.34-2.9-1.07-4.15-2.6-4.98-6.34Z"/><path class="cls-8" d="m84.57,680.26c-2.51,2-4.82,2.81-7.52,2.28,1.63-1.94,3.16-2.45,7.52-2.28Z"/><path class="cls-8" d="m101.09,677.76c1.3-2.1,2.68-3.89,5.01-4.59.89,1.05.23,1.76-.48,2.38-.62.54-1.3,1.06-2.03,1.41-.78.37-1.66.54-2.5.8Z"/><path class="cls-8" d="m67.05,618.07c-3.21.46-6.43.93-10.31,1.49,1.79-1.8,3.38-2.13,5.11-2.12,1.67,0,3.34,0,5.01,0,.06.21.12.42.19.63Z"/><path class="cls-8" d="m58.66,552.71c-.05-.07-.16-.14-.15-.2,0-.06.11-.12.18-.18.06.07.16.14.15.2,0,.06-.12.12-.18.18Z"/><path class="cls-8" d="m156.84,628.19c-4.41,4.05-13.03,7.63-17.27,7.28,5.61-2.79,11.27-5.44,17.27-7.28Z"/><path class="cls-8" d="m15.86,707.21c-1.02-2.79.46-4.66.8-6.67.09-.55.77-1,1.41-1.37-.2,2.65-.39,5.24-2.2,8.05Z"/><path class="cls-8" d="m22.91,685.83c.33,2.68-1.76,4.21-2.96,6.73-.61-3.39.68-5.3,2.96-6.73h0Z"/><path class="cls-8" d="m22.91,685.83c.07-.16.15-.31.22-.47.08.09.16.17.24.26-.16.07-.31.14-.47.21h0Z"/><path class="cls-8" d="m117.89,585.16c-.21-1.42.14-2.75,1.03-3.79,1.23-1.44,1.65-3.56,3.64-4.55-.13,2.4-2.05,5.74-4.7,8.32l.03.03Z"/><path class="cls-8" d="m117.86,585.13c-.1.18-.19.35-.29.53.1-.17.21-.33.31-.5,0,0-.03-.03-.03-.03Z"/><path class="cls-8" d="m78.58,722.6c-4.05-3.02-5.51-7.52-6.91-12.06-.23-.74-.33-1.51-.65-3.02.77.8,1.13,1.04,1.29,1.37,1.03,2.12,1.99,4.29,3.04,6.4.74,1.47,1.66,2.85,2.37,4.33.44.9.64,1.92.94,2.89l-.09.09Z"/><path class="cls-8" d="m90.66,724.45c-2.42-2.05-3.49-4.99-5-7.63-.68-1.2-.98-2.63-1.53-4.17,2.37.67,2.63,2.79,3.46,4.21,1.37,2.33,3.3,4.58,3.04,7.61l.02-.02Z"/><path class="cls-8" d="m91.93,732.04c-.17-.09-.34-.17-.52-.26.16.1.32.19.49.29l.03-.03Z"/><path class="cls-8" d="m90.64,724.47c.16.07.31.14.47.21l-.24.25c-.07-.16-.14-.32-.21-.48l-.02.02Z"/><path class="cls-8" d="m79.27,723.17c.16.08.32.16.48.23l-.26.28c-.08-.16-.17-.32-.25-.48l.03-.03Z"/><path class="cls-8" d="m79.24,723.21c-.22-.2-.44-.41-.65-.61l.09-.09c.2.22.4.44.6.67l-.03.03Z"/><path class="cls-8" d="m14.63,602.93c-.2-.03-.47.02-.6-.09-2.12-1.87-4.23-3.75-6.34-5.64l.05-.05c1.31-.31,2.08.63,2.98,1.28,1.65,1.18,3.41,2.25,4.03,4.38l-.12.12Z"/><path class="cls-8" d="m7.07,596.55c-.36-.03-.72-.07-1.09-.1.05-.16.1-.32.15-.47.32.19.63.38.95.56h-.01Z"/><path class="cls-8" d="m15.27,603.56c-.21-.21-.43-.42-.64-.63l.12-.12c.21.21.42.43.63.64l-.11.11Z"/><path class="cls-8" d="m17.21,605.41c-.16-.09-.32-.17-.48-.26.09-.08.19-.17.28-.25.07.17.14.34.21.5,0,0,0,0,0,0Z"/><path class="cls-8" d="m17.22,605.4c.21.22.41.43.62.65l.02-.02c-.22-.21-.43-.41-.65-.62h0Z"/><path class="cls-8" d="m17.83,606.05l.63.64.02-.02c-.21-.21-.42-.42-.64-.63l-.02.02Z"/><path class="cls-8" d="m7.09,596.54c.22.2.43.41.65.61l-.05.05c-.21-.22-.41-.43-.62-.65h.01Z"/><path class="cls-8" d="m15.37,603.45c.16.09.32.18.48.28-.09.1-.19.2-.28.29-.1-.15-.21-.31-.31-.46l.11-.11Z"/><path class="cls-8" d="m18.46,606.69l.47.19-.23.25c-.07-.16-.15-.31-.22-.47l-.02.02Z"/><path class="cls-8" d="m10.79,663.52c-.15.68-.1,1.23-.35,1.46-3.02,2.86-6.06,5.7-9.17,8.47-.04.04-.09.07-.14.1v-2.34c2.77-2.91,5.68-5.72,9.66-7.69Z"/><path class="cls-8" d="m20.82,675.82c-2.02,2.59-4.87,3.53-7.85,4.2,1.99-2.64,4.87-3.52,7.85-4.2Z"/><path class="cls-11" d="m258.29,319.84c-1.06-2.18-2.43-4.2-3.72-6.39.72-2.19,1.89-4.45,2.13-6.81.64-6.21.14-12.3-3.98-17.5-1.05-1.32-1.54-2.91-1.08-4.5,1.28-4.4.57-8.86.68-13.29.03-1.07-.27-2.17-.49-3.24-1.18-5.98-3.74-11.23-7.58-16.03-4.42-5.54-9.88-9.47-16.33-12.13-3.63-1.49-7.39-2.32-11.39-2.37-3.5-.04-6.89.26-10.36.68-3.44.42-6.32,2.27-9.84,2.94-2.1-10.23-8.36-16.86-18.15-20.26.38-1.65.95-2.95.93-4.25-.07-4.55.49-9.08-.58-13.66-1.64-7.07-4.46-13.32-9.58-18.62-6.47-6.71-14.3-7.55-22.78-5.9-4.64.9-8.72,3.09-12.28,6.24-1.42,1.26-2.99,2.36-4.63,3.64-2.71-4.65-6.21-8.26-10.71-11.1-6.6-4.16-13.87-5.25-21-3.46-10.36,2.61-17.41,10.08-19.04,21.42-.22,1.49-.61,2.29-1.96,3.13-5.53,3.42-9.13,8.28-10.96,14.64-.77,2.69-.15,5.38-.89,8.19-4.41-.11-8.37,1.26-12,4.05-1.09-1.42-1.95-2.79-3.05-3.92-8.27-8.56-18.27-11.51-29.83-8.78-2.43.57-4.75,1.81-6.98,3.01-4.53,2.45-8.1,5.93-10.67,10.44-.29.5-.61,1-1.04,1.37v7.31s.02.04.03.06c-.01.01-.02.01-.03.02v2.28c.14-.08.27-.17.4-.26,1.82,2.02,3.23,3.91,4.96,5.44,7.66,6.77,18.42,3.02,21.61-5.57,1.35-3.67-.97-8.9-5.16-11.04.51.99.72,1.57,1.07,2.07,2.46,3.49,3.09,7.03.95,11.01-1.31,2.44-3.44,3.53-5.76,4.18-6.71,1.87-13.49-2.68-15.64-9.62-.93-3.01-.32-5.21,1.3-7.49,3.81-5.37,8.75-9.18,15.21-10.82,9.84-2.5,18.63-.59,26.09,6.48,1.85,1.76,3.98,3.38,4.67,6.08,1.82,7.12.42,13.55-4.23,19.24-1.82,2.24-4.11,3.89-6.71,5.11-.93.44-1.96.74-2.32,2.19,1.19-.39,2.45-.65,3.57-1.18,6.98-3.3,11.23-8.7,12.71-16.36.47-2.45.91-4.72,0-7.17-.64-1.71.64-2.75,1.96-3.57,2.44-1.51,6.38-2.33,10.28-2.14,3.08,6.81,7.02,12.62,15.83,12.19-.77-.36-1.52-.79-2.32-1.08-6.63-2.39-10.64-6.7-11.82-13.98-.97-5.97.76-10.71,4.23-15.24,2.29-2.99,4.95-5.52,8.68-6.32,9.4-2,17.34,1.59,20.12,11.75.39,1.4.54,2.87.8,4.3.23.03.47.04.71.06.01-.63-.05-1.26.05-1.87,1.5-9.1-8.97-16.98-16.56-16.83-1.59.04-3.19.01-5.25.01.45-1.95.77-3.69,1.26-5.36,2.46-8.32,8.42-13.43,16.42-15.21,7.87-1.75,15.71-.31,22.06,5.36,2.74,2.45,5.62,4.88,7.05,8.47.13.32.18.69.23,1.04.01.07-.16.18-.42.45-1.69-1.93-3.16-4.12-5.12-5.7-1.98-1.6-3.99-3.49-7.59-3.9.92.83,1.26,1.19,1.65,1.47,1.69,1.2,3.46,2.3,5.07,3.61,1.16.94.76,1.8-.92,2.27l-.08.08c.85,1.43,1.7,2.86,2.54,4.3,1.17,1.99,2.4,3.98,2.01,6.46-.07.41-.32.78-.52,1.26-2.37-2.35-2.52-5.97-5.45-7.61l-.06.06c.41,1.25.77,2.53,1.26,3.75.81,2.02,1.96,3.93,1.78,6.17-3.94,2.68-7.38-.67-11.75-.98,3.07,2.32,5.78,3.62,8.91,3.67,3.44.05,6.26-1.3,7.7-4.6.77-1.76,1.48-3.63,1.76-5.52.35-2.44,1.43-4.26,3.09-6.04,4.28-4.62,9.25-8.1,15.45-9.41,8.6-1.82,16.92-.04,22.8,7.97,3.81,5.17,6.04,10.91,7.09,17.01.75,4.31.64,8.88-.61,13.23-.29,1.02-.85,2.06-1.56,2.85-5.43,6.02-15.73,8.26-22.92,4.48-5.41-2.85-8.85-9.21-7.51-15.11,1.45-6.39,8.22-10.61,14.47-7.73,1.1.51,2.22.99,3.33,1.48l.11-.13c-.32-2.74-2.87-3.05-4.63-3.53-6.61-1.81-12.89,1.91-15.04,8.59-1.63,5.03-.32,12.14,4.96,16.1,5.42,4.05,11.15,5.16,17.61,3.6,3.04-.73,6.31,1.1,8.25,4.4.71,1.23,1.32,2.52,2.32,4.44.31-1.2.68-1.79.53-2.19-1.19-3.36-3.3-6-6.53-7.81.86-1.16,1.71-1.5,3.06-.62,3.36,2.2,6.08,4.97,8.09,8.45.3.52.74.97,1.17,1.38.1.1.43-.05,1.04-.14-1.9-5.19-4.81-9.23-10.49-11.18.92-.53,1.58-.91,2.04-1.17,8.43,2.65,12.61,8.58,13.64,17.09,2.18-8.03-1.11-12.68-12.93-18.52,1.41-.06,2.4-.39,3.15-.1,4.9,1.88,9.35,4.45,12.1,9.15,1.16,1.99,2.29,4.09,2.89,6.29,1.86,6.74-.29,12.76-4.13,18.22-4.91,6.98-12.08,8.75-20.09,8.03-1.64-.15-3.19-1.13-4.79-1.7-.65-.23-1.32-.37-2.38-.66,1.54,2.86,4.09,3.36,6.32,3.8,4.68.92,9.37.85,13.86-1.3,3.57-1.72,7-3.54,9.09-7.09,2.9-4.95,7.42-7.21,12.91-7.97.82-.11,1.59-.54,2.45-.84-3.18-1.91-3.9-1.81-10.63,1.49-.72-1.03-.36-1.86.54-2.49,4.91-3.45,10.16-5.29,16.21-3.43.65.2,1.42.03,2.38.03-4.37-3.72-11.46-3.33-18.26.86-.49-.92-.87-1.64.44-2.27,7.05-3.39,14.52-4.52,22.21-3.67,3.72.42,7.37,1.58,10.71,3.42,5.88,3.23,10.9,7.45,14.57,13.13,3.38,5.23,5.37,10.92,5.43,17.21,0,1.12-.1,2.26.02,3.36.64,5.6-2.24,9.31-6.48,12.32-1.99,1.41-3.84,3.2-6.04,4.14-6.23,2.63-12.45,2.7-18.02-1.71-3.66-2.89-5.97-6.88-5.22-11.57.79-4.97,3.74-8.74,8.75-10.49,1.19-.41,2.42-.71,4.11-1.19-7.23-.73-12.62,3.46-14.61,9.59-2.29,7.06,2.98,15.85,10.7,18.39,4.8,1.58,9.68,1.38,14.35-.77,1.99-.91,3.89-2,5.8-2.99,2.45,3.17,2.96,6.76,3.03,10.64,2.48-2.29,1.69-7.32-1.6-11.68.32-.34.65-.68,1.07-1.12,4.26,5.41,4.71,11.29,2.6,17.62,1.3.59,1.8-.24,2.16-.94,2.07-3.95,2.04-7.99.08-11.95-1.01-2.05-2.3-3.98-3.57-6.14.41-.39.94-.9,1.45-1.4.31.14.58.18.69.33,2.1,3,4.02,6.06,4.76,9.78.81,4.09.42,7.97-.95,11.89-.81,2.29-2.41,3.59-4.29,4.81-4.45,2.89-9.14,3.85-14.33,2.28-4-1.19-6.59-3.62-7.74-7.62-.06-.21-.25-.4-.42-.57-.07-.07-.23-.04-.5-.09-.83.74-.64,1.73-.25,2.58,2.26,4.93,6.06,7.94,11.49,8.51,4.78.51,9.24-.57,13.18-3.48.58-.43,1.3-.66,1.95-.99,2.17.97,2.77,3.12,3.64,4.94,3.21,6.68,3.41,13.35-.36,19.99-2.66,4.68-6.61,7.77-11.45,9.85-.65.27-1.44.38-2.15.34-7.06-.45-13.82-1.99-19.23-6.86-4.42-3.98-7.21-8.94-7.06-15.16,0-.37,0-.75-.03-1.12-.01-.11-.11-.21-.27-.51h-1.5c-.12.28-.3.49-.31.71-.12,9.66,4.36,16.58,12.7,21.14,3.34,1.83,6.78,3.33,10.71,3.39.9.02,1.79.63,3.01,1.09-8.08,8.24-17.53,12.2-28.68,10.66-10.29-1.42-22.18-10.3-23.82-17.41,1.16.79,1.99,1.34,2.82,1.9l.1-.12c-.36-1.12-.72-2.24-1.17-3.65,0-.01.34-.36.78-.85,3.46,4.04,7.34,7.39,12.72,8.2,1.24.19,2.78.57,3.94-1.11-2.34-.59-4.61-1.07-6.81-1.75-3.52-1.1-6.16-3.51-8.49-6.24-.32-.39-.04-1.29-.04-2.44,3.18,2.56,6.04,4.86,9.78,5.45.85.13,1.71.17,2.57.15.26-.01.52-.37,1.15-.85-2.21-.75-4.14-1.31-5.97-2.07-1.57-.65-3.12-1.42-4.52-2.37-1.53-1.03-2.04-2.3-1.49-4.43.95-3.69,1.04-7.57-.3-11.27-1.9-5.26-5.43-9.3-10.82-10.7-6.39-1.66-13.99.35-16.92,7.6-1.79,4.44-.1,10.06,4.39,11.72,2.14.79,4.03.75,6.47-.96-1.64,0-2.75.1-3.84-.03-2.2-.24-3.74-1.25-4.72-3.45-2.74-6.19,2.61-12.66,8.75-12.98,7.49-.4,12.42,4.08,14.48,11.05,1.88,6.35-.55,11.83-4.28,16.67-4.69,6.08-11.59,8.45-18.74,10.46-3.67,1.04-7.04-.01-10.53-.21-.8-.05-1.53-1.38-2.29-2.13-.18-.09-.37-.18-.55-.27.11-.1.22-.19.32-.29.08.18.16.36.25.55,2.85,0,5.72-.13,8.56.05,2.7.17,4.97-1.13,7.42-1.77.72-.19,1.26-1.08,1.69-2.08-2.41.66-4.79,1.51-7.25,1.93-3.75.65-7.52.77-11.32-.23-1.45-.38-1.32-1.37-1.9-2.24,4.91.95,9.66,1.48,13.84-2.2-1.41.31-2.8.79-4.22.87-2.54.15-5.11.24-7.64,0-4.23-.37-5.89-4.03-8.1-6.88-1.04-1.35-1.87-2.86-2.92-4.5,1.9-.12,3.59-.19,5.42.31,2.21.6,4.55.77,6.86.94.57.04,1.19-.64,2.02-1.13-10.61-20.91-21.15-41.65-31.76-62.55,2.56-.96,5.73.45,7.62-2.65-2.25.27-4.29.45-6.3.77-2.27.37-3.46-.63-3.86-2.78q8.06-.31,10.34-2.01c-.59-.17-1.08-.51-1.38-.38-2.61,1.15-5.36.57-8.04.68-2.07.08-3.25-.91-3.44-3.01-.18-.09-.35-.19-.53-.28.1-.09.2-.18.31-.27.07.18.15.36.23.55,1.05.24,2.12.42,3.16.73,3.88,1.13,7.75,1.2,11.6-.04,1.09-.35,2.07-1.03,3.11-1.56-.1-.27-.2-.53-.29-.8-2.2.55-4.38,1.42-6.6,1.54-2.28.13-4.67-.2-6.88-.81-2.18-.61-4.43-1.35-6.05-3.52.69.14,1.46.12,2.05.44,7.45,3.91,18.67,1.53,24.48-4.41,3.71-3.79,6.36-8.06,8.13-12.96.15-.42.02-.94.02-1.42-.94-.5-1.67-.65-2.12.51-.53,1.36-.96,2.79-1.7,4.03-2.65,4.43-5.68,8.52-10.24,11.27-5.46,3.3-11.12,3.77-17.01,1.52-2.54-.97-3.02-1.9-2.24-4.59,1.1-3.79.42-7.63.49-11.45.01-.56-.91-1.14-2.13-1.47,0,1.82-.05,3.64,0,5.46.23,7.99-2.18,15.13-6.61,21.72-5.46,8.11-12.97,13.02-22.4,15.29-3.56.86-7.1.66-10.9.71-.9-3.8-2.39-7.34-6.02-9.55-.22.37-.44.75-.69,1.18-2.19-1.32-3.7-3.99-7.34-3.54,1.53,1.56,2.78,2.82,4.02,4.09,6.67,6.81,6.54,18.42.05,25.27-4.79,5.06-10.7,7.39-17.48,7.08-5.44-.25-10.44-2.28-14.86-5.56-1.54-1.14-3.07-2.29-5.07-3.1.16.48.19,1.11.51,1.41,5.07,4.84,10.8,8.08,18.02,8.97,6.44.79,12.01-.63,17.2-4.23,5.81-4.04,8.91-9.57,9.02-16.7.02-.87,0-1.73,0-3.03,2.88-.02,5.7.1,8.49-.1,2.76-.2,5.51-.74,8.55-1.16.14.17.53.62,1.06,1.25-4.31,2.35-8.8,2.29-14.16,2.08,1.4.8,2.04,1.49,2.68,1.48,3.53-.05,7.16.87,10.55-1.01,1.29-.71,1.38-.56,2.91,1.05-2.15,2.45-3.87,2.73-12.47,2.02,2.13,2.46,8.07,2.61,13.7.28,2.88,5.04,5.78,10.11,8.97,15.69-3.43-.28-6.32-.69-9.2-.68-2.8.02-5.8-.79-8.6.84,6.56,10.18,12.84,19.9,19.26,29.85-4.81,1.88-9.2,1.62-13.63.43-1.04-.28-2.11-.38-3.18-.55.51,1.49,1.95,1.74,3.15,2.15,4.71,1.63,9.47,2.06,14.37-.1.69.87,1.35,1.7,2.05,2.6-5.29,2.04-10.54,2.6-15.79,1.99-6.98-.81-12.9-3.66-16.2-10.4-.51-1.04-1.09-2.05-1.99-3.74-.53,2.54.31,4.08,1.05,5.38,3.06,5.38,7.76,8.76,13.73,10.26,6.75,1.7,12.95.58,20.22-1.53.61,1,1.28,2.08,2.12,3.43-6.35,2.46-12.33,4.32-19.07,2.81-3.75-.83-7.25-1.86-10.5-3.89-4.69-2.91-7.54-7.27-9.56-12.19-1.68-4.08-2.7-8.37-2.34-12.88.07-.81-.12-1.65-.21-2.65-2.11,2.03-2.01,8.43.05,14.44,1.89,5.49,4.17,9.42,7.62,12.92-4.44,5.22-10.21,8.39-16.7,9.98-10.31,2.53-19.86.11-28.67-5.52-1.34-.86-2.5-2-3.75-2.99-1.47-1.16-1.06-2.84-.73-4.15,1.26-4.94.78-9.69-.85-14.43-1.19-3.44-3.1-6.39-5.81-8.79-.41-.37-1.08-.44-1.64-.65.75,1.36,1.5,2.72,2.24,4.09.81,1.48,1.6,2.97,2.4,4.46,3.12,5.82,2.67,11.72.68,17.79-1.18,3.57-3.78,5.93-6.55,7.81-5.81,3.94-12.17,4.3-18.57,1.8v2.53c2.62.96,5.39,1.16,8.22,1.15,6.86-.02,12.22-2.89,16.4-8.2.67-.84,1.32-1.7,1.91-2.46,8.1,7.14,16.74,10.83,27.18,10.74,10.62-.08,18.97-4.74,26.46-11.41,5.08,3.47,10.53,4.96,16.35,5.29,5.11.28,9.96-.67,14.63-2.77,1.63-.74,2.53-.38,3.41,1.11,2.19,3.71,4.34,7.44,6.47,11.11-6.94.36-13.72.72-20.49,1.05-1.24.06-2.54-.13-3.12,1.68,1.06,1.31,2.14,2.78,3.36,4.14,4.87,5.42,9.78,10.82,14.69,16.2,5.76,6.3,11.56,12.56,17.31,18.86,4.67,5.11,9.28,10.27,13.94,15.38,5.67,6.21,11.35,12.41,17.06,18.58,4.12,4.46,8.31,8.85,12.44,13.3,2.7,2.9,5.33,5.85,8.02,8.75,1.9,2.06,3.83,4.09,5.75,6.12.26-.51.51-1.02.77-1.54-.66-.98-1.21-2.05-1.98-2.92-2.53-2.88-5.14-5.68-7.72-8.51-5.08-5.57-10.15-11.16-15.23-16.72-5.42-5.94-10.86-11.85-16.28-17.79-5-5.48-9.96-10.98-14.97-16.45-6.11-6.66-12.24-13.29-18.37-19.92-3.7-4-7.46-7.94-11.12-11.97-1.35-1.49-2.5-3.15-3.91-4.93,4.98-.28,9.65-.57,14.31-.78,2.11-.09,4.23.02,6.35,0,.81-.02,1.62-.18,2.45-.27-.58-2.64-9.79-18.52-16.04-28.08-5.92-9.05-11.72-18.18-17.71-27.5,6.1-.72,11.59.7,17.81,1.36-2.02-5.3-4.86-9.39-7.24-13.71-2.4-4.34-4.91-8.63-7.5-13.17,1.05-.36,1.8-.63,2.52-.88,1.6,2.85,3.1,5.51,4.58,8.17,1.42,2.57,2.79,5.16,4.23,7.71,1.42,2.51,2.51,5.25,5.16,6.98-1.27-2.83-2.53-5.66-3.8-8.48-.14-.23-.27-.46-.41-.68.2.16.41.32.61.48.88.71,1.76,1.42,3.03,2.44-.36-2.51-1.52-4.05-2.41-5.72-1.35-2.53-2.54-5.15-3.8-7.73-.14-.22-.28-.45-.42-.67.2.16.41.32.61.48.87,0,1.19.52,1.58,1.25,1.3,2.49,2.74,4.91,4.15,7.35.26.44.62.82.94,1.22-1.39-5.98-4.47-11.14-7.18-16.66,5.42-4.56,9.8-9.7,12.73-16.22,12.87,23.41,24.77,46.88,36.5,70.93-1.64,0-2.74.08-3.82-.02-2.07-.18-4.13-.45-6.18-.72-.84-.11-1.67-.49-2.48-.44-.7.03-1.37.51-2.32.9,15.41,22.65,30.57,44.93,45.88,67.43-5.41.59-10.48,1.14-15.86,1.73.35,1,.48,1.7.81,2.28,3.18,5.5,6.42,10.95,9.59,16.46,3.23,5.61,6.36,11.27,9.58,16.88,5.41,9.4,10.83,18.79,16.28,28.16,3.99,6.85,8.08,13.63,12.04,20.49,1.52,2.63,2.81,5.39,4.2,8.09.14.22.28.44.42.67-.2-.17-.4-.33-.6-.49-.88-.27-1.76-.54-2.7-.82-1.02,2.83,1.14,4.12,2.66,5.23,1.97,1.43,3.26,3.26,4.63,5.14,1.51,2.08,3.23,3.95,6.04,5.79-.18-1.56-.02-2.6-.43-3.33-3.12-5.51-6.37-10.95-9.54-16.43-5.18-8.99-10.34-18.01-15.5-27.01-3.16-5.51-6.29-11.04-9.48-16.53-3.25-5.6-6.57-11.16-9.83-16.76-3.38-5.8-6.74-11.62-10.07-17.45-1.48-2.59-2.88-5.23-4.49-8.14,5.17-1.34,10.11-1.06,14.95-1.92.65-1.27.11-2.21-.66-3.3-4.43-6.31-8.76-12.69-13.13-19.03-3.48-5.04-7-10.05-10.44-15.11-1.83-2.7-3.52-5.48-5.44-8.47,10.6,1.66,19.35-2.19,27.56-7.92,1.61,2.08,2.89,4.03,4.47,5.68,1.7,1.78,3.57,3.43,5.56,4.87,9.39,6.79,19.65,8.98,30.89,5.53,5.86-1.8,10.87-4.98,15.18-9.34,1.2-1.2,2.51-2.5,4.03-3.13,5.19-2.14,9.32-5.54,12.14-10.28,4.22-7.1,4.65-14.58.99-22.09Zm-133.32-126.34c-.09-.2-.19-.4-.29-.6-.27-.48-.53-.96-.8-1.44-.19-.12-.38-.24-.56-.35.11-.12.23-.24.34-.36.12.2.23.39.35.58.23.52.47,1.03.7,1.54.19.1.38.19.57.28-.1.12-.2.23-.31.35Zm-50.16,88.15c.04-.39.07-.78.12-1.17,0-.01.21-.01.21.01.06.38.11.76.17,1.14-.17.01-.33.01-.5.02Zm31.51,12.95h.25c-.04.18-.09.35-.13.53-.08-.09-.2-.17-.24-.28-.02-.06.08-.17.12-.25Zm-4.26-14.96c.11.43.22.85.33,1.27,1.18.69,1.83,1.58,1.19,3-1.31-.57-1.37-1.68-1.38-2.82-.22-.41-.44-.82-.66-1.23.18-.07.35-.15.52-.22Zm2.55,11c1.19.67,1.83,1.56,1.2,2.98-1.31-.58-1.35-1.7-1.35-2.84-.24-.5-.49-1-.73-1.51-.24-.25-.48-.51-.73-.76-.25-.5-.5-1-.75-1.49-.25-.5-.51-.99-.76-1.48-.25-.5-.5-.99-.75-1.49-.24-.51-.48-1.01-.72-1.52-.26-.35-.52-.69-.78-1.04.17-.09.33-.18.49-.27.13.41.25.82.37,1.23.26.49.52.98.77,1.47.25.5.5,1,.75,1.49.25.51.49,1.01.73,1.51.25.5.5,1,.75,1.49.25.25.49.5.74.75.26.49.52.98.77,1.48Zm119.76,208.52c.08.08.16.17.24.26-.08.08-.17.16-.26.24.01-.17.02-.33.02-.5Zm-2.26-3.06c.07.08.15.17.23.26-.04.08-.08.17-.12.25-.12-.09-.24-.17-.36-.26.08-.09.17-.17.25-.25Z"/><path class="cls-1" d="m131.88,392.16c.55.35,1.19.62,1.63,1.07,6.71,6.95,13.44,13.88,20.05,20.92,4.47,4.76,8.82,9.64,13.1,14.57,5.65,6.49,11.17,13.08,16.76,19.62,3.2,3.74,6.41,7.47,9.6,11.21.43.51.76,1.1,1.56,2.3-1.14-.29-1.68-.27-1.91-.52-3.72-3.97-7.44-7.94-11.06-11.99-2.37-2.65-4.55-5.47-6.9-8.14-2.69-3.06-5.51-6-8.2-9.06-4.71-5.36-9.33-10.8-14.03-16.16-2.6-2.97-5.29-5.86-7.98-8.76-4.12-4.44-8.28-8.85-12.41-13.28-.31-.34-.51-.78-.76-1.18.18-.21.37-.42.55-.63Z"/><path class="cls-4" d="m176.69,397.21c-1.81-.34-2.67-1.58-3.52-2.94-5.95-9.5-11.95-18.98-17.95-28.44-3.2-5.05-6.42-10.08-9.69-15.08-.65-1-1.22-1.95-1.39-3.23.58.07.93,0,1.01.13,5.2,7.81,10.49,15.57,15.52,23.49,5.46,8.59,11.72,16.69,16.02,26.08Z"/><path class="cls-9" d="m193.35,454.27c-.73-.39-1.62-.62-2.15-1.19-5.21-5.6-10.37-11.25-15.52-16.9-2.33-2.55-4.62-5.14-6.9-7.73-1.96-2.22-3.9-4.45-5.81-6.7-.21-.25-.17-.71-.24-1.07l.15-.13c.72.4,1.61.64,2.15,1.22,5.72,6.14,11.43,12.3,17.06,18.53,3.46,3.84,6.8,7.79,10.15,11.73.53.62.8,1.45,1.19,2.18l-.06.06Z"/><path class="cls-4" d="m172.58,396.99c-1.95.13-2.83-.97-3.54-2.03-5.1-7.6-10.12-15.26-15.15-22.91-.04-.07.05-.22.16-.68.51.22,1.15.28,1.4.63,5.02,6.94,10.03,13.89,14.96,20.88.88,1.25,1.45,2.73,2.17,4.11Z"/><path class="cls-4" d="m135.2,304.04c.49.6,1.09,1.14,1.46,1.81,5.23,9.33,10.13,20.76,10.32,23.99-3.03-3.44-10.22-18.22-11.79-25.8Z"/><path class="cls-3" d="m97.41,311.87c7.61.57,14.76,3.11,22.17,5.34-.31.5-.55,1.06-.65,1.04-7.3-1.61-14.62-3.16-21.52-6.38Z"/><path class="cls-3" d="m115.98,320.39c-5.77-.85-10.94-2.12-16.44-4.71,4.75-.44,13.81,2.17,16.44,4.71Z"/><path class="cls-11" d="m206.8,483.36c-2.09-1.83-4.48-3.42-5.15-6.82.81.22,1.69.21,2.21.63,1.72,1.39,3.14,3.07,3.82,5.25-.29.32-.59.63-.88.95Z"/><path class="cls-11" d="m198.2,473.6c-3.8-2.33-4.28-3.11-3.67-5.89,3.82,2.35,4.29,3.11,3.67,5.89Z"/><path class="cls-11" d="m213.54,490.82c-1-.9-2.02-1.77-2.99-2.71-.98-.95-1.21-2.04-.29-3.51,2.09,1.7,4.34,3.03,4.22,6.1-.32.04-.63.08-.95.12Z"/><path class="cls-1" d="m124.73,384.7c2.52,1.24,4.09,2.83,5.23,5.28l-.09.08c-2.57-.92-4.22-2.78-5.26-5.24l.13-.13Z"/><path class="cls-9" d="m162.71,420.68c-1.72-1.55-3.82-2.78-4.45-5.26l.05-.05c2.7,1.13,3.99,2.59,4.54,5.17l-.15.13Z"/><path class="cls-2" d="m120.27,380.25c2.29.67,3.74,2.2,4.46,4.45l-.13.13c-2.26-.72-3.72-2.22-4.43-4.48l.1-.1Z"/><path class="cls-5" d="m200.23,473.9c.1,0,.24-.06.28-.02.35.33.77.64.99,1.05.1.19-.15.64-.35.89-.09.12-.61.1-.64.03-.21-.54-.35-1.1-.49-1.66-.02-.08.14-.19.21-.29Z"/><path class="cls-5" d="m213.54,490.82c.32-.04.63-.08.95-.12.44.27.89.53,1.31.84.04.03-.2.56-.25.55-.5-.09-1.03-.18-1.47-.42-.26-.14-.36-.56-.53-.85Z"/><path class="cls-4" d="m141.12,342.23c.54.54,1.08,1.08,1.97,1.97-2.4.26-1.84-1.11-1.97-1.97h0Z"/><path class="cls-4" d="m142.47,345.81c.42-.22.77-.55.95-.47.27.11.52.49.56.78.02.15-.49.54-.7.49-.27-.06-.46-.43-.81-.81Z"/><path class="cls-5" d="m191.12,466.18l.76-1.54c1.1.44,1.15,1.31.55,2.04-.52.64-1.06.18-1.31-.5Z"/><path class="cls-5" d="m206.8,483.36c.29-.32.59-.63.88-.95.65.41,1.08.93.32,1.54-.15.12-.79-.38-1.2-.59Z"/><path class="cls-4" d="m138.15,337.73c-.24-.36-.47-.72-.71-1.08.16-.07.33-.14.49-.22.06.44.13.88.19,1.32,0,0,.03-.03.03-.03Z"/><path class="cls-4" d="m140.38,341.48c-.25-.5-.49-1-.74-1.5l-.02.02c.25.5.5.99.75,1.49h0Z"/><path class="cls-2" d="m115.74,374.54c.39.78.8,1.27.7,1.46-.38.7-.61.29-.69-.23-.03-.23,0-.46,0-1.23Z"/><path class="cls-1" d="m129.96,389.98c.25.33.5.66.73,1.01,0,.01-.29.22-.44.34-.13-.42-.25-.85-.38-1.27l.09-.08Z"/><path class="cls-9" d="m193.41,454.21c.18.11.37.22.55.32-.11.1-.22.21-.34.31-.09-.19-.19-.39-.28-.58l.06-.06Z"/><path class="cls-9" d="m157.55,414.65c.25.24.51.49.76.73l-.05.05c-.24-.25-.49-.51-.73-.76l.02-.02Z"/><path class="cls-5" d="m217,493.69c-.16-.09-.31-.17-.47-.26.08-.08.18-.24.24-.22.17.04.32.15.48.23-.08.08-.16.16-.25.26Z"/><path class="cls-9" d="m157.53,414.67c-.24-.25-.49-.51-.73-.76,0,0-.02.02-.02.02.25.24.51.48.76.73,0,0-.02.02-.02.02Z"/><path class="cls-9" d="m156.8,413.91c-.18-.09-.37-.18-.55-.27.1-.09.21-.18.31-.27.07.19.15.37.22.56l.02-.02Z"/><path class="cls-2" d="m120.17,380.35c-.25-.25-.49-.5-.74-.75l.09-.09c.25.25.5.49.75.74l-.1.1Z"/><path class="cls-2" d="m119.43,379.6c-.25-.25-.5-.5-.75-.75l.09-.09c.25.25.5.5.75.75l-.09.09Z"/><path class="cls-2" d="m118.68,378.85c-.18-.11-.36-.22-.54-.33.11-.1.22-.21.33-.31.1.19.2.37.3.56l-.09.09Z"/><path class="cls-2" d="m114.99,374.34c.25.25.5.5.75.75-.25-.25-.5-.5-.75-.75Z"/><path class="cls-2" d="m114.99,374.34c-.25-.25-.5-.5-.75-.75.25.25.5.5.75.75Z"/><path class="cls-2" d="m114.24,373.59c-.25-.25-.5-.5-.74-.75h0c.25.25.5.5.75.75Z"/><path class="cls-2" d="m112.75,372.09c.25.25.49.5.74.75h0c-.25-.25-.5-.5-.75-.74h.01Z"/><path class="cls-2" d="m112.74,372.1c-.25-.25-.5-.5-.75-.75h0c.25.24.5.49.75.74h-.01Z"/><path class="cls-2" d="m112,371.35c-.19-.09-.38-.18-.57-.27.1-.1.2-.21.3-.31.09.19.18.38.28.56,0,0,0,0,0,0Z"/><path class="cls-4" d="m141.12,342.23c-.25-.25-.5-.5-.74-.75h0c.25.25.5.5.75.75,0,0,0,0,0,0Z"/><path class="cls-4" d="m139.64,339.98c-.19-.09-.39-.17-.58-.26.1-.11.2-.21.3-.32.08.2.17.4.25.6,0,0,.02-.02.02-.02Z"/><path class="cls-4" d="m138.12,337.76c.19.09.38.18.57.27-.1.1-.2.2-.3.29-.08-.2-.16-.39-.24-.59l-.03.03Z"/><path class="cls-5" d="m224.61,499.42c-.09.08-.18.16-.27.24,0-.17.02-.34.03-.51.08.09.16.18.24.27Z"/><path class="cls-6" d="m102.32,215.31c-.17.18-.35.35-.52.53l-.18-.58c.24.02.47.04.71.05Z"/><path class="cls-1" d="m156.13,304.08c.89.33,1.94.46,2.63,1.03,4.96,4.13,13.16,4.92,19.58,1.05,6.09-3.68,8.82-12.77,7.07-18.21-.88-2.72-1.89-5.23-3.44-7.58-.23-.35-.34-.78-.75-1.75,2.39.56,3.38,2.03,4.3,3.29,2.13,2.93,3.24,6.54,3.12,9.92-.13,3.75-1.06,7.7-3.52,10.9-2.43,3.17-5.45,5.39-9.28,6.88-7.49,2.92-13.54.23-19.35-4.08-.32-.24-.33-.88-.49-1.34l.13-.12Z"/><path class="cls-10" d="m169.94,222.23c1.61-5.2,3.1-9.95,2.57-15.01-.52-4.97-2.32-9.38-5.42-13.28-3.24-4.07-8.01-5.86-12.63-8.24,7.21-.64,14.66,5.2,18.86,14.13,3.41,7.27,1.73,18.75-3.37,22.4Z"/><path class="cls-9" d="m56.12,304.96c-5.1,1.66-15.91-1.86-21.25-6.64-5.8-5.2-10.03-11.21-10.69-19.45,1.31-.05,1.67.71,1.96,1.7,1.07,3.64,2.69,7.02,4.8,10.19,4.23,6.36,10.35,9.9,17.5,11.89,1.74.48,3.59.64,5.41.79,1.12.09,1.77.55,2.27,1.53Z"/><path class="cls-1" d="m89.57,275.95c2.16-.59,4.05-1.01,5.87-1.63,5.87-1.99,9.27-6.59,12.02-11.74,2.47-4.62,3.72-9.72,5.29-14.69.36-1.14.75-2.28,1.3-3.97.47.89.89,1.32.91,1.76.16,4.1-1.18,7.96-2.46,11.73-1.78,5.26-4.73,9.85-8.83,13.79-3.64,3.49-7.91,5.13-12.67,5.94-.19.03-.45-.18-.63-.33-.19-.15-.33-.36-.79-.86Z"/><path class="cls-4" d="m33.68,345.16c.8.24,1.77.26,2.37.75,4.19,3.45,9.11,5.34,14.33,5.92,7.74.85,15.08-.87,21.71-5.13.39-.25.78-.51,1.68-1.1-.17,1.02-.08,1.68-.36,1.96-3.13,3.11-7.11,4.72-11.26,5.77-2.35.59-4.84.72-7.28.8-6.58.23-12.37-2.4-17.94-5.49-1.33-.74-2.25-2.24-3.36-3.39,0,0,.11-.1.11-.1Z"/><path class="cls-9" d="m219.73,328.77c.34,1.09.72,2.16,1,3.26,1.57,6.27,5.81,10.2,11.67,12.03,2.67.83,5.89.48,8.74-.02,2.43-.43,4.98-1.14,6.99-2.95.38-.34,1.25-.13,2.14-.2-4.25,5.67-12.77,7.58-20.89,4.3-6.01-2.43-11.1-10.48-9.66-16.41Z"/><path class="cls-4" d="m16.74,321.57c5.97,3.76,8.24,9.39,7.85,16.16-.25,4.43-3.6,9.87-6.93,11.15,2.57-4.67,5.14-8.93,4.8-14.16-.33-5.11-3.17-9.01-5.72-13.15Z"/><path class="cls-7" d="m74.47,208.83c-.52,2.31-1.01,4.61-1.55,6.92-1.57,6.77,3.6,13.85,9.44,14.51.35.04.69.17,1.22.3-.2,1.32-.56,2.01-2.09,1.56-4.99-1.46-8.87-4.15-10.16-9.48-1.22-5.06-.15-9.75,3.14-13.81Z"/><path class="cls-7" d="m156.23,293.49c.79,1.48,1.34,2.67,2.03,3.78,2.06,3.33,4.93,5.35,9,5.45,3.71.09,7.36.04,10.69-2,.47-.29,1.27-.04,2.63-.04-3.22,2.66-6.37,3.79-9.71,4.14-5.18.54-9.68-.89-13.07-5.2-1.39-1.77-2.05-3.55-1.56-6.12Z"/><path class="cls-1" d="m29.11,276.59c2.51,2.91,2.73,7.05,5.19,9.98,2.49,2.97,5.07,5.86,7.42,9-4.41-.75-6.85-4.16-9.17-7.33-2.42-3.3-3.69-7.24-3.44-11.65Z"/><path class="cls-3" d="m65.95,344.64c-5.31,5.9-18.81,5.45-25.18-.36,4.65,1.05,8.59,2.62,12.93,2.56,4.13-.06,7.91-1.74,12.26-2.2Z"/><path class="cls-4" d="m33.59,250.94c2.77-1.52,5.89-2.72,7.42-5.64,1.44-2.76,2.47-5.73,3.89-9.1.81-.27,1.7.12,1.32,1.64-.55,2.21-1.06,4.56-2.22,6.47-2.07,3.4-5.03,6.01-8.83,7.47-.38.15-.91-.06-1.36-.11-.07-.25-.14-.49-.21-.74Z"/><path class="cls-7" d="m220.26,287.71c-2.37-2.3-2.92-5.03-2.34-8.02,1-5.11,4.31-7.68,8.96-9.02.16-.05.4.2.91.46-.49.4-.83.81-1.27,1.02-6.81,3.28-8.25,8.98-6.31,14.46.12.33.02.74.02,1.11l.02-.02Z"/><path class="cls-7" d="m171.35,324.9c.06-1.97.9-3.46,2.46-4.22,1.71-.84,3.52-1.87,5.53-1.51,4.29.76,6.51,3.19,6.11,6.83-2.29-1.79-3.46-4.69-6.95-4.83-3.37-.13-4.75,2.39-7.15,3.73Z"/><path class="cls-3" d="m76.61,211.63c.29,2.9.63,5.68.85,8.48.24,3.11,3.83,3.95,4.69,6.82-3.69-.81-5.92-2.94-7.17-7.51-.73-2.7-.87-5.59,1.63-7.79Z"/><path class="cls-11" d="m190.45,348.13c.63.3,1.41.47,1.88.93,4.89,4.86,8.79,6.46,15.04,7.61-.74,1.71-2.31,1.34-3.49,1.1-4.01-.8-7.64-2.48-10.48-5.52-1.14-1.22-2.89-2.04-3.05-4.02l.11-.11Z"/><path class="cls-7" d="m160.57,328.9c-1.94-2.08-1.24-4.35-.63-6.2,1.03-3.12,3.07-5.7,6.72-7.79-.4,1.16-.42,1.78-.74,2.08-3.19,3.02-4.75,6.7-4.73,11.07,0,.19-.27.38-.62.83Z"/><path class="cls-3" d="m18.46,339.69c-.88-2.47-.1-4.61-.6-6.55-.48-1.86-1.42-3.59-2.26-5.63,2.05-.34,2.56,1.13,3.12,2.34,1.47,3.11,2.51,6.25-.26,9.84Z"/><path class="cls-1" d="m156,304.19c-1.99-1.44-3.64-3.07-3.29-5.88,1.54,1.67,3.17,3.29,3.42,5.76l-.13.12Z"/><path class="cls-4" d="m33.57,345.26c-1.24-.02-1.91-.66-2.26-2.17,1.62.08,2.42.56,2.36,2.07l-.11.1Z"/><path class="cls-11" d="m118.69,193.67c-1.34.12-1.85-.68-2.22-2.09,1.6,0,2.25.65,2.28,2.03l-.06.06Z"/><path class="cls-11" d="m20.14,225.27c1.11-.58,1.44-.9,1.64-.83.25.09.4.48.6.74-.26.17-.51.45-.78.47-.33.03-.67-.16-1.45-.38Z"/><path class="cls-11" d="m119.48,187.92c-.69.21-1.03.42-1.33.37-.29-.04-.54-.35-.8-.54.18-.25.34-.68.54-.7.26-.03.56.27,1.59.87Z"/><path class="cls-11" d="m162.09,204.76l1.45.8s-.06.05-.06.05c-.5-.24-1-.49-1.51-.73,0,0,.11-.13.11-.13Z"/><path class="cls-11" d="m120.17,189.2l-.58-.29c.11-.12.21-.23.32-.35.12.18.23.37.35.55,0,0-.08.08-.08.08Z"/><path class="cls-7" d="m76.76,205.19c-.04.07-.08.14-.11.21-.1-.08-.2-.16-.3-.24.07-.07.15-.14.22-.21.07.08.13.15.2.23Z"/><path class="cls-11" d="m163.54,205.56c.19.11.38.22.56.34-.12.1-.23.21-.35.31-.09-.2-.18-.4-.27-.6l.06-.05Z"/><path class="cls-7" d="m75.42,207.08c.08-.2.17-.39.25-.59.1.1.21.2.31.3-.19.09-.38.19-.57.28h0Z"/><path class="cls-7" d="m75.42,207.08c-.09.2-.17.4-.26.61-.11-.11-.21-.22-.32-.32.19-.09.39-.19.58-.28h0Z"/><path class="cls-11" d="m164.71,207.66c-.09-.05-.17-.09-.24-.13.08-.12.16-.23.24-.35.08.08.21.16.21.24,0,.08-.13.16-.21.24Z"/><path class="cls-11" d="m90.37,336.99c-.18-.08-.37-.16-.55-.24l.29-.28c.08.18.16.37.24.55l.03-.03Z"/><path class="cls-3" d="m14.66,326.38c-.07-.04-.15-.07-.22-.11.08-.11.16-.21.24-.32.07.07.15.15.22.22-.08.07-.16.14-.23.21Z"/><path class="cls-11" d="m20.93,319.08c-.19-.08-.38-.16-.58-.24.1-.11.2-.21.3-.32.09.19.18.38.28.56h0Z"/><path class="cls-7" d="m220.24,287.73c.18.09.37.18.55.27-.1.09-.2.19-.29.28-.08-.19-.16-.38-.24-.57l-.02.02Z"/><path class="cls-12" d="m690.78,673.38c.51-.12,1.14.21,1.7.41.61.22,1.12.94,1.86.27-.65-1.61-2.02-2.54-3.4-2.32-2.02.34-4.04,2.76-4.27,4.99-.32,3.18,1.1,5.1,3.42,5.72,2.69.71,5.58.76,8.19-.4,2.26-1,4.02-2.72,4.92-5.13.18-.48.36-.96.57-1.51,3-.46,5.75.08,8.36,1.16v-1.7c-.53-.2-1.07-.38-1.62-.53-2.11-.58-4.3-.88-6.51-1.33.32-3.18-.92-5.8-2.66-8.21-1.79-2.48-4.44-3.63-7.26-4.47,1.21-6.79.67-13.2-3.45-19.01-4.07-5.73-9.71-8.74-16.51-9.68-.06-6.29-1.84-11.72-6.46-15.91-4.52-4.11-9.88-5.8-15.99-5.06-.09-5.34-2.26-9.51-7.04-11.78-4.7-2.23-9.38-1.67-13.41,1.49-1.04-.91-1.92-1.69-2.82-2.47-2.69-2.35-5.92-3.43-9.38-3.73-4.62-.41-8.65,1.34-12.11,4.18-1.56,1.28-3.19,2.28-4.91,3.28-6.3,3.7-9.87,9.16-10.14,16.58-.06,1.92.01,3.84.01,5.76.13.06.25.12.37.18-.07.07-.13.15-.2.22-.06-.12-.13-.25-.2-.37-2.93-.33-5.15-2.01-6.91-4.15-2.61-3.2-3.86-7.04-4.05-11.15-.13-2.96-1.46-5.16-3.67-7.02-1.86-1.57-3.96-1.85-6.28-1.86-2.32,0-4.2.77-5.79,2.39-.78.8-1.56,1.6-2.38,2.43-3.03-2.18-6.3-3.01-9.88-2.7-.6.06-1.22,0-1.83.02-5.09.2-9.55,1.99-13.18,5.59-3.72,3.69-5.43,8.22-4.63,13.42.56,3.63,2.62,6.49,5.9,8.28,2.79,1.51,5.43-.05,5.58-3.2,0-.34-.05-.7,0-1.04.2-.99,1.26-1.91,2.34-2.09,1.65-.26,2.28-.02,2.98,1.32,1.67,3.22,1.09,6.45.25,9.68-1.37,0-2.5-.04-3.63.02-1.2.06-2.46.03-3.58.37-5.64,1.74-9.14,5.53-10.5,11.3-.09.36-.51.65-.75.94-11.12-3.8-20.14-.31-25.71,7.68-6.04,8.65-5.06,18.09.95,25.56,6.31,7.84,16.8,10.81,27.41,5.12,2.03,5.9,3.58,8.49,8.06,12.64,4.01,3.73,8.83,5.97,14.23,6.54,7.31.78,13.99-1.08,19.75-5.83,1.55-1.28,1.61-1.33,3.3-.1,4.6,3.36,9.89,4.71,15.43,4.86,2.59.07,5.24-.51,7.8-1.31,3.85-1.19,7.11-3.33,10-5.83,10.84,2.82,19.57-.11,26.2-8.94.6.32,1.05.58,1.51.82,7.2,3.82,14.45,3.99,21.67.14,1.56-.84,2.55-.25,3.67.64,4.17,3.3,8.81,5.42,14.13,6.28,4.52.72,9.02.8,13.38-.21,5.74-1.34,11.25-3.5,16.23-6.73.31.07.57.09.8.19.49.21.98.4,1.48.58v-1.77c-.27-.1-.54-.2-.81-.31-3.41-1.37-6.96-1.5-10.49-1.12-2.01.22-3.99,1.02-5.89,1.79-4.76,1.9-9.47,1.71-14.13-.19-2.06-.84-4-1.99-6.02-2.95-.46-.22-1.02-.2-1.76.16.45.48.82,1.08,1.36,1.41,4.65,2.84,9.54,4.79,15.16,4.43,1.85-.12,3.6-.45,5.26-1.21,3.45-1.6,7.07-2.22,10.85-1.97.32.03.64.13,1.27.26-.42.48-.62.88-.94,1.04-4.63,2.32-9.37,4.36-14.58,4.98-1.98.23-3.96.47-5.95.47-7.47.02-14.02-2.52-19.64-7.44-1.44-1.27-1.48-1.24-3.12-.3-6.8,3.88-13.72,4.33-20.73.57-.67-.36-1.28-.83-1.79-1.16.68-2.79,1.28-5.37,1.95-7.93.14-.53.46-1.15.9-1.45,4.52-3.14,6.23-7.68,6.49-12.94.08-1.74-.08-3.49-.02-5.24.02-.53.26-1.25.65-1.56,3.74-2.87,7.92-3.9,12.43-2.27,1.57.57,2.95,1.79,4.3,2.85.96.76,1.8,1.52,3.07,1.84,2.17.55,3.25,2.34,3.58,4.37.37,2.33.03,4.64-.99,6.85-1.86,4.02-7.75,4.72-10.61.96-.75-.99-1.11-2.02-.48-3.36.66-1.4.85-3.03,2.89-3.66.75.5,1.64,1.11,2.76,1.86-.91,1.13-1.63,2.03-2.5,3.11.6.13,1.09.38,1.5.29,1.54-.35,1.85-1.81,2.14-3,.27-1.13-.4-2.13-1.48-2.79-2.73-1.67-4.2-1.24-6.42,2.09-2.72.17-5.42.77-7.27,3.1-1.52,1.91-2.39,4.12-2.49,6.58.75.41,1.26.47,1.51-.37.51-1.73.82-3.51,2.05-4.98,1.15-1.37,2.36-2.38,4.62-2.21-2.05,2.75-3.38,5.36-1.91,8.44.99,2.08,2.44,3.73,4.83,4.21.59-.68.55-1.14-.12-1.59-.85-.58-1.8-1.11-2.46-1.89-1.75-2.08-1.69-4.14.09-7.03.24.24.55.41.65.66,1.45,3.62,4.37,4.73,7.93,4.51,3.29-.19,5.42-2.14,6.53-5.13.99-2.64,1.3-5.36.39-8.13-.77-2.32-2.31-3.77-4.61-4.53-.7-.23-1.44-.61-1.94-1.13-3.03-3.13-6.7-4.47-11.02-4.15-2.21.16-4.18.98-6.08,2-.61.33-1.17.75-1.75,1.12-1.24-1.78-1.23-2.13.26-3.38.39-.33.88-.55,1.28-.88.31-.25.56-.59.88-.93q-1.51-.66-3.96,1.16c-.97-1.37-1.91-2.78-2.93-4.13-3.33-4.43-7.86-6.6-13.32-6.97-3.42-.23-6.72.27-9.91,1.55-4.18,1.68-7.21,4.45-8.41,8.89-.99,3.68-.41,7.28,1.62,10.45.8,1.26,1.18,2.37,1.19,3.8.03,2.58,2.16,5.43,4.53,6.09,1.23.35,2.55.64,3.81.58,2.84-.13,5.74-.26,8.27-1.75,1.24-.73,2.35-1.77,3.37-2.81,1.21-1.23,1.06-2.88.93-4.45-.12-1.45-.44-2.9-.44-4.35-.01-5.72-5.93-9.11-11.41-6.53-3.52,1.66-3.91,7.56-.75,9.67,1.8,1.21,3.73,1.19,5.69.36,1.27-.54,1.79-1.48,1.73-2.89-.06-1.45-.95-2.41-2.07-2.74-1.19-.36-2.75-.75-3.73.88.62.89,1.45.44,2.16.47,1.65.06,1.82.25,2,2.49-.65.23-1.34.62-2.07.71-2.08.28-3.57-.62-4.12-2.36-.61-1.94.24-4.3,1.94-5.16,4.36-2.23,8.73.35,9.04,4.96.12,1.71,0,3.41.45,5.14.51,2.01-.69,3.56-2.3,4.61-1.44.93-3.05,1.56-4.8,1.78-2.23.29-4.4.7-6.66.01-2.48-.75-4.03-2.42-4-5.04.01-1.61-.51-2.82-1.38-4.24-3.32-5.43-2.48-12.78,4.17-16.27,5.11-2.69,10.54-3.21,16.06-1.26,3.64,1.28,6.39,3.68,8.41,6.97,3.52,5.74,4.02,11.99,2.43,18.28-1.25,4.95-4.92,7.96-9.86,9.4-3.64,1.05-7.34,1.17-11.16.94-.27,1.33-.47,2.58-.77,3.8-1.01,4.06-3.97,5.97-7.76,6.72-3.44.69-7.51.42-11.3-.3-.67-.13-1.42-.22-2.06-.05-3.23.87-6.36.38-9.43-.62-4.87-1.59-6.94-5.77-5.85-10.85.62-2.86,2.14-4.7,4.77-5.62,2.09-.73,4.33-.81,6.34.19,3.79,1.89,3.08,5.43.54,7.84-.96.91-2.27.72-3.46.33-.65-.21-1.25-.57-1.87-.86-.75.68-.65,1.33.08,1.72,2.65,1.44,6.08,1.65,7.76-1.82,1-2.07,1.9-4.19.29-6.32-.66-.87-1.48-1.8-2.43-2.22-2.53-1.11-5.2-1.18-7.86-.37-3.95,1.21-5.52,4.35-5.98,8.01-.81,6.45,3.11,11.01,9.15,12.01,2.37.39,4.8.5,7.36.75-.14.71-.61,1.31-1.26,1.84-3.06,2.49-6.56,3.82-10.51,3.74-2.24-.04-4.48-.35-6.72-.43-.43-.02-.89.49-1.69.97,1.1.41,1.7.79,2.34.85,6.05.57,12,.55,17.06-3.57,1.06-.87,1.92-1.98,3.02-3.12.36.32.78.7,1.2,1.07.13.16.25.32.37.48,1.27.87,2.53,1.74,3.9,2.68-2.13,2.64-5.02,3.87-7.84,5.1-2.87,1.26-6.05,1.67-9.1,1.58-5.35-.14-10.32-1.86-14.6-5.24-1.75-1.37-1.71-1.32-3.48.03-1.53,1.17-2.94,2.57-5.3,3.47.51-1.12.86-1.77,1.11-2.45,1.17-3.26,1.22-6.44-.87-9.4-1.78-2.5-6.39-3.38-8.89-1.6-3.01,2.14-2.36,5-.4,7.14.22.24.9.05,1.36.06-.06-.39-.04-.83-.21-1.17-.17-.36-.6-.59-.8-.94-.94-1.69-.32-3.22,1.46-3.96,2.9-1.2,6.63-.33,7.45,4.35.65,3.72-.98,8-5.24,9.79-6.86,2.88-15.74.44-19.26-6.97-1.08-2.28-1.92-4.62-2.16-7.13-.09-.88-.38-1.3-1.59-.91.06.85-.07,1.83.21,2.68.87,2.69,1.48,5.5,3.27,7.82.24.32.25.82.37,1.23.22.18.44.36.66.55.03.02.06.06.09.09-.34-.12-.66-.24-.99-.35-4.02-1.92-6.43-5.36-8.6-9.03-.3-.52-.48-1.11-.78-1.63-1.42-2.43-1.38-4.57.75-6.71,1.96-1.96,2.75-4.69,2.74-7.31-.01-2.95-1.4-5.63-3.6-7.76-1.85-1.79-3.89-3.02-6.65-2.89-3.59.16-5.71,2.15-5.87,5.81-.02.52-.02,1.05-.03,1.57-.07.31-.14.62-.21.94-.05-.3-.11-.6-.16-.9-2.76-4.46-.21-7.66,2.57-9.42,2.96-1.87,7.18-1.46,10.21,1.56.77.77,1.56,1.52,2.59,2.52.16-.74.39-1.2.27-1.34-1.15-1.28-2.2-2.75-3.6-3.7-3.93-2.67-8.01-2.23-11.79.61-2.93,2.19-3.53,5.57-1.86,10.89-.51-.2-.89-.26-1.17-.46-2.29-1.65-3.81-3.83-3.92-6.7-.06-1.26.35-2.54.56-3.8.11-.65.27-1.29.48-2.34-.8.29-1.5.35-1.58.6-1.2,3.89-1.7,7.78,1.04,11.29,2.02,2.57,4.89,3.76,7.97,4.49.54.12,1.16-.08,1.75-.12-.57-1.69-1.21-3.19-1.56-4.75-.59-2.64,1.34-4.94,3.96-5.17,2.6-.24,4.6.86,6.19,2.68,3.52,4.04,3.54,8.42.61,12.63-2.53,3.63-6.26,5.23-10.53,5.81-2.67.36-5.23.34-7.89-.43-4.7-1.36-8.5-3.83-11.2-7.87-2.36-3.53-3.79-7.45-3.5-11.72.5-7.3,3.74-13.02,10.23-16.73,2.6-1.49,5.43-2.24,8.35-2.52,2.85-.27,5.63.5,8.34,1.41.98.32,1.27.92,1.48,1.87.31,1.41.7,2.87,1.38,4.13,2.02,3.81,5.45,5.33,9.6,5.62,2.77.19,5.12-.53,6.99-2.68,2.39-2.74,1.91-9.5-3.64-10.45-.81-.14-1.84-.95-2.53.68.42.25.84.7,1.33.79,3.22.58,4.44,1.69,4.55,4.29.13,3.05-1.3,5.26-4.17,5.69-3.26.48-6.48-.02-9.01-2.37-2.5-2.32-3.2-5.22-2.75-8.68.55-4.26,2.85-7.12,6.17-9.45,3.22-2.26,6.87-2.44,10.48-1.74,4.72.91,8.08,3.71,9.77,8.35.78,2.14,1.03,4.34,1.02,6.61,0,1.07-.8,1.49-1.35,2.12-2.11,2.43-3.63,5.19-3.3,8.47.45,4.33,2.32,7.92,6.46,9.96.96.47,1.85.84,3.09-.08-.76-.43-1.31-.76-1.89-1.05-2.59-1.3-4.49-3.29-5.49-6-1.52-4.11-.12-7.59,2.63-10.69,1.44-1.63,2.96-3.18,4.33-4.86,1.82-2.21,2.51-4.95,2.73-7.69.26-3.2-.9-6.13-2.94-8.62-1.33-1.62-2.92-2.93-4.83-3.89-5.06-2.55-6.27-9.79-2.63-14.35,2.81-3.53,8.61-3.39,11.23-1.05,1.51,1.36,1.92,4,.96,6.01-1,2.11-2.85,3.21-5.01,2.9-.76-.11-1.54-.32-2.22-.66-.78-.39-1.46-.97-1.37-2.03.09-1.12.82-1.68,1.78-1.97.48-.15.99-.15,1.79-.26-.36-.58-.53-1.2-.83-1.27-1.72-.42-3.54.62-4.2,2.27-.69,1.7-.23,3.06,1.39,4.16,2.53,1.7,5.72,1.83,7.77.3,2.41-1.79,3.7-5.12,2.79-7.87-.82-2.49-2.81-4.03-5.27-4.61-7.64-1.78-12.5,4.26-12.49,9.78.01,4.37,1.65,7.72,5.44,9.94,1.96,1.15,3.82,2.36,5.09,4.33,2.93,4.53,2.34,8.98-.2,13.41-.42.74-1,1.39-1.74,2.39-.41-3.68-1.16-6.9-3.15-9.79-2.02-2.95-5.04-4.35-8.15-5.78.96-2.57.72-5.11.62-7.61-.04-1.01-.34-2.07-.79-2.97-.92-1.85-2.86-2.86-4.39-2.5-2.93.71-3.98,1.83-4.17,4.47-.19,2.59-1.52,3.17-3.83,1.87-1.68-.94-2.19-2.16-2.09-4.03.14-2.89.56-5.6,2.05-8.18,2.03-3.52,5.21-5.16,8.96-5.91,2.19-.44,4.4-.92,6.66-.15.74.26,1.58.1,1.81-1.2-1.24-.24-2.47-.72-3.68-.69-3.9.12-7.73.57-11.1,2.87-3.78,2.57-5.52,6.28-6.15,10.64-.07.5-.09,1-.16,1.93-1.42-2.97-1.25-5.66-.31-8.18,2.15-5.8,6.46-9.24,12.47-10.48,1.94-.4,3.95-.48,5.94-.61,3.16-.2,5.94.9,8.48,2.71.34.24.7.45,1.23.78.54-.75,1.04-1.41,1.5-2.1,1.97-2.94,5.25-4.23,8.61-3.37,3.07.78,5.51,3.92,5.73,7.28.32,4.88,1.81,9.29,5.26,12.91,1.78,1.86,3.89,3.18,6.35,3.86,1.42.39,2.34,1.12,3.21,2.35,2.05,2.93,4.95,4.57,8.62,4.49,1.24-.03,2.41.17,3.52.65,2.84,1.23,5.81,1.54,8.87,1.48,4.43-.08,9.52-3.2,10.21-9.53.28-2.62-.12-5.18-1.01-7.66-.17-.49-.19-.48-1.57-.53.27,1.36.54,2.67.79,3.99.62,3.19.29,6.19-1.77,8.85-1.19,1.53-2.65,2.6-4.89,2.79.7-.97,1.29-1.7,1.78-2.49,1.93-3.08,2.59-6.42,1.34-9.88-2.17-6.06-7.88-6.01-11.6-3.37-1.23.86-2.06,2.06-2.57,3.52-.87,2.51.82,5.77,3.37,6.35,1.02.23,1.69-.04,2.7-1.22-.46-.12-.83-.31-1.19-.3-1.68.08-2.85-.59-3.43-2.2-.57-1.59.13-2.9,1.08-4.03,1.58-1.88,4.83-2.78,6.87-1.96,2.55,1.02,3.56,3.21,3.8,5.74.27,2.88-.64,5.53-2.57,7.65-1.82,1.99-4.34,2.35-6.93,2.05-.76-.08-1.56-.24-2.24-.58-1.69-.85-3.48-.89-5.31-.9-3.29-.02-7.02-2.67-7.98-6.38-2.38-9.17,1.68-18,9.94-21.96,1.58-.76,2.98-1.68,4.23-2.93,1.89-1.87,4.3-2.82,6.88-3.36,5.81-1.23,10.5.8,14.47,4.95.47.49.97.95,1.56,1.52.55-.47.98-.88,1.46-1.23,3.98-2.92,9.9-3.23,13.87.56,2.85,2.72,4.31,6.19,3.2,10.35-.47,1.76-1.45,3.05-3.15,3.41-1.75.36-3.63.5-5.38.25-.8-.1-1.51-1.31-2.11-2.13-.39-.52-.53-1.24-.76-1.83-1-.28-1.37.12-1.26,1.04.21,1.82,2.3,4.35,4.15,4.57,1.71.2,3.5.14,5.19-.17,2.46-.45,4.11-2.07,4.93-4.41,5.74.32,10.61,4.32,11.54,8.22.4,1.66.31,3.44.42,5.17.06.82.04.82,1.15,1.18,1.37-5.59.09-10.68-7.99-15.09,2.22-.34,4.04.54,5.8,1.36,5.21,2.41,8.37,6.62,9.75,12.08.44,1.73.17,3.65.21,5.48.03,1.56.23,1.84,1.73,1.92,8.59.46,16.12,7.24,18.3,14.7,1.03,3.53,1.29,7.13.49,10.77-.18.83-.19,1.7-.28,2.61.65.28,1.18.57,1.75.72,5.69,1.53,9.07,6.25,8.28,12.05-.47,3.43-3.01,6.84-7.22,6.94-1.31.04-2.63.09-3.92-.06-1.82-.2-2.91-1.39-3.01-3-.12-2.03,1.08-4.4,2.55-4.73Zm-79.35,16.69c.49.04.98.07,1.47.11,2.65-.15,5.33.06,7.87-1.13,3.13-1.47,5.45-3.55,6.24-7.05.16-.75.39-1.48.63-2.35h5.42c.05.13.26.37.21.57-.85,3.88-2.43,7.3-5.83,9.67-3.1,2.15-6.57,2.44-10.13,2.05-1.54-.17-3.03-.88-4.54-1.34-.46-.07-.92-.13-1.37-.2.01-.11.02-.22.03-.33Zm-.73,2.08c-.3-.06-.61-.12-.91-.17.05-.12.1-.24.15-.36.27.16.53.32.8.49.36.02.71.05,1.06.07,2.09.49,4.16,1.3,6.26,1.4,5.39.25,10.25-1.03,13.62-5.79,1.57-2.22,2.63-4.63,3.14-7.27.19-1.04.71-1.49,1.6-1.76,1.29-.38,2.58-.77,3.88-1.16-.32,9.2-7.97,16.04-16.51,17.55-4.21.75-8.45.24-12.12-2.41-.32-.2-.64-.39-.97-.59Zm-62.84,6.78s.01.03.01.05l.36.18c-.08.06-.17.12-.26.19-.04-.12-.06-.25-.1-.37-.01-.01-.03-.01-.04-.02-.03-.02-.05-.05-.08-.07.04,0,.07.03.11.04Z"/><path class="cls-12" d="m704.1,559.13c2.68-.49,5.42-.47,8.03.38v-1.63c-4.12-1.14-9.06-.81-14.13,1.65-.84-2.66-2.62-4.73-4.85-6.17-5.21-3.36-12.27-3.19-17.1.87-.87.74-1.62.76-2.59.25-.67-.35-1.44-.61-2.19-.67-3.84-.29-8.02,3.54-8.15,7.45-.05,1.63-.01,3.27-.01,4.8-3.75,1.33-6.98,3.11-9.46,5.95-1.35,1.54-2.48,3.31-3.51,5.08-1.23,2.14-3.01,3.71-5.26,4.36-2.98.86-6.12,1.1-9.2.25-1.06-.3-1.63.04-1.89,1.04.24.26.38.54.6.63,3.02,1.2,6.15,2.14,9.39,2.3,2.58.13,5.15.13,7.76-.39,3.99-.81,7.77-2.06,11.21-4.21,2.5-1.56,5.25-2.2,8.07-2.05,2.27.12,4.54.74,6.73,1.41,3.57,1.11,7.06,2.48,10.61,3.67,7.44,2.49,14.83,5.01,22.71,5.95.42.05.84.1,1.26.14v-1.61c-1.18-.12-2.36-.28-3.55-.47-9.58-1.57-18.49-5.26-27.58-8.4-3.78-1.3-7.63-2.06-11.6-2.3-.4.19-.8.37-1.28.59.02-1.1.59-1.22,1.3-1.16,5.73-1.75,11.45-1.32,17.13.18,2.73.73,5.37,1.78,8.06,2.67,3.92,1.31,7.82,2.66,11.99,2.94,1.81.11,3.61.34,5.42.37.04,0,.07,0,.11-.01v-1.48c-7.05.04-13.66-2.04-20.21-4.44-5.4-1.99-10.93-3.23-16.72-2.85-4.68.3-8.95,1.6-12.54,4.83-2.29,2.06-5.21,3.04-8.11,3.85-3.16.88-6.4,1.53-9.73,1.19h-2.52c-.02-.11-.04-.23-.06-.34.86-.2,1.71-.41,2.56-.61,3.24-.94,5.53-2.96,7.17-5.92,2.24-4.05,5.43-7.14,9.82-8.91,1.32-.54,2.32-.64,3.56.35,1.41,1.12,3.13,1.81,5.02,1.84,2.29.03,3.76-.97,4.51-3.1.66-1.86-.07-4.15-1.67-5.34-.85-.64-1.74-.58-2.73-.35-.08.99.54,1.16,1.19,1.44,2.13.92,2.62,3.52.92,5.03-.47.41-1.22.73-1.83.73-1.76-.01-3.4-.56-4.78-1.69-.38-.31-.72-.78-.87-1.24-1.24-3.84-.38-8.17,3.49-10.08,1.61-.8,3.01-.43,4.47.16.63.25,1.21.65,2,1.08,4.06-4.05,8.93-5.57,14.43-3.73,3.5,1.17,6.14,3.51,7.09,7.36-.55,1.1-1.17,2.24-1.71,3.41-1.73,3.7-.72,9.09,2.67,11.79,3.96,3.17,10.61,1.34,11.94-3.42.79-2.82-.62-5.93-3.17-7.24-1.61-.82-2.99-.48-4.36.49-.64.46-.64.45-.29,2.12.32-.18.62-.29.87-.49,1.94-1.55,3.92-1.1,4.98,1.15,1.72,3.69-.41,7.12-4.48,7.25-5.25.17-8.42-4.15-7.28-9.43.99-4.66,4.31-6.53,8.34-7.27Z"/><path class="cls-12" d="m695,715.81c-1.05-2.57-2.92-4.58-5.43-5.95-2.79-1.52-5.72-1.82-8.84-1.53-4.05.39-7.16,2.19-9.33,5.6-.68,1.06-1.2,2.22-1.84,3.42-1.21-.07-2.45.01-3.62-.24-2.24-.48-4.44-1.14-6.66-1.75-3.22-.87-6.39-.56-9.58.29-5.69,1.52-10.25,4.81-14.11,9.11-1.35,1.5-2.6,3.17-2.99,5.97.98-.45,1.55-.59,1.97-.92,2.7-2.12,5.48-4.09,8.78-5.25,4.59-1.61,8.9-1.66,12.83,1.7,1.63,1.4,3.33,2.73,5.06,4.02,3.23,2.42,6.69,4.24,10.93,3.82,1.04-.11,2.09-.02,3.04-.02.84.58,1.63,1.1,2.39,1.66,1.85,1.39,4,.8,6.04.97,1.56.14,2.95-.29,4.16-1.12,2.11-1.46,3.99-3.27,4.05-6,.04-1.66.58-2.86,1.55-4.08,2.3-2.92,3.01-6.25,1.6-9.7Zm-3.34,9.37c-.5.59-1.16,1.05-1.85,1.66,1.11,2.24.41,4.14-.97,5.8-1.39,1.67-3.22,2.55-5.46,2.55-2.01.01-3.93,0-5.68-1.34-2.38-1.81-3.68-4.63-3.09-7.47.32-1.51,1.28-2.44,2.74-2.8,1.94-.49,3.91.15,4.86,1.67.44.7.53,1.62.91,2.38.18.35.68.54,1.12.87.83-1.59.03-2.76-.55-3.82-.66-1.23-1.77-2.18-3.15-2.61-3.6-1.1-6.04.45-8.01,5.05-1.76.49-3.4-.02-4.95-.82-1.61-.83-3.14-1.8-4.72-2.68-.49-.27-1.02-.47-1.94-.88.19.87.14,1.55.41,1.71,2.21,1.33,4.4,2.72,6.75,3.76,1.37.61,3.02.6,4.77.9.31.84.72,1.95,1.19,3.22-3.47.66-6.65.1-9.53-1.88-2.07-1.42-4.17-2.83-6.02-4.51-5.28-4.8-11.08-5.05-17.33-2.35-.87.37-1.74.73-2.61,1.1-.16.1-.32.2-.48.3.12-.15.23-.29.35-.44,1.36-2.06,3.37-3.37,5.4-4.64,4.17-2.62,8.73-3.71,13.63-3.15,1.34.16,2.65.65,3.97,1.01,2.77.74,5.56,1.27,8.46,1.11.93-.05,1.44-.37,1.62-1.31.7-3.73,3.3-5.87,6.61-6.98,4.09-1.36,8.18-1.18,11.88,1.46,2.24,1.6,3.58,3.81,3.96,6.46.37,2.53-.67,4.75-2.29,6.67Z"/><path class="cls-12" d="m612.9,690.18c-.03.15-.07.29-.13.42-.46-.07-.92-.13-1.37-.2.01-.11.02-.22.04-.33.49.04.98.07,1.47.11Z"/><path class="cls-12" d="m524.3,670.61c.12,0,.25,0,.37-.04-.07.31-.13.63-.2.94-.06-.3-.11-.6-.17-.89Z"/><path class="cls-12" d="m607.06,692.66c.04-.36.09-.71.13-1.07.12.16.25.32.37.47-.17.19-.35.39-.52.58,0,0,.01.01.01.01Z"/><path class="cls-12" d="m610.7,692.15c-.31-.06-.61-.12-.92-.18.05-.12.1-.24.15-.35.27.16.54.32.81.48,0,0-.04.04-.04.04Z"/><path class="cls-12" d="m611.8,692.18c-.04.19-.09.37-.13.56-.32-.2-.65-.39-.97-.59l.04-.04,1.06.08Z"/><path class="cls-12" d="m547.86,698.93c-.38-.14-.77-.27-1.15-.41.09-.09.17-.19.25-.29.29.24.58.49.88.73,0,0,.03-.03.03-.03Z"/><path class="cls-12" d="m547.83,698.96c.14.07.27.14.41.21l-.26.18c-.04-.14-.07-.28-.11-.42,0,0-.03.03-.03.03Z"/><path class="cls-12" d="m644.8,583.14l.03.95h-2.52c-.02-.11-.04-.23-.06-.34.85-.2,1.7-.4,2.55-.6Z"/><path class="cls-12" d="m669.42,576.84c0,.19-.01.38-.02.58-.4.18-.8.37-1.28.59.01-1.1.59-1.22,1.3-1.16Z"/><path class="cls-12" d="m638.55,724.69c-.16.1-.32.2-.48.3.12-.15.23-.29.35-.44l.13.14Z"/><path class="cls-12" d="m585.21,667.52c.93.75.22,1.42-.18,2-1.47,2.07-2.37,4.35-2.88,6.83-.66,3.24-.04,6.24,1.99,8.76,1.34,1.67,3.11,2.99,4.73,4.43.58.52,1.38.85.8,1.84-4.15-.65-8.48-6.4-9.24-10.44-.9-4.74,1.51-11.36,4.79-13.41Z"/><path class="cls-12" d="m671.93,652.5c-.67.67-1.33.46-2-.08-.81-.65-1.61-1.3-2.44-1.92-2.36-1.79-5.06-2.5-7.99-2.47-1.54.02-3.08,0-5.23,0,.81-.76,1.15-1.37,1.58-1.43,5.98-.8,11.36.4,15.67,4.94.18.19.31.42.45.64.04.06,0,.17-.02.32Z"/><path class="cls-12" d="m576.05,616.72c.62.88,1,1.31,1.25,1.8,2.18,4.33,4.98,8.06,9.45,10.32.8.4,2.03.95,1.1,2.51-4.51-2.18-8.14-5.27-10.63-9.57-.76-1.31-2.07-2.63-1.17-5.07Z"/><path class="cls-12" d="m678.27,637.68c6.17.76,12.41,8.65,10.81,18.71-.43-2.19-.82-4.26-1.26-6.31-1.1-5.19-3.68-9.26-8.67-11.52-.23-.1-.42-.31-.62-.48-.06-.05-.1-.14-.27-.39Z"/><path class="cls-12" d="m513.82,677.94c.45.23.91.45,1.36.7,3.3,1.83,6.69,3.08,10.58,2.09,1.48-.38,3.04-.43,4.62-.63-.02.19,0,.4-.05.42-5,2.28-9.96,2.64-14.76-.51-.74-.48-1.88-.7-1.85-1.96,0,0,.1-.1.1-.1Z"/><path class="cls-12" d="m620.33,639.81c-1.01.65-2.04,1.27-3.02,1.97-4.09,2.91-5.9,7-6.05,11.92-.02.61-.03,1.21-.07,1.82,0,.07-.09.14-.26.39-.74-4.61-.37-8.85,2.71-12.38,1.69-1.94,3.73-3.59,6.44-4.03,0,.16.09.26.24.3Z"/><path class="cls-12" d="m677.78,640.79c1.89-.23,3.32.76,4.68,1.82,2.36,1.84,3.53,4.44,4.16,7.25.39,1.74.43,3.56.23,5.42-.38-1.38-.83-2.74-1.11-4.14-.91-4.61-3.21-8.12-7.69-9.98-.12-.05-.17-.27-.25-.42l-.03.04Z"/><path class="cls-12" d="m582.86,664.79c2-2.8,4.94-4.19,8.09-5.05,2.57-.7,5.25-.94,8.42-.34-3.12.27-5.73.68-8.25,1.59-2.36.86-4.62,1.83-6.56,3.47-.37.31-.93.39-1.4.58-.1-.07-.2-.16-.29-.24Z"/><path class="cls-12" d="m708.2,682.16s.03.03.04.05c-.02,0-.05,0-.07-.02l.03-.03Z"/><path class="cls-12" d="m712.13,683.4v1.24c-1.1-.37-2.16-.84-3.13-1.54-.3-.22-.51-.58-.76-.89,1.03.34,2.04.73,3.08.99.27.07.54.14.81.2Z"/><path class="cls-12" d="m608.03,605.89c.18-.49.22-1.13.56-1.44,2.29-2.07,5.02-3.12,8.01-3.49.68.77.61,1.43-.2,1.75-1.33.53-2.78.77-4.09,1.36-1.3.58-2.49,1.44-3.73,2.17-.19-.12-.38-.23-.57-.35Z"/><path class="cls-12" d="m626.49,634.97c1.85-1.48,3.97-.98,5.98-1.01,3.43-.05,6.44.77,9.52,2.56-5.12-.9-10.22-2.06-15.5-1.55Z"/><path class="cls-12" d="m564.66,627.01c3.75,2.3,6.12,5.47,6.25,10.02.03,1.02,0,2.05-.34,3.09-.21-.81-.6-1.62-.6-2.43-.03-3.45-1.92-5.98-3.96-8.47-.54-.66-1.03-1.36-1.54-2.04.11-.01.17-.07.19-.18Z"/><path class="cls-12" d="m618.65,681.13c-1.31,3.03-4.07,3.77-6.92,4.16-2.6.36-5.14-.12-7.72-1.34.92-.27,1.65-.14,2.45.02,3.31.7,6.52.37,9.52-1.28.89-.49,1.73-1.09,2.59-1.64l.08.08Z"/><path class="cls-12" d="m560.41,674.19c-2.06.04-3.01-.96-3.84-1.98-2.53-3.11-3.46-6.68-2.82-10.71.66,2.32,1.22,4.61,1.95,6.85.76,2.33,2.32,4.14,4.7,5.85Z"/><path class="cls-12" d="m549.08,682.08c1.53,4.93,3.6,8.98,8.6,10.77-4.56.93-9.05-5.11-8.6-10.77Z"/><path class="cls-12" d="m548.09,687.01c2.04,4.51,5.11,7.99,10.11,10.05-4.54.39-10.1-5.33-10.11-10.05Z"/><path class="cls-12" d="m644.38,664.4c-.38,4.69-4.37,8.81-9.04,9.37l.03.03c.64-.51,1.24-1.1,1.94-1.5,3.51-2.01,5.91-4.79,6.49-8.92.19.34.39.69.58,1.03Z"/><path class="cls-12" d="m512.88,655.11c-.18.47-.26,1.03-.56,1.4-1.89,2.31-3.11,4.87-3.36,7.89-.07.82-.43,1.61-.73,2.69-.79-4.74.51-8.55,3.51-11.83.21-.23.6-.29.91-.43.08.09.16.18.23.28Z"/><path class="cls-12" d="m587.16,659.13c.98-1.6,2.75-2.01,4.29-2.53,3.32-1.13,6.78-.73,10.21-.32-1.6.22-3.2.57-4.81.62-2.98.11-5.71,1.04-8.44,2.08-.38.15-.85.09-1.28.12l.03.03Z"/><path class="cls-12" d="m640.61,665.94c.93-3.81.68-7.64-.04-11.47,2.52,3.19,2.72,8.03.63,11.07-.13.18-.41.25-.63.37,0,0,.04.03.04.03Z"/><path class="cls-12" d="m595.95,663.77c-2.69-.07-4.96,1.63-7.78,1.69.13-.54.1-.87.25-.98,1.95-1.56,4.24-2.13,6.68-2.23.82-.03,1.06.42.85,1.52Z"/><path class="cls-12" d="m581.31,689.58c-2.43-1.65-2.94-4.33-3.49-6.89-.32-1.47-.06-3.07-.06-5.23.79,2.97,1.34,5.33,2.05,7.65.45,1.45,1.13,2.84,1.7,4.25-.07.07-.13.14-.2.21Z"/><path class="cls-12" d="m570.98,651.87c-.12.31-.17.71-.38.92-2.18,2.18-3.83,4.63-4.19,7.79-.06.49-.27.97-.43,1.49-1.33-3.48.7-8.2,4.86-10.36l.14.15Z"/><path class="cls-12" d="m566.26,652.89c-.72,1.35-1.6,2.64-2.13,4.05-.67,1.78-.86,3.65-.12,5.53.2.51.03,1.17.03,1.88-2.68-3.61-1.61-9.07,1.09-11.27.25-.2.61-.27.92-.4.07.07.14.13.21.2Z"/><path class="cls-12" d="m552.75,670.18c2.44,3.25,5.15,6.19,9.62,7.56-2.39.64-3.87-.34-5.26-1.32-2.36-1.65-4.02-4.02-4.36-6.24Z"/><path class="cls-12" d="m548.07,612.11c-3.88,1.48-7.01,3.61-7.83,8.34-.6-2.43-.11-4.21,1.44-5.77,1.78-1.8,3.82-2.86,6.39-2.57Z"/><path class="cls-12" d="m547.38,637.7c3.05.17,5.66,1.24,7.59,3.7.81,1.03,1.28,2.16,1.2,3.87-1.48-2.06-2.28-4.3-4.48-5.19-1.41-.57-2.88-.98-4.33-1.47,0-.31.01-.62.02-.93Z"/><path class="cls-12" d="m570.36,629.25c1.63.99,1.86,2.77,2.34,4.35.42,1.37.58,2.84.68,4.27.05.71-.3,1.45-.55,2.56-.88-4.02-1.66-7.61-2.45-11.21l-.02.02Z"/><path class="cls-12" d="m674.78,680.47c.48.16,1.05.21,1.42.51,2.67,2.07,5.67,3.45,8.9,4.37,0,.21.02.41.02.62-4.29-.23-7.76-2.1-10.56-5.29.07-.07.14-.14.21-.2Z"/><path class="cls-12" d="m654.23,616.12c3.1.48,6.05,3.6,6.25,6.65.06.86,0,1.73,0,3.18-.49-1.03-.89-1.51-.93-2.01-.23-3.15-2.1-5.17-4.52-6.87-.33-.23-.57-.61-.84-.92l.03-.03Z"/><path class="cls-12" d="m533.17,675.36c.05,1.17-.85,1.6-1.66,2.07-1.81,1.07-3.72,1.76-5.88,1.63-.93-.06-1.87,0-2.83-.22,3.6-.82,7.18-1.57,10.37-3.48h0Z"/><path class="cls-12" d="m609.57,644.8c-.58,3.81-1.13,7.4-1.65,10.83-.86-1.33-1.18-3.18-.62-5.25.51-1.87.61-3.92,2.27-5.59Z"/><path class="cls-12" d="m667.32,620.85c1.62,1.01,2,2.8,2.35,4.4.52,2.33.71,4.78-.55,7.14-.09-.2-.16-.28-.16-.36.14-3.66-.32-7.22-1.67-10.65-.06-.15,0-.34.02-.52h0Z"/><path class="cls-12" d="m648.46,647.07c.17-.35.25-.83.53-1.03,3.12-2.25,6.54-2.93,10.36-1.93-2.29.46-4.48.82-6.62,1.37-1.47.38-2.87,1.03-4.31,1.56,0,0,.03.03.03.03Z"/><path class="cls-12" d="m606.11,693.81c-.49.67-.87,1.48-1.5,2-2.28,1.88-4.83,3.13-7.95,2.86.58-.27,1.16-.57,1.76-.81,2.49-.97,4.83-2.16,6.8-4,.17-.16.48-.15.73-.22,0,0,.16.17.16.17Z"/><path class="cls-12" d="m617.27,650.18c.4-3.95,4.17-6.42,9.6-6.09-4.11,1.33-7.78,2.33-9.6,6.09Z"/><path class="cls-12" d="m697.86,666.84c1.98,1.23,3.27,3.95,2.81,6.1-.21.97-.57,1.91-.87,2.86l-.52-.05c0-1.47.21-2.99-.06-4.4-.29-1.48-1.04-2.87-1.59-4.3.07-.07.15-.14.23-.2Z"/><path class="cls-12" d="m630.81,637.78c3.92-.55,7.34.25,10.62,2.15-1.28.83-2.32-.35-3.49-.34-1.15,0-2.29-.57-3.44-.82-1.22-.27-2.62.16-3.68-.98Z"/><path class="cls-12" d="m600.38,607.92c-.02.09-.01.18-.05.26-3.27,5.53-2.69,5.75-3.42,10.88-.99-3.98-.31-7.67,2-10.56.3-.37.83-.56,1.26-.83.08.08.15.17.21.26Z"/><path class="cls-12" d="m634.46,612.66c.81,1.58,1.33,3.37,2.47,4.59,1.17,1.25,2.94,1.95,4.36,2.83-4.14.49-7.2-2.75-6.83-7.42Z"/><path class="cls-12" d="m684.49,682.03c-4.21.29-7.95-1.79-9.33-5.37,1.69,1.26,3,2.43,4.49,3.29,1.47.84,3.11,1.36,4.84,2.09Z"/><path class="cls-12" d="m576.36,611.27c-1.36-2.98-2.71-5.98-6.71-6.85,4.05-.68,6.63,2.02,6.71,6.85Z"/><path class="cls-12" d="m646.1,684.87c2.21.16,4,.48,5.77.37,1.65-.1,3.27-.64,5.21-1.06-2.42,2.59-7.26,2.89-10.97.68Z"/><path class="cls-12" d="m591.86,632.65c-.09-.78,0-1.44.87-1.27,1.8.33,3.59.78,5.78,1.26-.65.64-1.01,1.27-1.32,1.25-1.84-.16-3.71-.32-5.33-1.23Z"/><path class="cls-12" d="m619.09,676.4c.05,2.29-1.86,3.23-3.25,4.4-1.3,1.1-2.96,1.78-5.3,1.14,3.79-.88,6.04-3.4,8.57-5.51l-.02-.02Z"/><path class="cls-12" d="m527.13,653.03c-3.04.41-6.01.82-8.92,1.21,1.99-2.16,6.45-2.77,8.92-1.21Z"/><path class="cls-12" d="m678.83,643.93c.63.19,1.41.21,1.88.6,2.37,1.98,3.38,4.49,2.59,8.02-.59-3.64-2.15-6.34-4.43-8.65l-.03.03Z"/><path class="cls-12" d="m647.1,645.37c1.28-2.31,3.53-3.43,7.67-3.95-2.33,2.1-5.35,2.33-7.67,3.95Z"/><path class="cls-12" d="m557.58,606.19c-2.81-.25-5.62-.5-8.56-.76,3.03-1.78,5.81-1.06,8.56.76Z"/><path class="cls-12" d="m600.25,612.48c-.48,2.52-1.27,4.99-1.28,7.59,0,.19-.32.38-.84.95.23-3.29-.92-6.39,2.11-8.56l.02.02Z"/><path class="cls-12" d="m620.76,602.09c2.04-.44,3.15.96,4.45,1.83.15.1.1.64,0,.93-.06.16-.49.35-.64.28-1.36-.63-2.87-1.04-3.85-2.3-.08-.1.01-.33.04-.75Z"/><path class="cls-12" d="m639.54,609.32c1.87,1.78,4.13,2.6,6.84,2.67-3.19,1.77-6.3.48-6.84-2.67h0Z"/><path class="cls-12" d="m548.19,640.51c-2.59.4-5.08.78-7.58,1.16,1.37-2.08,4.62-2.57,7.58-1.16Z"/><path class="cls-12" d="m607.1,678.57c2.04.02,4.12.32,5.98-1.34.39,1.57-.8,1.74-1.46,2.14-1.57.94-3.18,1.09-4.65-.28.04-.17.09-.35.13-.52Z"/><path class="cls-12" d="m604.5,634.77c2.54.14,4.82,1.17,7.65,2.12-3.25.59-5.56-.35-7.65-2.12Z"/><path class="cls-12" d="m618.15,655.56c-.32-3.06.78-5.15,2.69-7.18.05,1.2-1.56,5.48-2.69,7.18Z"/><path class="cls-12" d="m712.13,680.62v1.47c-1.21-.66-2.25-1.77-2.87-3.2,1,.6,1.94,1.17,2.87,1.73Z"/><path class="cls-12" d="m654.69,656.45c2.26-1.95,4.49-2.27,7.43-1.06-.04.15-.07.3-.09.46-2.41.24-4.81.48-7.22.72l-.12-.12Z"/><path class="cls-12" d="m697.17,669.6c2.47,2.28,2.31,4.53-.49,6.84l-.07-.07c0-.08-.04-.19,0-.25,1.05-2.1,1.16-4.28.58-6.52h-.01Z"/><path class="cls-12" d="m594.48,673.26c-1.39,1.69-2.61,3.46-2.96,5.97-1.33-2.92.13-5.56,2.96-5.97h0Z"/><path class="cls-12" d="m671.36,664.18c1.41,2.22.77,4.56-1.84,5.91.63-2.01,1.23-3.95,1.84-5.91Z"/><path class="cls-12" d="m655.58,681.51c-1.97,2.55-4.07,2.89-6.67,1.34,1.42-.07,2.57,0,3.66-.23,1.04-.21,2.01-.73,3.01-1.12Z"/><path class="cls-12" d="m572.99,655.44c-1.41,1.53-2.82,3.06-4.35,4.71-.38-1.34.48-2.25,1.08-3.13.74-1.1,1.78-1.92,3.29-1.56,0,0-.01-.01-.01-.01Z"/><path class="cls-12" d="m539.97,651.79c1.91,1.21,3.94,1.97,6.73,1.38-3.04,2.26-5.72,1.5-6.7-1.41l-.03.03Z"/><path class="cls-12" d="m542.31,621.2c-.36-3.47.28-4.48,3.76-5.56-2,1.76-3.04,3.58-3.76,5.56Z"/><path class="cls-12" d="m652.57,617.52c2.88,1.75,3.26,3.15,1.98,5.5-.58-1.62-1.23-3.43-1.98-5.5Z"/><path class="cls-12" d="m615.32,620.66c1.56,2.07.98,3.89-.09,5.73-.41-1.75-.4-3.63.09-5.73Z"/><path class="cls-12" d="m528.14,650.73c-2.48-.06-4.46.2-6.45-.23.23-1.2,1.14-.85,1.7-.8,1.48.12,3.13-.62,4.76,1.04Z"/><path class="cls-12" d="m572.84,609.75c-1.26-1.09-2.52-2.19-3.77-3.27,2.47-.39,3.69.65,3.77,3.27Z"/><path class="cls-12" d="m652.84,660.97c1.67-2.2,3.23-3.27,6.03-2.76-2.12.93-3.7,1.96-6.03,2.76Z"/><path class="cls-12" d="m601.64,624.47c-1.67-1.42-1.88-2.65-1.14-6.95.41,2.52.77,4.68,1.14,6.95Z"/><path class="cls-12" d="m540.37,645.19c.6-2.14,2.09-2.88,3.97-2.29-1.42.82-2.69,1.55-3.97,2.29Z"/><path class="cls-12" d="m679.79,676.9c1.89.54,3.52.86,4.66,2.33-2.06.25-3.03-.21-4.66-2.33Z"/><path class="cls-12" d="m540.58,648.44c.97.94,1.89,1.84,2.84,2.76-.71,1.01-1.57.22-2.3-.25-.86-.55-.97-1.5-.54-2.51Z"/><path class="cls-12" d="m529.85,675.13c.72-1.97,1.25-3.42,1.86-5.08.74,2.84.56,3.39-1.86,5.08Z"/><path class="cls-12" d="m625.39,664.76c1.38-.11,2.76-.21,4.14-.32,0,.3.01.6.02.9-1.38.32-2.75.42-4.13,0,0-.2-.02-.4-.03-.59Z"/><path class="cls-12" d="m583.15,665.04c-.52,1.64-1.62,2.87-2.84,4.02l.03.03c-.08-1.97,1.19-3.15,2.51-4.29.09.09.19.17.29.24Z"/><path class="cls-12" d="m620.09,639.51c1.45-1.31,3.17-1.48,5.06-1.07-1.61.46-3.21.91-4.82,1.37-.15-.05-.23-.15-.24-.3Z"/><path class="cls-12" d="m643.41,609.03c1.32-.25,2.27-.42,3.25-.61-.48,1.7-1.16,1.88-3.25.61Z"/><path class="cls-12" d="m547.38,637.7c0,.31-.01.62-.02.93-.69-.02-1.39-.05-2.46-.09.89-1.22,1.73-.87,2.48-.84Z"/><path class="cls-12" d="m644.38,664.4c-.19-.34-.39-.69-.58-1.03.03-.53.07-1.07.14-2.11,1.01,1.31,1.17,2.18.44,3.14Z"/><path class="cls-12" d="m685.13,685.97c0-.21-.02-.41-.02-.62.98.22,1.96.44,3.5.78-1.55.19-2.53.62-3.48-.16Z"/><path class="cls-12" d="m625.39,664.76c0,.2.02.4.03.59-.51-.17-1.02-.34-1.53-.5.05-.17.11-.35.16-.52.45.14.9.29,1.34.43Z"/><path class="cls-12" d="m629.55,665.35c0-.3-.01-.6-.02-.9.48-.03.95-.07,1.52-.11-.26.92-.78,1.13-1.5,1.01Z"/><path class="cls-12" d="m608.52,656.7v1.7c-.1,0-.2,0-.31.01-.03-.6-.07-1.2-.1-1.8.14.03.27.06.41.09Z"/><path class="cls-12" d="m513.67,654.25c.09-.22.14-.55.3-.63.22-.1.53,0,.81,0-.08.21-.1.48-.25.61-.17.14-.44.16-.67.23-.06-.07-.12-.14-.18-.21Z"/><path class="cls-12" d="m675.91,637.25h1.69c0,.07,0,.14,0,.21h-1.69v-.21Z"/><path class="cls-12" d="m662.03,655.85c.02-.15.05-.31.09-.46.46.04.93.08,1.39.12,0,.11-.01.22-.02.34h-1.47Z"/><path class="cls-12" d="m677.81,640.75c-.47-.04-.95-.08-1.42-.12.04-.13.09-.27.13-.4.42.18.84.37,1.26.55,0,0,.03-.04.03-.04Z"/><path class="cls-12" d="m697.63,667.04c-.33-.37-.65-.74-.98-1.12h0c.76-.17,1.1.22,1.2.92-.08.06-.16.13-.23.2Z"/><path class="cls-12" d="m659.01,657.64c.26.03.52.06.78.1,0,0,0,.15,0,.15-.26.04-.52.06-.78.09,0-.11,0-.23,0-.34Z"/><path class="cls-12" d="m513.85,654.46c-.32.22-.64.43-.96.65-.07-.1-.14-.19-.23-.28.34-.19.68-.39,1.01-.58.05.07.11.14.18.21Z"/><path class="cls-12" d="m587.13,659.1c-.25.16-.5.33-.74.49-.05-.11-.1-.22-.15-.33.31-.05.61-.09.92-.14,0,0-.03-.03-.03-.03Z"/><path class="cls-12" d="m571.93,651.24c-.32.21-.63.42-.95.63l-.14-.15c.37-.15.74-.3,1.12-.45l-.03-.03Z"/><path class="cls-12" d="m567.77,651.27c.26-.16.53-.32.79-.49l.14.34c-.32.04-.64.08-.96.12,0,0,.03.03.03.03Z"/><path class="cls-12" d="m648.44,647.04c-.25.16-.5.32-.74.48-.05-.11-.09-.21-.14-.32.3-.04.61-.09.91-.13l-.03-.03Z"/><path class="cls-12" d="m556.69,646.11c-.08.08-.17.16-.26.24-.05-.15-.14-.3-.13-.44,0-.1.16-.18.25-.27.05.15.1.3.15.47Z"/><path class="cls-12" d="m697.19,669.59c-.16-.25-.32-.5-.48-.75.11-.05.22-.1.32-.14.05.3.1.6.14.9,0,0,.01-.01.01-.01Z"/><path class="cls-12" d="m580.31,669.05c-.05.31-.09.62-.14.93-.11-.05-.22-.1-.34-.15.17-.25.34-.5.51-.75,0,0-.03-.03-.03-.03Z"/><path class="cls-12" d="m635.34,673.77c-.23.19-.46.37-.7.56-.05-.11-.1-.22-.16-.34.29-.06.59-.13.88-.19l-.03-.03Z"/><path class="cls-12" d="m561.48,674.82c-.32-.02-.65-.03-.97-.05.05-.13.09-.26.14-.39.27.16.53.32.8.48,0,0,.03-.04.03-.04Z"/><path class="cls-12" d="m561.44,674.85c.31.05.62.09.94.14-.04.1-.09.2-.13.29-.26-.16-.51-.31-.77-.47l-.03.04Z"/><path class="cls-12" d="m625.09,635.3c.11-.08.22-.2.32-.2.12,0,.23.13.35.2-.07.05-.14.14-.2.13-.15-.02-.3-.08-.47-.13Z"/><path class="cls-12" d="m607.1,678.57c-.04.17-.09.35-.13.52-.29-.08-.59-.15-.88-.23.01-.1.03-.19.04-.29h.97Z"/><path class="cls-12" d="m673.6,679.55c-.17-.35-.34-.71-.51-1.06l-.03.04c.18.34.36.69.53,1.03h0Z"/><path class="cls-12" d="m570.39,629.23c-.17-.24-.33-.49-.5-.73.11-.05.22-.1.33-.15.05.3.1.6.15.9,0,0,.02-.02.02-.02Z"/><path class="cls-12" d="m531.98,679.91h-.83c0-.06,0-.13,0-.19h.83c0,.06,0,.13,0,.19Z"/><path class="cls-12" d="m619.07,680.56c.06-.31.13-.61.19-.92.12.05.24.1.35.15-.16.28-.32.56-.48.84,0,0-.07-.07-.07-.07Z"/><path class="cls-12" d="m564.04,626.66c-.3-.07-.61-.13-.91-.2.05-.12.1-.24.15-.36.28.16.56.32.84.48,0,0-.08.08-.08.08Z"/><path class="cls-12" d="m651.26,617.42c.19-.06.38-.13.58-.16.02,0,.08.2.12.31-.22.01-.45.02-.67.03-.01-.06-.02-.12-.03-.18Z"/><path class="cls-12" d="m654.2,616.15c-.3-.04-.6-.08-.9-.12.05-.12.09-.24.14-.37.26.15.53.3.79.46l-.03.03Z"/><path class="cls-12" d="m639.54,609.32c-.17-.26-.35-.51-.52-.77.12-.04.24-.08.35-.11.05.3.11.59.16.89h0Z"/><path class="cls-12" d="m601.35,607.28c-.33.21-.65.42-.98.64-.06-.09-.14-.18-.21-.26.34-.18.68-.36,1.02-.54l.17.16Z"/><path class="cls-12" d="m547.54,685.52c.08.12.22.23.21.34,0,.13-.13.25-.21.37-.05-.07-.15-.15-.14-.21.02-.16.08-.32.13-.5Z"/><path class="cls-12" d="m601.8,606.69c.26-.18.53-.36.79-.55.05.12.1.24.15.36-.3.07-.61.15-.91.22l-.03-.03Z"/><path class="cls-12" d="m573,655.45c.24-.16.48-.33.73-.49.05.11.1.21.15.32-.3.05-.59.11-.89.16h.01Z"/><path class="cls-12" d="m559.19,697.67c-.16.05-.3.14-.44.13-.09,0-.17-.16-.26-.25.14-.04.28-.13.42-.11.1,0,.18.15.28.23Z"/><polygon class="cls-12" points="595.78 699.32 595.71 699.15 595.88 699.17 595.78 699.32"/><path class="cls-12" d="m605.94,693.64c.18-.17.36-.34.54-.51l.12.12c-.16.19-.33.37-.49.56l-.16-.17Z"/><path class="cls-12" d="m606.48,693.13c.19-.16.39-.31.58-.47h-.01c-.15.19-.3.39-.45.59,0,0-.12-.12-.12-.12Z"/><path class="cls-12" d="m583.87,691.32s-.05.09-.08.13c-.08-.05-.15-.1-.23-.15.05-.05.11-.13.16-.13.05,0,.1.09.15.14Z"/><path class="cls-12" d="m582.47,690.51c.14.07.28.14.41.21-.08.08-.15.17-.23.25-.09-.13-.18-.26-.26-.39l.08-.08Z"/><path class="cls-12" d="m582.01,689.93c.16.19.31.39.47.58,0,0-.08.08-.08.08-.19-.16-.37-.33-.56-.49,0,0,.17-.16.17-.16Z"/><path class="cls-12" d="m581.51,689.38c.17.19.33.37.5.56l-.17.16c-.18-.17-.35-.34-.53-.51.07-.07.13-.14.2-.21Z"/><path class="cls-12" d="m601.83,606.72c-.16.19-.32.38-.48.57,0,0-.17-.16-.17-.16.21-.15.41-.29.62-.44,0,0,.03.03.03.03Z"/><path class="cls-12" d="m657.8,683.96c-.03.06-.07.11-.1.17l-.29-.18c.07-.06.13-.16.2-.16.06,0,.13.1.19.16Z"/><path class="cls-12" d="m600.23,612.46c.07-.13.13-.27.2-.4l.22.24c-.13.06-.27.12-.4.18,0,0-.02-.02-.02-.02Z"/><path class="cls-12" d="m708.2,682.16c-.13-.06-.27-.12-.4-.17.07-.06.14-.13.21-.19.05.13.1.27.16.4l.03-.03Z"/><path class="cls-12" d="m667.31,620.86c-.13-.06-.27-.12-.4-.18.07-.08.15-.16.22-.24l.19.42h0Z"/><path class="cls-12" d="m656.52,681.54c-.06-.06-.12-.11-.17-.17.07-.05.13-.14.2-.13.06,0,.11.1.17.16-.07.05-.13.1-.19.14Z"/><path class="cls-12" d="m618.57,681.05c.16-.16.33-.33.49-.49,0,0,.07.07.07.07-.16.17-.32.33-.48.5,0,0-.08-.08-.08-.08Z"/><path class="cls-12" d="m674.21,680c.19.16.38.32.58.48-.07.07-.14.13-.21.2-.16-.19-.33-.37-.49-.56,0,0,.13-.12.13-.12Z"/><path class="cls-12" d="m564.47,627.19l-.43-.54s.08-.08.08-.08c.18.14.36.29.54.43-.01.11-.08.17-.19.18Z"/><path class="cls-12" d="m673.1,678.49c-.13-.04-.26-.09-.39-.13.06-.07.11-.14.17-.21.06.13.12.25.18.38l.03-.04Z"/><path class="cls-12" d="m603.69,634.07c.06.05.11.1.17.16-.12,0-.24-.01-.36-.02.06-.05.12-.09.19-.14Z"/><path class="cls-12" d="m513.26,677.46c.19.16.37.32.56.48,0,0-.1.1-.1.1-.15-.2-.31-.39-.46-.59,0,0,0,0,0,0Z"/><path class="cls-12" d="m513.26,677.45c-.17-.18-.34-.36-.51-.54,0,0-.03.03-.03.03.18.17.36.34.54.51,0,0,0,0,0,0Z"/><path class="cls-12" d="m698.99,676.81s-.12-.11-.11-.17c0-.06.09-.11.14-.17.04.06.13.13.12.18,0,.06-.1.1-.16.15Z"/><path class="cls-12" d="m696.69,676.44c-.08.13-.16.25-.25.38-.08-.08-.15-.17-.23-.25.13-.07.27-.14.4-.21,0,0,.07.07.07.07Z"/><path class="cls-12" d="m512.75,676.92c-.14-.05-.28-.1-.41-.16.07-.07.14-.15.2-.22.06.14.12.27.18.41,0,0,.03-.03.03-.03Z"/><path class="cls-12" d="m675.06,676.13c-.03.06-.05.11-.08.17-.07-.06-.14-.12-.21-.18.05-.05.1-.11.15-.16.04.06.09.12.13.18Z"/><path class="cls-12" d="m619.11,676.42c.06-.14.12-.27.18-.41.07.08.13.15.2.23l-.4.16s.02.02.02.02Z"/><path class="cls-12" d="m533.67,674.82c-.17.18-.33.36-.5.54,0,0,0,0,0,0,.18-.17.36-.34.54-.5,0,0-.03-.03-.03-.03Z"/><path class="cls-12" d="m533.71,674.85c.08-.14.15-.28.23-.42-.09.13-.17.26-.26.38,0,0,.03.03.03.03Z"/><path class="cls-12" d="m594.48,673.27c.05-.13.1-.26.15-.39.08.06.16.13.24.19-.13.07-.27.13-.4.2,0,0,0,0,0,0Z"/><path class="cls-12" d="m668.55,670.26h.19c-.03.1-.07.21-.1.31-.06-.05-.14-.1-.17-.17-.01-.03.06-.1.09-.14Z"/><path class="cls-12" d="m539.92,642.1c-.06.04-.12.13-.18.12-.06,0-.11-.1-.16-.15.06-.05.13-.13.18-.12.06,0,.1.1.16.16Z"/><path class="cls-12" d="m552.22,669.22s.12-.02.14,0c.04.05.05.12.07.18-.1,0-.19,0-.29,0,.02-.06.05-.12.07-.18Z"/><path class="cls-12" d="m678.86,643.9c-.13-.06-.27-.12-.4-.17.07-.06.15-.12.22-.19.05.13.1.26.15.39,0,0,.03-.03.03-.03Z"/><path class="cls-12" d="m609.95,644.03s.11.11.11.16c0,.06-.09.11-.14.16-.04-.06-.12-.12-.12-.17,0-.05.1-.1.15-.14Z"/><path class="cls-12" d="m640.57,665.91c-.07.14-.14.27-.21.41l.24-.37s-.04-.03-.04-.03Z"/><path class="cls-12" d="m539.88,645.67c-.03.06-.05.12-.08.18-.08-.06-.16-.12-.24-.18.05-.06.11-.12.16-.18.05.06.1.12.16.18Z"/><path class="cls-12" d="m564.26,664.99h.17c-.03.13-.06.25-.09.38-.05-.06-.13-.12-.16-.2-.01-.05.05-.12.08-.18Z"/><path class="cls-12" d="m571.96,651.27c.04-.13.09-.26.13-.38.07.06.14.11.22.17-.13.06-.25.12-.38.18,0,0,.03.03.03.03Z"/><path class="cls-12" d="m616.77,650.82s.11.11.11.17c0,.06-.09.11-.14.16-.04-.06-.12-.12-.12-.18,0-.05.1-.1.15-.15Z"/><path class="cls-12" d="m540,651.76c-.13-.04-.25-.09-.38-.13.06-.07.11-.14.17-.22.06.13.12.25.18.38,0,0,.03-.03.03-.03Z"/><path class="cls-12" d="m567.2,651.74c.19-.16.38-.32.57-.48,0,0-.03-.03-.03-.03-.16.19-.32.38-.48.56,0,0-.05-.05-.05-.05Z"/><path class="cls-12" d="m567.25,651.8c-.16.19-.32.38-.48.57-.06-.06-.12-.13-.18-.19.2-.14.41-.29.61-.43,0,0,.05.05.05.05Z"/><path class="cls-12" d="m566.05,652.69c.18-.17.36-.34.54-.51.06.06.12.13.18.19-.17.18-.34.35-.52.53-.07-.07-.14-.13-.21-.2Z"/><path class="cls-12" d="m652.92,661.61s-.1-.06-.15-.09c.06-.09.12-.18.17-.26.05.06.15.12.15.18,0,.06-.11.11-.17.17Z"/><path class="cls-12" d="m515.5,652.96c.06,0,.11,0,.17,0-.03.1-.07.19-.1.29-.05-.05-.12-.1-.15-.16-.01-.02.05-.09.08-.13Z"/><polygon class="cls-12" points="547.03 653.2 546.96 653.03 547.13 653.05 547.03 653.2"/><path class="cls-12" d="m640.46,653.64l-.14.13c-.04-.05-.11-.11-.11-.16,0-.05.09-.09.14-.14.04.05.08.11.12.16Z"/><polygon class="cls-12" points="653.32 657.27 653.52 657.21 653.5 657.37 653.32 657.27"/><path class="cls-12" d="m654.81,656.56c-.09.13-.18.26-.27.38-.09-.08-.18-.17-.27-.25.14-.08.28-.16.42-.25l.12.12Z"/><polygon class="cls-12" points="517.2 654.78 517.12 654.61 517.31 654.62 517.2 654.78"/><path class="cls-12" d="m696.65,665.93c-.14-.07-.27-.14-.41-.21.09-.07.17-.14.26-.2.05.14.1.27.15.41h0Z"/><path class="cls-12" d="m674.08,680.12c-.16-.19-.32-.38-.48-.57h0c.2.15.41.3.61.45l-.13.12Z"/><path class="cls-12" d="m690.15,573.02c-4.17-1.46-8.39-2.2-12.78-2.08,4.64-1.47,8.93-.77,12.78,2.08Z"/><path class="cls-12" d="m712.13,561.91v1.4c-1.81-.95-3.79-1.62-6.07-1.83,2.24-.53,4.34-.35,6.07.43Z"/><path class="cls-12" d="m654.7,576.79c1.43-2.91,3.69-4.83,6.82-5.69.13-.03.3.11.29.1-2.05,1.81-4.16,3.67-6.28,5.51-.17.14-.48.12-.73.17l-.11-.09Z"/><path class="cls-12" d="m689.34,570.52c-1.1-.18-2.19-.34-3.29-.53-1.5-.25-2.99-.52-5.02-.88,1.6-.97,2.92-.78,4.05-.58,1.54.26,3.27.4,4.22,2.02l.03-.03Z"/><path class="cls-12" d="m658.48,577.42c-1.78,2.43-4.28,3.56-7.33,4.18,1.21-1.29,5.49-3.88,7.12-4.38.07.07.14.13.21.2Z"/><path class="cls-12" d="m688.18,559.85c-2.47-1.12-4.93-1.17-7.66-.2,1.52-1.66,1.81-1.76,4.05-1.74,1.5.01,2.86.3,3.61,1.94Z"/><path class="cls-12" d="m698.75,572.11c2.02,1.58,4.43,1,6.79,1.1-2.23,2.41-6.5,1.67-6.79-1.1h0Z"/><path class="cls-12" d="m689.67,557.57c-2.43-.83-4.88-1.53-7.82-1.04,1.84-1.24,2.2-1.31,4.41-1.19,1.57.08,2.78.73,3.66,2.03-.08.07-.16.14-.25.2Z"/><path class="cls-12" d="m712.13,565.22v1.08c-.38-.36-.73-.76-.83-1.38.3.09.57.19.83.3Z"/><path class="cls-12" d="m668.87,559.81c-.76,1.46-1.52,2.93-2.4,4.62-.58-2.41,0-3.98,2.4-4.62Z"/><path class="cls-12" d="m681.45,556.72h-.75c.16-.07.31-.16.48-.21.05-.01.13.09.28.21Z"/><path class="cls-12" d="m654.8,576.89c-.08.3-.16.59-.23.89-.12-.05-.23-.1-.35-.15.16-.28.32-.55.48-.83,0,0,.11.09.11.09Z"/><path class="cls-12" d="m690.88,559.02c.16.26.32.51.47.77-.11.05-.21.09-.32.14-.04-.31-.09-.62-.13-.93l-.03.03Z"/><path class="cls-12" d="m690.32,558.53c-.22-.32-.43-.64-.65-.96.09-.06.17-.13.25-.2.17.35.35.69.52,1.04,0,0-.12.12-.12.12Z"/><path class="cls-12" d="m690.44,558.41l.43.61.03-.03c-.19-.15-.39-.31-.58-.46l.12-.12Z"/><path class="cls-12" d="m689.31,570.55c.13.06.26.12.39.18-.07.06-.15.12-.22.18-.05-.13-.1-.26-.15-.39l-.03.03Z"/><path class="cls-12" d="m698.75,572.11c-.13-.05-.27-.1-.4-.15.07-.08.13-.16.2-.24.07.13.13.26.2.4h0Z"/><path class="cls-12" d="m658.91,576.8c.06-.14.12-.27.17-.41.08.07.17.14.25.21-.13.08-.26.16-.39.24l-.04-.04Z"/><path class="cls-12" d="m658.27,577.22c.21-.14.42-.28.63-.42,0,0,.04.04.04.04-.15.19-.31.39-.46.58-.07-.07-.14-.13-.21-.2Z"/><path class="cls-12" d="m676.11,715.6c.13-.31.17-.71.39-.92,2.42-2.37,7.41-4.04,11.87-.64-.44.04-.78.15-1.06.07-3.73-1-7.32-1.09-10.52,1.55-.12.1-.33.09-.5.13,0,0-.18-.19-.18-.19Z"/><path class="cls-12" d="m651.79,718.09c4.23-.69,8.29.03,12.22,1.67-4.16.13-8.14-1.1-12.22-1.67Z"/><path class="cls-12" d="m689.9,720.38c-1.04-2.94-1.98-3.65-5-3.72-.94-.02-1.89,0-2.83,0-.04-.16-.08-.31-.13-.46,2.06-1,4.14-.84,6.17,0,1.84.76,2.36,2.39,2.38,4.24-.2-.02-.4-.04-.59-.06Z"/><path class="cls-12" d="m678.05,729.94c1.99,1.78,4.34,2.28,7.05,2.07-2.54,2.04-5.54,1.18-7.05-2.07Z"/><path class="cls-12" d="m688.2,725.1c-.45-2.26-1.07-4.39-3.45-6.09,3.62.86,4.53,2.6,3.45,6.09Z"/><path class="cls-12" d="m689.9,720.38c.2.02.4.04.59.06.16.41.32.82.52,1.32-1.1-.09-1.22-.66-1.11-1.38Z"/><path class="cls-12" d="m681.94,716.21c.05.15.09.31.13.46-.47.04-.93.07-1.4.11-.01-.12-.02-.24-.04-.36.44-.07.87-.14,1.31-.21Z"/><path class="cls-12" d="m664.86,720.05h.19l-.1.32c-.06-.06-.13-.11-.17-.17-.01-.03.06-.1.08-.15Z"/><path class="cls-12" d="m675.17,716.76c-.06.14-.12.28-.17.42-.07-.08-.15-.15-.22-.23.14-.06.27-.12.41-.18h-.01Z"/><path class="cls-12" d="m675.18,716.77c.17-.18.33-.37.5-.55l.04.04c-.18.17-.36.34-.55.5,0,0,.01.01.01.01Z"/><path class="cls-12" d="m675.67,716.22c.14-.21.29-.41.43-.62l.18.19c-.19.16-.38.31-.58.47l-.04-.04Z"/><polygon class="cls-12" points="690.09 715.04 690.02 714.88 690.19 714.9 690.09 715.04"/><path class="cls-12" d="m689.1,714.56l-.18-.08c.06-.08.13-.16.19-.23.06.05.12.11.18.16-.06.05-.13.1-.19.15Z"/></g></svg>